M48
INCH,TZ
T1C0.016
T2C0.028
T3C0.059
T4C0.087
%
G90
G05
T1
X3.8091Y-1.6043
X4.813Y-2.687
X4.8228Y-2.7461
X4.9311Y-2.7461
X4.9902Y-2.9331
X5.0591Y-2.9331
X5.128Y-2.9331
X5.5512Y-2.7461
X5.561Y-3.6319
X5.561Y-4.2815
X5.5709Y-2.6969
X5.689Y-2.7461
X5.7382Y-2.9331
X5.7579Y-4.5965
X5.8071Y-2.9331
X5.876Y-2.9331
X6.0531Y-4.6063
X6.2205Y-4.7441
X6.2205Y-4.7835
X6.2205Y-4.8228
X6.2205Y-4.8622
X6.2205Y-4.9016
X6.2303Y-2.7461
X6.25Y-3.6319
X6.2598Y-4.1732
X6.2894Y-2.7264
X6.3878Y-2.7461
X6.4862Y-4.4783
X6.4961Y-2.9331
X6.5453Y-4.8031
X6.565Y-4.439
X6.6043Y-4.9803
X6.6339Y-4.2815
X6.9193Y-5.0689
X6.9685Y-5.0689
X6.9882Y-4.1437
X7.0177Y-5.0689
X7.0571Y-5.0689
X7.0965Y-5.0689
X7.1161Y-4.1437
X7.185Y-5.0787
X7.2343Y-5.0492
X7.3819Y-4.3012
X7.5984Y-4.4488
X7.5984Y-4.8425
X7.6378Y-4.626
X8.4055Y-4.1929
X8.5236Y-4.311
X8.9764Y-5.0689
X9.0157Y-5.0689
X9.0551Y-5.0689
X9.0945Y-5.0689
X9.1339Y-5.0689
X9.5669Y-4.4291
T2
X3.3152Y-1.875
X3.409Y-4.875
X3.5027Y-2.625
X3.5965Y-3.375
X3.6223Y-1.875
X3.716Y-4.875
X3.784Y-4.125
X3.8098Y-2.625
X3.9035Y-3.375
X4.0652Y-1.875
X4.091Y-4.125
X4.3465Y-4.875
X4.3723Y-1.875
X4.4402Y-2.625
X4.6277Y-3.375
X4.6535Y-4.875
X4.7473Y-2.625
X4.8152Y-1.875
X4.9348Y-3.375
X5.0027Y-4.125
X5.1223Y-1.875
X5.1902Y-2.625
X5.284Y-4.875
X5.3098Y-4.125
X5.3777Y-3.375
X5.4973Y-2.625
X5.5652Y-1.875
X5.591Y-4.875
X5.6848Y-3.375
X5.7527Y-4.125
X5.8723Y-1.875
X5.9402Y-2.625
X6.0598Y-4.125
X6.1277Y-3.375
X6.2473Y-2.625
X6.3152Y-1.875
X6.4348Y-3.375
X6.5027Y-4.125
X6.6223Y-1.875
X6.6902Y-2.625
X6.8098Y-4.125
X6.8777Y-3.375
X6.9973Y-2.625
X7.0652Y-1.875
X7.1848Y-3.375
X7.2527Y-4.125
X7.3723Y-1.875
X7.4402Y-2.625
X7.5598Y-4.125
X7.6277Y-3.375
X7.7473Y-2.625
X7.8152Y-1.875
X7.9348Y-3.375
X8.0027Y-4.125
X8.0965Y-4.875
X8.1223Y-1.875
X8.1902Y-2.625
X8.3098Y-4.125
X8.3777Y-3.375
X8.4035Y-4.875
X8.4973Y-2.625
X8.5652Y-1.875
X8.6848Y-3.375
X8.7527Y-4.125
X8.8723Y-1.875
X8.9402Y-2.625
X9.0598Y-4.125
X9.1277Y-3.375
X9.2473Y-2.625
X9.3152Y-1.875
X9.4348Y-3.375
X9.5027Y-4.125
X9.6223Y-1.875
X9.6902Y-2.625
X9.8098Y-4.125
X9.8777Y-3.375
X9.9973Y-2.625
X10.0652Y-1.875
X10.1848Y-3.375
X10.2527Y-4.125
X10.3723Y-1.875
X10.4402Y-2.625
X10.5598Y-4.125
X10.6277Y-3.375
X10.7473Y-2.625
X10.8152Y-1.875
X10.8152Y-4.875
X10.9348Y-3.375
X11.0027Y-4.125
X11.1223Y-1.875
X11.1223Y-4.875
X11.1902Y-2.625
X11.3098Y-4.125
X11.3777Y-3.375
X11.4973Y-2.625
X11.5652Y-1.875
X11.5652Y-4.875
X11.6848Y-3.375
X11.7527Y-4.125
X11.8723Y-1.875
X11.8723Y-4.875
X11.9402Y-2.625
X12.0598Y-4.125
X12.1277Y-3.375
X12.2473Y-2.625
X12.3152Y-1.875
X12.3152Y-4.875
X12.4348Y-3.375
X12.6223Y-1.875
X12.6223Y-4.875
X12.6902Y-2.625
X12.784Y-4.125
X12.9973Y-2.625
X13.0652Y-4.875
X13.091Y-4.125
X13.3465Y-3.375
X13.3723Y-4.875
X13.4402Y-1.875
X13.6277Y-2.625
X13.6535Y-3.375
X13.7473Y-1.875
X13.8152Y-4.125
X13.8152Y-4.875
X13.9348Y-2.625
X14.1223Y-4.125
X14.1223Y-4.875
X14.5652Y-1.875
X14.5652Y-2.625
X14.5652Y-3.375
X14.5652Y-4.125
X14.5652Y-4.875
X14.8723Y-1.875
X14.8723Y-2.625
X14.8723Y-3.375
X14.8723Y-4.125
X14.8723Y-4.875
T4
X3.2579Y-2.0866
X4.9705Y-4.3307
X8.9075Y-2.8346
X13.5925Y-4.3307
X14.3406Y-2.0669
T2
X3.6949Y-1.3622G85X3.6949Y-1.4606
G05
X3.9823Y-1.3622G85X3.9823Y-1.4606
G05
T3
X3.3507Y-1.53G85X3.3187Y-1.5875
G05
X3.4444Y-4.53G85X3.4125Y-4.5875
G05
X3.5382Y-2.28G85X3.5062Y-2.3375
G05
X3.5687Y-1.4875G85X3.5672Y-1.5103
G05
X3.6319Y-3.03G85X3.6Y-3.0875
G05
X3.6625Y-4.4875G85X3.6609Y-4.5103
G05
X3.7562Y-2.2375G85X3.7547Y-2.2603
G05
X3.8194Y-3.78G85X3.7875Y-3.8375
G05
X3.85Y-2.9875G85X3.8484Y-3.0103
G05
X4.0375Y-3.7375G85X4.0359Y-3.7603
G05
X4.1007Y-1.53G85X4.0687Y-1.5875
G05
X4.3187Y-1.4875G85X4.3172Y-1.5103
G05
X4.3819Y-4.53G85X4.35Y-4.5875
G05
X4.4757Y-2.28G85X4.4437Y-2.3375
G05
X4.6Y-4.4875G85X4.5984Y-4.5103
G05
X4.6632Y-3.03G85X4.6312Y-3.0875
G05
X4.6937Y-2.2375G85X4.6922Y-2.2603
G05
X4.8507Y-1.53G85X4.8187Y-1.5875
G05
X4.8812Y-2.9875G85X4.8797Y-3.0103
G05
X5.0382Y-3.78G85X5.0062Y-3.8375
G05
X5.0687Y-1.4875G85X5.0672Y-1.5103
G05
X5.2257Y-2.28G85X5.1937Y-2.3375
G05
X5.2562Y-3.7375G85X5.2547Y-3.7603
G05
X5.3194Y-4.53G85X5.2875Y-4.5875
G05
X5.4132Y-3.03G85X5.3812Y-3.0875
G05
X5.4437Y-2.2375G85X5.4422Y-2.2603
G05
X5.5375Y-4.4875G85X5.5359Y-4.5103
G05
X5.6007Y-1.53G85X5.5687Y-1.5875
G05
X5.6312Y-2.9875G85X5.6297Y-3.0103
G05
X5.7882Y-3.78G85X5.7562Y-3.8375
G05
X5.8187Y-1.4875G85X5.8172Y-1.5103
G05
X5.9757Y-2.28G85X5.9437Y-2.3375
G05
X6.0062Y-3.7375G85X6.0047Y-3.7603
G05
X6.1632Y-3.03G85X6.1312Y-3.0875
G05
X6.1937Y-2.2375G85X6.1922Y-2.2603
G05
X6.3507Y-1.53G85X6.3187Y-1.5875
G05
X6.3812Y-2.9875G85X6.3797Y-3.0103
G05
X6.5382Y-3.78G85X6.5062Y-3.8375
G05
X6.5687Y-1.4875G85X6.5672Y-1.5103
G05
X6.7257Y-2.28G85X6.6937Y-2.3375
G05
X6.7562Y-3.7375G85X6.7547Y-3.7603
G05
X6.9132Y-3.03G85X6.8812Y-3.0875
G05
X6.9437Y-2.2375G85X6.9422Y-2.2603
G05
X7.1007Y-1.53G85X7.0687Y-1.5875
G05
X7.1312Y-2.9875G85X7.1297Y-3.0103
G05
X7.2882Y-3.78G85X7.2562Y-3.8375
G05
X7.3187Y-1.4875G85X7.3172Y-1.5103
G05
X7.4757Y-2.28G85X7.4437Y-2.3375
G05
X7.5062Y-3.7375G85X7.5047Y-3.7603
G05
X7.6632Y-3.03G85X7.6312Y-3.0875
G05
X7.6937Y-2.2375G85X7.6922Y-2.2603
G05
X7.8507Y-1.53G85X7.8187Y-1.5875
G05
X7.8812Y-2.9875G85X7.8797Y-3.0103
G05
X8.0382Y-3.78G85X8.0062Y-3.8375
G05
X8.0687Y-1.4875G85X8.0672Y-1.5103
G05
X8.1319Y-4.53G85X8.1Y-4.5875
G05
X8.2257Y-2.28G85X8.1937Y-2.3375
G05
X8.2562Y-3.7375G85X8.2547Y-3.7603
G05
X8.35Y-4.4875G85X8.3484Y-4.5103
G05
X8.4132Y-3.03G85X8.3812Y-3.0875
G05
X8.4437Y-2.2375G85X8.4422Y-2.2603
G05
X8.6007Y-1.53G85X8.5687Y-1.5875
G05
X8.6312Y-2.9875G85X8.6297Y-3.0103
G05
X8.7882Y-3.78G85X8.7562Y-3.8375
G05
X8.8187Y-1.4875G85X8.8172Y-1.5103
G05
X8.9757Y-2.28G85X8.9437Y-2.3375
G05
X9.0062Y-3.7375G85X9.0047Y-3.7603
G05
X9.1632Y-3.03G85X9.1312Y-3.0875
G05
X9.1937Y-2.2375G85X9.1922Y-2.2603
G05
X9.3507Y-1.53G85X9.3187Y-1.5875
G05
X9.3812Y-2.9875G85X9.3797Y-3.0103
G05
X9.5382Y-3.78G85X9.5062Y-3.8375
G05
X9.5687Y-1.4875G85X9.5672Y-1.5103
G05
X9.7257Y-2.28G85X9.6937Y-2.3375
G05
X9.7562Y-3.7375G85X9.7547Y-3.7603
G05
X9.9132Y-3.03G85X9.8812Y-3.0875
G05
X9.9437Y-2.2375G85X9.9422Y-2.2603
G05
X10.1007Y-1.53G85X10.0687Y-1.5875
G05
X10.1312Y-2.9875G85X10.1297Y-3.0103
G05
X10.2882Y-3.78G85X10.2562Y-3.8375
G05
X10.3187Y-1.4875G85X10.3172Y-1.5103
G05
X10.4757Y-2.28G85X10.4437Y-2.3375
G05
X10.5062Y-3.7375G85X10.5047Y-3.7603
G05
X10.6632Y-3.03G85X10.6312Y-3.0875
G05
X10.6937Y-2.2375G85X10.6922Y-2.2603
G05
X10.8507Y-1.53G85X10.8187Y-1.5875
G05
X10.8507Y-4.53G85X10.8187Y-4.5875
G05
X10.8812Y-2.9875G85X10.8797Y-3.0103
G05
X11.0382Y-3.78G85X11.0062Y-3.8375
G05
X11.0687Y-1.4875G85X11.0672Y-1.5103
G05
X11.0687Y-4.4875G85X11.0672Y-4.5103
G05
X11.2257Y-2.28G85X11.1937Y-2.3375
G05
X11.2562Y-3.7375G85X11.2547Y-3.7603
G05
X11.4132Y-3.03G85X11.3812Y-3.0875
G05
X11.4437Y-2.2375G85X11.4422Y-2.2603
G05
X11.6007Y-1.53G85X11.5687Y-1.5875
G05
X11.6007Y-4.53G85X11.5687Y-4.5875
G05
X11.6312Y-2.9875G85X11.6297Y-3.0103
G05
X11.7882Y-3.78G85X11.7562Y-3.8375
G05
X11.8187Y-1.4875G85X11.8172Y-1.5103
G05
X11.8187Y-4.4875G85X11.8172Y-4.5103
G05
X11.9757Y-2.28G85X11.9437Y-2.3375
G05
X12.0062Y-3.7375G85X12.0047Y-3.7603
G05
X12.1632Y-3.03G85X12.1312Y-3.0875
G05
X12.1937Y-2.2375G85X12.1922Y-2.2603
G05
X12.3507Y-1.53G85X12.3187Y-1.5875
G05
X12.3507Y-4.53G85X12.3187Y-4.5875
G05
X12.3812Y-2.9875G85X12.3797Y-3.0103
G05
X12.5687Y-1.4875G85X12.5672Y-1.5103
G05
X12.5687Y-4.4875G85X12.5672Y-4.5103
G05
X12.7257Y-2.28G85X12.6937Y-2.3375
G05
X12.8194Y-3.78G85X12.7875Y-3.8375
G05
X12.9437Y-2.2375G85X12.9422Y-2.2603
G05
X13.0375Y-3.7375G85X13.0359Y-3.7603
G05
X13.1007Y-4.53G85X13.0687Y-4.5875
G05
X13.3187Y-4.4875G85X13.3172Y-4.5103
G05
X13.3819Y-3.03G85X13.35Y-3.0875
G05
X13.4757Y-1.53G85X13.4437Y-1.5875
G05
X13.6Y-2.9875G85X13.5984Y-3.0103
G05
X13.6632Y-2.28G85X13.6312Y-2.3375
G05
X13.6937Y-1.4875G85X13.6922Y-1.5103
G05
X13.8507Y-3.78G85X13.8187Y-3.8375
G05
X13.8507Y-4.53G85X13.8187Y-4.5875
G05
X13.8812Y-2.2375G85X13.8797Y-2.2603
G05
X14.0687Y-3.7375G85X14.0672Y-3.7603
G05
X14.0687Y-4.4875G85X14.0672Y-4.5103
G05
X14.6007Y-1.53G85X14.5687Y-1.5875
G05
X14.6007Y-2.28G85X14.5687Y-2.3375
G05
X14.6007Y-3.03G85X14.5687Y-3.0875
G05
X14.6007Y-3.78G85X14.5687Y-3.8375
G05
X14.6007Y-4.53G85X14.5687Y-4.5875
G05
X14.8187Y-1.4875G85X14.8172Y-1.5103
G05
X14.8187Y-2.2375G85X14.8172Y-2.2603
G05
X14.8187Y-2.9875G85X14.8172Y-3.0103
G05
X14.8187Y-3.7375G85X14.8172Y-3.7603
G05
X14.8187Y-4.4875G85X14.8172Y-4.5103
G05
T0
M30
