G04 #@! TF.FileFunction,Legend,Bot*
%FSLAX46Y46*%
G04 Gerber Fmt 4.6, Leading zero omitted, Abs format (unit mm)*
G04 Created by KiCad (PCBNEW 4.0.7) date 01/28/18 20:53:29*
%MOMM*%
%LPD*%
G01*
G04 APERTURE LIST*
%ADD10C,0.100000*%
%ADD11C,0.150000*%
%ADD12C,0.120000*%
%ADD13C,0.200000*%
G04 APERTURE END LIST*
D10*
D11*
X172207500Y-112980000D02*
X172782500Y-112980000D01*
X172207500Y-123330000D02*
X172882500Y-123330000D01*
X182557500Y-123330000D02*
X181882500Y-123330000D01*
X182557500Y-112980000D02*
X181882500Y-112980000D01*
X172207500Y-112980000D02*
X172207500Y-113655000D01*
X182557500Y-112980000D02*
X182557500Y-113655000D01*
X182557500Y-123330000D02*
X182557500Y-122655000D01*
X172207500Y-123330000D02*
X172207500Y-122655000D01*
X172782500Y-112980000D02*
X172782500Y-111705000D01*
D12*
X186600000Y-111250000D02*
X186600000Y-112250000D01*
X184900000Y-112250000D02*
X184900000Y-111250000D01*
X168850000Y-122500000D02*
X168850000Y-123500000D01*
X167150000Y-123500000D02*
X167150000Y-122500000D01*
X182375000Y-127475000D02*
X181375000Y-127475000D01*
X181375000Y-125775000D02*
X182375000Y-125775000D01*
X167650000Y-112750000D02*
X167650000Y-111750000D01*
X169350000Y-111750000D02*
X169350000Y-112750000D01*
X171500000Y-108150000D02*
X172500000Y-108150000D01*
X172500000Y-109850000D02*
X171500000Y-109850000D01*
X190500000Y-123850000D02*
X189500000Y-123850000D01*
X189500000Y-122150000D02*
X190500000Y-122150000D01*
X189500000Y-112150000D02*
X190500000Y-112150000D01*
X190500000Y-113850000D02*
X189500000Y-113850000D01*
X180500000Y-109850000D02*
X179500000Y-109850000D01*
X179500000Y-108150000D02*
X180500000Y-108150000D01*
X167250000Y-116600000D02*
X166250000Y-116600000D01*
X166250000Y-114900000D02*
X167250000Y-114900000D01*
D13*
X90381250Y-46425000D02*
X90381250Y-48825000D01*
X90556250Y-46425000D02*
X90556250Y-48825000D01*
X90731250Y-46425000D02*
X90731250Y-48825000D01*
X91131250Y-48825000D02*
X91131250Y-46425000D01*
X90906250Y-46425000D02*
X90906250Y-48825000D01*
X91031250Y-46425000D02*
X91031250Y-48825000D01*
X91106250Y-46425000D02*
X85306250Y-46425000D01*
X85306250Y-46425000D02*
X85306250Y-48825000D01*
X85306250Y-48825000D02*
X91106250Y-48825000D01*
X95143750Y-65475000D02*
X95143750Y-67875000D01*
X95318750Y-65475000D02*
X95318750Y-67875000D01*
X95493750Y-65475000D02*
X95493750Y-67875000D01*
X95893750Y-67875000D02*
X95893750Y-65475000D01*
X95668750Y-65475000D02*
X95668750Y-67875000D01*
X95793750Y-65475000D02*
X95793750Y-67875000D01*
X95868750Y-65475000D02*
X90068750Y-65475000D01*
X90068750Y-65475000D02*
X90068750Y-67875000D01*
X90068750Y-67875000D02*
X95868750Y-67875000D01*
X97525000Y-84525000D02*
X97525000Y-86925000D01*
X97700000Y-84525000D02*
X97700000Y-86925000D01*
X97875000Y-84525000D02*
X97875000Y-86925000D01*
X98275000Y-86925000D02*
X98275000Y-84525000D01*
X98050000Y-84525000D02*
X98050000Y-86925000D01*
X98175000Y-84525000D02*
X98175000Y-86925000D01*
X98250000Y-84525000D02*
X92450000Y-84525000D01*
X92450000Y-84525000D02*
X92450000Y-86925000D01*
X92450000Y-86925000D02*
X98250000Y-86925000D01*
X102287500Y-103575000D02*
X102287500Y-105975000D01*
X102462500Y-103575000D02*
X102462500Y-105975000D01*
X102637500Y-103575000D02*
X102637500Y-105975000D01*
X103037500Y-105975000D02*
X103037500Y-103575000D01*
X102812500Y-103575000D02*
X102812500Y-105975000D01*
X102937500Y-103575000D02*
X102937500Y-105975000D01*
X103012500Y-103575000D02*
X97212500Y-103575000D01*
X97212500Y-103575000D02*
X97212500Y-105975000D01*
X97212500Y-105975000D02*
X103012500Y-105975000D01*
X92762500Y-122625000D02*
X92762500Y-125025000D01*
X92937500Y-122625000D02*
X92937500Y-125025000D01*
X93112500Y-122625000D02*
X93112500Y-125025000D01*
X93512500Y-125025000D02*
X93512500Y-122625000D01*
X93287500Y-122625000D02*
X93287500Y-125025000D01*
X93412500Y-122625000D02*
X93412500Y-125025000D01*
X93487500Y-122625000D02*
X87687500Y-122625000D01*
X87687500Y-122625000D02*
X87687500Y-125025000D01*
X87687500Y-125025000D02*
X93487500Y-125025000D01*
X109431250Y-46425000D02*
X109431250Y-48825000D01*
X109606250Y-46425000D02*
X109606250Y-48825000D01*
X109781250Y-46425000D02*
X109781250Y-48825000D01*
X110181250Y-48825000D02*
X110181250Y-46425000D01*
X109956250Y-46425000D02*
X109956250Y-48825000D01*
X110081250Y-46425000D02*
X110081250Y-48825000D01*
X110156250Y-46425000D02*
X104356250Y-46425000D01*
X104356250Y-46425000D02*
X104356250Y-48825000D01*
X104356250Y-48825000D02*
X110156250Y-48825000D01*
X118956250Y-65475000D02*
X118956250Y-67875000D01*
X119131250Y-65475000D02*
X119131250Y-67875000D01*
X119306250Y-65475000D02*
X119306250Y-67875000D01*
X119706250Y-67875000D02*
X119706250Y-65475000D01*
X119481250Y-65475000D02*
X119481250Y-67875000D01*
X119606250Y-65475000D02*
X119606250Y-67875000D01*
X119681250Y-65475000D02*
X113881250Y-65475000D01*
X113881250Y-65475000D02*
X113881250Y-67875000D01*
X113881250Y-67875000D02*
X119681250Y-67875000D01*
X123718750Y-84525000D02*
X123718750Y-86925000D01*
X123893750Y-84525000D02*
X123893750Y-86925000D01*
X124068750Y-84525000D02*
X124068750Y-86925000D01*
X124468750Y-86925000D02*
X124468750Y-84525000D01*
X124243750Y-84525000D02*
X124243750Y-86925000D01*
X124368750Y-84525000D02*
X124368750Y-86925000D01*
X124443750Y-84525000D02*
X118643750Y-84525000D01*
X118643750Y-84525000D02*
X118643750Y-86925000D01*
X118643750Y-86925000D02*
X124443750Y-86925000D01*
X133243750Y-103575000D02*
X133243750Y-105975000D01*
X133418750Y-103575000D02*
X133418750Y-105975000D01*
X133593750Y-103575000D02*
X133593750Y-105975000D01*
X133993750Y-105975000D02*
X133993750Y-103575000D01*
X133768750Y-103575000D02*
X133768750Y-105975000D01*
X133893750Y-103575000D02*
X133893750Y-105975000D01*
X133968750Y-103575000D02*
X128168750Y-103575000D01*
X128168750Y-103575000D02*
X128168750Y-105975000D01*
X128168750Y-105975000D02*
X133968750Y-105975000D01*
X116575000Y-122625000D02*
X116575000Y-125025000D01*
X116750000Y-122625000D02*
X116750000Y-125025000D01*
X116925000Y-122625000D02*
X116925000Y-125025000D01*
X117325000Y-125025000D02*
X117325000Y-122625000D01*
X117100000Y-122625000D02*
X117100000Y-125025000D01*
X117225000Y-122625000D02*
X117225000Y-125025000D01*
X117300000Y-122625000D02*
X111500000Y-122625000D01*
X111500000Y-122625000D02*
X111500000Y-125025000D01*
X111500000Y-125025000D02*
X117300000Y-125025000D01*
X140387500Y-122625000D02*
X140387500Y-125025000D01*
X140562500Y-122625000D02*
X140562500Y-125025000D01*
X140737500Y-122625000D02*
X140737500Y-125025000D01*
X141137500Y-125025000D02*
X141137500Y-122625000D01*
X140912500Y-122625000D02*
X140912500Y-125025000D01*
X141037500Y-122625000D02*
X141037500Y-125025000D01*
X141112500Y-122625000D02*
X135312500Y-122625000D01*
X135312500Y-122625000D02*
X135312500Y-125025000D01*
X135312500Y-125025000D02*
X141112500Y-125025000D01*
X128481250Y-46425000D02*
X128481250Y-48825000D01*
X128656250Y-46425000D02*
X128656250Y-48825000D01*
X128831250Y-46425000D02*
X128831250Y-48825000D01*
X129231250Y-48825000D02*
X129231250Y-46425000D01*
X129006250Y-46425000D02*
X129006250Y-48825000D01*
X129131250Y-46425000D02*
X129131250Y-48825000D01*
X129206250Y-46425000D02*
X123406250Y-46425000D01*
X123406250Y-46425000D02*
X123406250Y-48825000D01*
X123406250Y-48825000D02*
X129206250Y-48825000D01*
X138006250Y-65475000D02*
X138006250Y-67875000D01*
X138181250Y-65475000D02*
X138181250Y-67875000D01*
X138356250Y-65475000D02*
X138356250Y-67875000D01*
X138756250Y-67875000D02*
X138756250Y-65475000D01*
X138531250Y-65475000D02*
X138531250Y-67875000D01*
X138656250Y-65475000D02*
X138656250Y-67875000D01*
X138731250Y-65475000D02*
X132931250Y-65475000D01*
X132931250Y-65475000D02*
X132931250Y-67875000D01*
X132931250Y-67875000D02*
X138731250Y-67875000D01*
X142768750Y-84525000D02*
X142768750Y-86925000D01*
X142943750Y-84525000D02*
X142943750Y-86925000D01*
X143118750Y-84525000D02*
X143118750Y-86925000D01*
X143518750Y-86925000D02*
X143518750Y-84525000D01*
X143293750Y-84525000D02*
X143293750Y-86925000D01*
X143418750Y-84525000D02*
X143418750Y-86925000D01*
X143493750Y-84525000D02*
X137693750Y-84525000D01*
X137693750Y-84525000D02*
X137693750Y-86925000D01*
X137693750Y-86925000D02*
X143493750Y-86925000D01*
X152293750Y-103575000D02*
X152293750Y-105975000D01*
X152468750Y-103575000D02*
X152468750Y-105975000D01*
X152643750Y-103575000D02*
X152643750Y-105975000D01*
X153043750Y-105975000D02*
X153043750Y-103575000D01*
X152818750Y-103575000D02*
X152818750Y-105975000D01*
X152943750Y-103575000D02*
X152943750Y-105975000D01*
X153018750Y-103575000D02*
X147218750Y-103575000D01*
X147218750Y-103575000D02*
X147218750Y-105975000D01*
X147218750Y-105975000D02*
X153018750Y-105975000D01*
X147531250Y-46425000D02*
X147531250Y-48825000D01*
X147706250Y-46425000D02*
X147706250Y-48825000D01*
X147881250Y-46425000D02*
X147881250Y-48825000D01*
X148281250Y-48825000D02*
X148281250Y-46425000D01*
X148056250Y-46425000D02*
X148056250Y-48825000D01*
X148181250Y-46425000D02*
X148181250Y-48825000D01*
X148256250Y-46425000D02*
X142456250Y-46425000D01*
X142456250Y-46425000D02*
X142456250Y-48825000D01*
X142456250Y-48825000D02*
X148256250Y-48825000D01*
X157056250Y-65475000D02*
X157056250Y-67875000D01*
X157231250Y-65475000D02*
X157231250Y-67875000D01*
X157406250Y-65475000D02*
X157406250Y-67875000D01*
X157806250Y-67875000D02*
X157806250Y-65475000D01*
X157581250Y-65475000D02*
X157581250Y-67875000D01*
X157706250Y-65475000D02*
X157706250Y-67875000D01*
X157781250Y-65475000D02*
X151981250Y-65475000D01*
X151981250Y-65475000D02*
X151981250Y-67875000D01*
X151981250Y-67875000D02*
X157781250Y-67875000D01*
X161818750Y-84525000D02*
X161818750Y-86925000D01*
X161993750Y-84525000D02*
X161993750Y-86925000D01*
X162168750Y-84525000D02*
X162168750Y-86925000D01*
X162568750Y-86925000D02*
X162568750Y-84525000D01*
X162343750Y-84525000D02*
X162343750Y-86925000D01*
X162468750Y-84525000D02*
X162468750Y-86925000D01*
X162543750Y-84525000D02*
X156743750Y-84525000D01*
X156743750Y-84525000D02*
X156743750Y-86925000D01*
X156743750Y-86925000D02*
X162543750Y-86925000D01*
X171343750Y-103575000D02*
X171343750Y-105975000D01*
X171518750Y-103575000D02*
X171518750Y-105975000D01*
X171693750Y-103575000D02*
X171693750Y-105975000D01*
X172093750Y-105975000D02*
X172093750Y-103575000D01*
X171868750Y-103575000D02*
X171868750Y-105975000D01*
X171993750Y-103575000D02*
X171993750Y-105975000D01*
X172068750Y-103575000D02*
X166268750Y-103575000D01*
X166268750Y-103575000D02*
X166268750Y-105975000D01*
X166268750Y-105975000D02*
X172068750Y-105975000D01*
X166581250Y-46425000D02*
X166581250Y-48825000D01*
X166756250Y-46425000D02*
X166756250Y-48825000D01*
X166931250Y-46425000D02*
X166931250Y-48825000D01*
X167331250Y-48825000D02*
X167331250Y-46425000D01*
X167106250Y-46425000D02*
X167106250Y-48825000D01*
X167231250Y-46425000D02*
X167231250Y-48825000D01*
X167306250Y-46425000D02*
X161506250Y-46425000D01*
X161506250Y-46425000D02*
X161506250Y-48825000D01*
X161506250Y-48825000D02*
X167306250Y-48825000D01*
X176106250Y-65475000D02*
X176106250Y-67875000D01*
X176281250Y-65475000D02*
X176281250Y-67875000D01*
X176456250Y-65475000D02*
X176456250Y-67875000D01*
X176856250Y-67875000D02*
X176856250Y-65475000D01*
X176631250Y-65475000D02*
X176631250Y-67875000D01*
X176756250Y-65475000D02*
X176756250Y-67875000D01*
X176831250Y-65475000D02*
X171031250Y-65475000D01*
X171031250Y-65475000D02*
X171031250Y-67875000D01*
X171031250Y-67875000D02*
X176831250Y-67875000D01*
X180868750Y-84525000D02*
X180868750Y-86925000D01*
X181043750Y-84525000D02*
X181043750Y-86925000D01*
X181218750Y-84525000D02*
X181218750Y-86925000D01*
X181618750Y-86925000D02*
X181618750Y-84525000D01*
X181393750Y-84525000D02*
X181393750Y-86925000D01*
X181518750Y-84525000D02*
X181518750Y-86925000D01*
X181593750Y-84525000D02*
X175793750Y-84525000D01*
X175793750Y-84525000D02*
X175793750Y-86925000D01*
X175793750Y-86925000D02*
X181593750Y-86925000D01*
X190393750Y-103575000D02*
X190393750Y-105975000D01*
X190568750Y-103575000D02*
X190568750Y-105975000D01*
X190743750Y-103575000D02*
X190743750Y-105975000D01*
X191143750Y-105975000D02*
X191143750Y-103575000D01*
X190918750Y-103575000D02*
X190918750Y-105975000D01*
X191043750Y-103575000D02*
X191043750Y-105975000D01*
X191118750Y-103575000D02*
X185318750Y-103575000D01*
X185318750Y-103575000D02*
X185318750Y-105975000D01*
X185318750Y-105975000D02*
X191118750Y-105975000D01*
X185631250Y-46425000D02*
X185631250Y-48825000D01*
X185806250Y-46425000D02*
X185806250Y-48825000D01*
X185981250Y-46425000D02*
X185981250Y-48825000D01*
X186381250Y-48825000D02*
X186381250Y-46425000D01*
X186156250Y-46425000D02*
X186156250Y-48825000D01*
X186281250Y-46425000D02*
X186281250Y-48825000D01*
X186356250Y-46425000D02*
X180556250Y-46425000D01*
X180556250Y-46425000D02*
X180556250Y-48825000D01*
X180556250Y-48825000D02*
X186356250Y-48825000D01*
X195156250Y-65475000D02*
X195156250Y-67875000D01*
X195331250Y-65475000D02*
X195331250Y-67875000D01*
X195506250Y-65475000D02*
X195506250Y-67875000D01*
X195906250Y-67875000D02*
X195906250Y-65475000D01*
X195681250Y-65475000D02*
X195681250Y-67875000D01*
X195806250Y-65475000D02*
X195806250Y-67875000D01*
X195881250Y-65475000D02*
X190081250Y-65475000D01*
X190081250Y-65475000D02*
X190081250Y-67875000D01*
X190081250Y-67875000D02*
X195881250Y-67875000D01*
X199918750Y-84525000D02*
X199918750Y-86925000D01*
X200093750Y-84525000D02*
X200093750Y-86925000D01*
X200268750Y-84525000D02*
X200268750Y-86925000D01*
X200668750Y-86925000D02*
X200668750Y-84525000D01*
X200443750Y-84525000D02*
X200443750Y-86925000D01*
X200568750Y-84525000D02*
X200568750Y-86925000D01*
X200643750Y-84525000D02*
X194843750Y-84525000D01*
X194843750Y-84525000D02*
X194843750Y-86925000D01*
X194843750Y-86925000D02*
X200643750Y-86925000D01*
X209443750Y-103575000D02*
X209443750Y-105975000D01*
X209618750Y-103575000D02*
X209618750Y-105975000D01*
X209793750Y-103575000D02*
X209793750Y-105975000D01*
X210193750Y-105975000D02*
X210193750Y-103575000D01*
X209968750Y-103575000D02*
X209968750Y-105975000D01*
X210093750Y-103575000D02*
X210093750Y-105975000D01*
X210168750Y-103575000D02*
X204368750Y-103575000D01*
X204368750Y-103575000D02*
X204368750Y-105975000D01*
X204368750Y-105975000D02*
X210168750Y-105975000D01*
X204681250Y-46425000D02*
X204681250Y-48825000D01*
X204856250Y-46425000D02*
X204856250Y-48825000D01*
X205031250Y-46425000D02*
X205031250Y-48825000D01*
X205431250Y-48825000D02*
X205431250Y-46425000D01*
X205206250Y-46425000D02*
X205206250Y-48825000D01*
X205331250Y-46425000D02*
X205331250Y-48825000D01*
X205406250Y-46425000D02*
X199606250Y-46425000D01*
X199606250Y-46425000D02*
X199606250Y-48825000D01*
X199606250Y-48825000D02*
X205406250Y-48825000D01*
X214206250Y-65475000D02*
X214206250Y-67875000D01*
X214381250Y-65475000D02*
X214381250Y-67875000D01*
X214556250Y-65475000D02*
X214556250Y-67875000D01*
X214956250Y-67875000D02*
X214956250Y-65475000D01*
X214731250Y-65475000D02*
X214731250Y-67875000D01*
X214856250Y-65475000D02*
X214856250Y-67875000D01*
X214931250Y-65475000D02*
X209131250Y-65475000D01*
X209131250Y-65475000D02*
X209131250Y-67875000D01*
X209131250Y-67875000D02*
X214931250Y-67875000D01*
X218968750Y-84525000D02*
X218968750Y-86925000D01*
X219143750Y-84525000D02*
X219143750Y-86925000D01*
X219318750Y-84525000D02*
X219318750Y-86925000D01*
X219718750Y-86925000D02*
X219718750Y-84525000D01*
X219493750Y-84525000D02*
X219493750Y-86925000D01*
X219618750Y-84525000D02*
X219618750Y-86925000D01*
X219693750Y-84525000D02*
X213893750Y-84525000D01*
X213893750Y-84525000D02*
X213893750Y-86925000D01*
X213893750Y-86925000D02*
X219693750Y-86925000D01*
X228493750Y-103575000D02*
X228493750Y-105975000D01*
X228668750Y-103575000D02*
X228668750Y-105975000D01*
X228843750Y-103575000D02*
X228843750Y-105975000D01*
X229243750Y-105975000D02*
X229243750Y-103575000D01*
X229018750Y-103575000D02*
X229018750Y-105975000D01*
X229143750Y-103575000D02*
X229143750Y-105975000D01*
X229218750Y-103575000D02*
X223418750Y-103575000D01*
X223418750Y-103575000D02*
X223418750Y-105975000D01*
X223418750Y-105975000D02*
X229218750Y-105975000D01*
X211825000Y-122625000D02*
X211825000Y-125025000D01*
X212000000Y-122625000D02*
X212000000Y-125025000D01*
X212175000Y-122625000D02*
X212175000Y-125025000D01*
X212575000Y-125025000D02*
X212575000Y-122625000D01*
X212350000Y-122625000D02*
X212350000Y-125025000D01*
X212475000Y-122625000D02*
X212475000Y-125025000D01*
X212550000Y-122625000D02*
X206750000Y-122625000D01*
X206750000Y-122625000D02*
X206750000Y-125025000D01*
X206750000Y-125025000D02*
X212550000Y-125025000D01*
X223731250Y-46425000D02*
X223731250Y-48825000D01*
X223906250Y-46425000D02*
X223906250Y-48825000D01*
X224081250Y-46425000D02*
X224081250Y-48825000D01*
X224481250Y-48825000D02*
X224481250Y-46425000D01*
X224256250Y-46425000D02*
X224256250Y-48825000D01*
X224381250Y-46425000D02*
X224381250Y-48825000D01*
X224456250Y-46425000D02*
X218656250Y-46425000D01*
X218656250Y-46425000D02*
X218656250Y-48825000D01*
X218656250Y-48825000D02*
X224456250Y-48825000D01*
X233256250Y-65475000D02*
X233256250Y-67875000D01*
X233431250Y-65475000D02*
X233431250Y-67875000D01*
X233606250Y-65475000D02*
X233606250Y-67875000D01*
X234006250Y-67875000D02*
X234006250Y-65475000D01*
X233781250Y-65475000D02*
X233781250Y-67875000D01*
X233906250Y-65475000D02*
X233906250Y-67875000D01*
X233981250Y-65475000D02*
X228181250Y-65475000D01*
X228181250Y-65475000D02*
X228181250Y-67875000D01*
X228181250Y-67875000D02*
X233981250Y-67875000D01*
X238018750Y-84525000D02*
X238018750Y-86925000D01*
X238193750Y-84525000D02*
X238193750Y-86925000D01*
X238368750Y-84525000D02*
X238368750Y-86925000D01*
X238768750Y-86925000D02*
X238768750Y-84525000D01*
X238543750Y-84525000D02*
X238543750Y-86925000D01*
X238668750Y-84525000D02*
X238668750Y-86925000D01*
X238743750Y-84525000D02*
X232943750Y-84525000D01*
X232943750Y-84525000D02*
X232943750Y-86925000D01*
X232943750Y-86925000D02*
X238743750Y-86925000D01*
X247543750Y-103575000D02*
X247543750Y-105975000D01*
X247718750Y-103575000D02*
X247718750Y-105975000D01*
X247893750Y-103575000D02*
X247893750Y-105975000D01*
X248293750Y-105975000D02*
X248293750Y-103575000D01*
X248068750Y-103575000D02*
X248068750Y-105975000D01*
X248193750Y-103575000D02*
X248193750Y-105975000D01*
X248268750Y-103575000D02*
X242468750Y-103575000D01*
X242468750Y-103575000D02*
X242468750Y-105975000D01*
X242468750Y-105975000D02*
X248268750Y-105975000D01*
X242781250Y-46425000D02*
X242781250Y-48825000D01*
X242956250Y-46425000D02*
X242956250Y-48825000D01*
X243131250Y-46425000D02*
X243131250Y-48825000D01*
X243531250Y-48825000D02*
X243531250Y-46425000D01*
X243306250Y-46425000D02*
X243306250Y-48825000D01*
X243431250Y-46425000D02*
X243431250Y-48825000D01*
X243506250Y-46425000D02*
X237706250Y-46425000D01*
X237706250Y-46425000D02*
X237706250Y-48825000D01*
X237706250Y-48825000D02*
X243506250Y-48825000D01*
X252306250Y-65475000D02*
X252306250Y-67875000D01*
X252481250Y-65475000D02*
X252481250Y-67875000D01*
X252656250Y-65475000D02*
X252656250Y-67875000D01*
X253056250Y-67875000D02*
X253056250Y-65475000D01*
X252831250Y-65475000D02*
X252831250Y-67875000D01*
X252956250Y-65475000D02*
X252956250Y-67875000D01*
X253031250Y-65475000D02*
X247231250Y-65475000D01*
X247231250Y-65475000D02*
X247231250Y-67875000D01*
X247231250Y-67875000D02*
X253031250Y-67875000D01*
X257068750Y-84525000D02*
X257068750Y-86925000D01*
X257243750Y-84525000D02*
X257243750Y-86925000D01*
X257418750Y-84525000D02*
X257418750Y-86925000D01*
X257818750Y-86925000D02*
X257818750Y-84525000D01*
X257593750Y-84525000D02*
X257593750Y-86925000D01*
X257718750Y-84525000D02*
X257718750Y-86925000D01*
X257793750Y-84525000D02*
X251993750Y-84525000D01*
X251993750Y-84525000D02*
X251993750Y-86925000D01*
X251993750Y-86925000D02*
X257793750Y-86925000D01*
X266593750Y-103575000D02*
X266593750Y-105975000D01*
X266768750Y-103575000D02*
X266768750Y-105975000D01*
X266943750Y-103575000D02*
X266943750Y-105975000D01*
X267343750Y-105975000D02*
X267343750Y-103575000D01*
X267118750Y-103575000D02*
X267118750Y-105975000D01*
X267243750Y-103575000D02*
X267243750Y-105975000D01*
X267318750Y-103575000D02*
X261518750Y-103575000D01*
X261518750Y-103575000D02*
X261518750Y-105975000D01*
X261518750Y-105975000D02*
X267318750Y-105975000D01*
X261831250Y-46425000D02*
X261831250Y-48825000D01*
X262006250Y-46425000D02*
X262006250Y-48825000D01*
X262181250Y-46425000D02*
X262181250Y-48825000D01*
X262581250Y-48825000D02*
X262581250Y-46425000D01*
X262356250Y-46425000D02*
X262356250Y-48825000D01*
X262481250Y-46425000D02*
X262481250Y-48825000D01*
X262556250Y-46425000D02*
X256756250Y-46425000D01*
X256756250Y-46425000D02*
X256756250Y-48825000D01*
X256756250Y-48825000D02*
X262556250Y-48825000D01*
X271356250Y-65475000D02*
X271356250Y-67875000D01*
X271531250Y-65475000D02*
X271531250Y-67875000D01*
X271706250Y-65475000D02*
X271706250Y-67875000D01*
X272106250Y-67875000D02*
X272106250Y-65475000D01*
X271881250Y-65475000D02*
X271881250Y-67875000D01*
X272006250Y-65475000D02*
X272006250Y-67875000D01*
X272081250Y-65475000D02*
X266281250Y-65475000D01*
X266281250Y-65475000D02*
X266281250Y-67875000D01*
X266281250Y-67875000D02*
X272081250Y-67875000D01*
X276118750Y-84525000D02*
X276118750Y-86925000D01*
X276293750Y-84525000D02*
X276293750Y-86925000D01*
X276468750Y-84525000D02*
X276468750Y-86925000D01*
X276868750Y-86925000D02*
X276868750Y-84525000D01*
X276643750Y-84525000D02*
X276643750Y-86925000D01*
X276768750Y-84525000D02*
X276768750Y-86925000D01*
X276843750Y-84525000D02*
X271043750Y-84525000D01*
X271043750Y-84525000D02*
X271043750Y-86925000D01*
X271043750Y-86925000D02*
X276843750Y-86925000D01*
X285643750Y-103575000D02*
X285643750Y-105975000D01*
X285818750Y-103575000D02*
X285818750Y-105975000D01*
X285993750Y-103575000D02*
X285993750Y-105975000D01*
X286393750Y-105975000D02*
X286393750Y-103575000D01*
X286168750Y-103575000D02*
X286168750Y-105975000D01*
X286293750Y-103575000D02*
X286293750Y-105975000D01*
X286368750Y-103575000D02*
X280568750Y-103575000D01*
X280568750Y-103575000D02*
X280568750Y-105975000D01*
X280568750Y-105975000D02*
X286368750Y-105975000D01*
X280881250Y-46425000D02*
X280881250Y-48825000D01*
X281056250Y-46425000D02*
X281056250Y-48825000D01*
X281231250Y-46425000D02*
X281231250Y-48825000D01*
X281631250Y-48825000D02*
X281631250Y-46425000D01*
X281406250Y-46425000D02*
X281406250Y-48825000D01*
X281531250Y-46425000D02*
X281531250Y-48825000D01*
X281606250Y-46425000D02*
X275806250Y-46425000D01*
X275806250Y-46425000D02*
X275806250Y-48825000D01*
X275806250Y-48825000D02*
X281606250Y-48825000D01*
X290406250Y-65475000D02*
X290406250Y-67875000D01*
X290581250Y-65475000D02*
X290581250Y-67875000D01*
X290756250Y-65475000D02*
X290756250Y-67875000D01*
X291156250Y-67875000D02*
X291156250Y-65475000D01*
X290931250Y-65475000D02*
X290931250Y-67875000D01*
X291056250Y-65475000D02*
X291056250Y-67875000D01*
X291131250Y-65475000D02*
X285331250Y-65475000D01*
X285331250Y-65475000D02*
X285331250Y-67875000D01*
X285331250Y-67875000D02*
X291131250Y-67875000D01*
X295168750Y-84525000D02*
X295168750Y-86925000D01*
X295343750Y-84525000D02*
X295343750Y-86925000D01*
X295518750Y-84525000D02*
X295518750Y-86925000D01*
X295918750Y-86925000D02*
X295918750Y-84525000D01*
X295693750Y-84525000D02*
X295693750Y-86925000D01*
X295818750Y-84525000D02*
X295818750Y-86925000D01*
X295893750Y-84525000D02*
X290093750Y-84525000D01*
X290093750Y-84525000D02*
X290093750Y-86925000D01*
X290093750Y-86925000D02*
X295893750Y-86925000D01*
X304693750Y-103575000D02*
X304693750Y-105975000D01*
X304868750Y-103575000D02*
X304868750Y-105975000D01*
X305043750Y-103575000D02*
X305043750Y-105975000D01*
X305443750Y-105975000D02*
X305443750Y-103575000D01*
X305218750Y-103575000D02*
X305218750Y-105975000D01*
X305343750Y-103575000D02*
X305343750Y-105975000D01*
X305418750Y-103575000D02*
X299618750Y-103575000D01*
X299618750Y-103575000D02*
X299618750Y-105975000D01*
X299618750Y-105975000D02*
X305418750Y-105975000D01*
X280881250Y-122625000D02*
X280881250Y-125025000D01*
X281056250Y-122625000D02*
X281056250Y-125025000D01*
X281231250Y-122625000D02*
X281231250Y-125025000D01*
X281631250Y-125025000D02*
X281631250Y-122625000D01*
X281406250Y-122625000D02*
X281406250Y-125025000D01*
X281531250Y-122625000D02*
X281531250Y-125025000D01*
X281606250Y-122625000D02*
X275806250Y-122625000D01*
X275806250Y-122625000D02*
X275806250Y-125025000D01*
X275806250Y-125025000D02*
X281606250Y-125025000D01*
X299931250Y-46425000D02*
X299931250Y-48825000D01*
X300106250Y-46425000D02*
X300106250Y-48825000D01*
X300281250Y-46425000D02*
X300281250Y-48825000D01*
X300681250Y-48825000D02*
X300681250Y-46425000D01*
X300456250Y-46425000D02*
X300456250Y-48825000D01*
X300581250Y-46425000D02*
X300581250Y-48825000D01*
X300656250Y-46425000D02*
X294856250Y-46425000D01*
X294856250Y-46425000D02*
X294856250Y-48825000D01*
X294856250Y-48825000D02*
X300656250Y-48825000D01*
X309456250Y-65475000D02*
X309456250Y-67875000D01*
X309631250Y-65475000D02*
X309631250Y-67875000D01*
X309806250Y-65475000D02*
X309806250Y-67875000D01*
X310206250Y-67875000D02*
X310206250Y-65475000D01*
X309981250Y-65475000D02*
X309981250Y-67875000D01*
X310106250Y-65475000D02*
X310106250Y-67875000D01*
X310181250Y-65475000D02*
X304381250Y-65475000D01*
X304381250Y-65475000D02*
X304381250Y-67875000D01*
X304381250Y-67875000D02*
X310181250Y-67875000D01*
X314218750Y-84525000D02*
X314218750Y-86925000D01*
X314393750Y-84525000D02*
X314393750Y-86925000D01*
X314568750Y-84525000D02*
X314568750Y-86925000D01*
X314968750Y-86925000D02*
X314968750Y-84525000D01*
X314743750Y-84525000D02*
X314743750Y-86925000D01*
X314868750Y-84525000D02*
X314868750Y-86925000D01*
X314943750Y-84525000D02*
X309143750Y-84525000D01*
X309143750Y-84525000D02*
X309143750Y-86925000D01*
X309143750Y-86925000D02*
X314943750Y-86925000D01*
X299931250Y-122625000D02*
X299931250Y-125025000D01*
X300106250Y-122625000D02*
X300106250Y-125025000D01*
X300281250Y-122625000D02*
X300281250Y-125025000D01*
X300681250Y-125025000D02*
X300681250Y-122625000D01*
X300456250Y-122625000D02*
X300456250Y-125025000D01*
X300581250Y-122625000D02*
X300581250Y-125025000D01*
X300656250Y-122625000D02*
X294856250Y-122625000D01*
X294856250Y-122625000D02*
X294856250Y-125025000D01*
X294856250Y-125025000D02*
X300656250Y-125025000D01*
X318981250Y-46425000D02*
X318981250Y-48825000D01*
X319156250Y-46425000D02*
X319156250Y-48825000D01*
X319331250Y-46425000D02*
X319331250Y-48825000D01*
X319731250Y-48825000D02*
X319731250Y-46425000D01*
X319506250Y-46425000D02*
X319506250Y-48825000D01*
X319631250Y-46425000D02*
X319631250Y-48825000D01*
X319706250Y-46425000D02*
X313906250Y-46425000D01*
X313906250Y-46425000D02*
X313906250Y-48825000D01*
X313906250Y-48825000D02*
X319706250Y-48825000D01*
X328506250Y-65475000D02*
X328506250Y-67875000D01*
X328681250Y-65475000D02*
X328681250Y-67875000D01*
X328856250Y-65475000D02*
X328856250Y-67875000D01*
X329256250Y-67875000D02*
X329256250Y-65475000D01*
X329031250Y-65475000D02*
X329031250Y-67875000D01*
X329156250Y-65475000D02*
X329156250Y-67875000D01*
X329231250Y-65475000D02*
X323431250Y-65475000D01*
X323431250Y-65475000D02*
X323431250Y-67875000D01*
X323431250Y-67875000D02*
X329231250Y-67875000D01*
X345175000Y-84525000D02*
X345175000Y-86925000D01*
X345350000Y-84525000D02*
X345350000Y-86925000D01*
X345525000Y-84525000D02*
X345525000Y-86925000D01*
X345925000Y-86925000D02*
X345925000Y-84525000D01*
X345700000Y-84525000D02*
X345700000Y-86925000D01*
X345825000Y-84525000D02*
X345825000Y-86925000D01*
X345900000Y-84525000D02*
X340100000Y-84525000D01*
X340100000Y-84525000D02*
X340100000Y-86925000D01*
X340100000Y-86925000D02*
X345900000Y-86925000D01*
X357081250Y-103575000D02*
X357081250Y-105975000D01*
X357256250Y-103575000D02*
X357256250Y-105975000D01*
X357431250Y-103575000D02*
X357431250Y-105975000D01*
X357831250Y-105975000D02*
X357831250Y-103575000D01*
X357606250Y-103575000D02*
X357606250Y-105975000D01*
X357731250Y-103575000D02*
X357731250Y-105975000D01*
X357806250Y-103575000D02*
X352006250Y-103575000D01*
X352006250Y-103575000D02*
X352006250Y-105975000D01*
X352006250Y-105975000D02*
X357806250Y-105975000D01*
X318981250Y-122625000D02*
X318981250Y-125025000D01*
X319156250Y-122625000D02*
X319156250Y-125025000D01*
X319331250Y-122625000D02*
X319331250Y-125025000D01*
X319731250Y-125025000D02*
X319731250Y-122625000D01*
X319506250Y-122625000D02*
X319506250Y-125025000D01*
X319631250Y-122625000D02*
X319631250Y-125025000D01*
X319706250Y-122625000D02*
X313906250Y-122625000D01*
X313906250Y-122625000D02*
X313906250Y-125025000D01*
X313906250Y-125025000D02*
X319706250Y-125025000D01*
X347556250Y-46425000D02*
X347556250Y-48825000D01*
X347731250Y-46425000D02*
X347731250Y-48825000D01*
X347906250Y-46425000D02*
X347906250Y-48825000D01*
X348306250Y-48825000D02*
X348306250Y-46425000D01*
X348081250Y-46425000D02*
X348081250Y-48825000D01*
X348206250Y-46425000D02*
X348206250Y-48825000D01*
X348281250Y-46425000D02*
X342481250Y-46425000D01*
X342481250Y-46425000D02*
X342481250Y-48825000D01*
X342481250Y-48825000D02*
X348281250Y-48825000D01*
X352318750Y-65475000D02*
X352318750Y-67875000D01*
X352493750Y-65475000D02*
X352493750Y-67875000D01*
X352668750Y-65475000D02*
X352668750Y-67875000D01*
X353068750Y-67875000D02*
X353068750Y-65475000D01*
X352843750Y-65475000D02*
X352843750Y-67875000D01*
X352968750Y-65475000D02*
X352968750Y-67875000D01*
X353043750Y-65475000D02*
X347243750Y-65475000D01*
X347243750Y-65475000D02*
X347243750Y-67875000D01*
X347243750Y-67875000D02*
X353043750Y-67875000D01*
X376131250Y-84525000D02*
X376131250Y-86925000D01*
X376306250Y-84525000D02*
X376306250Y-86925000D01*
X376481250Y-84525000D02*
X376481250Y-86925000D01*
X376881250Y-86925000D02*
X376881250Y-84525000D01*
X376656250Y-84525000D02*
X376656250Y-86925000D01*
X376781250Y-84525000D02*
X376781250Y-86925000D01*
X376856250Y-84525000D02*
X371056250Y-84525000D01*
X371056250Y-84525000D02*
X371056250Y-86925000D01*
X371056250Y-86925000D02*
X376856250Y-86925000D01*
X376131250Y-103575000D02*
X376131250Y-105975000D01*
X376306250Y-103575000D02*
X376306250Y-105975000D01*
X376481250Y-103575000D02*
X376481250Y-105975000D01*
X376881250Y-105975000D02*
X376881250Y-103575000D01*
X376656250Y-103575000D02*
X376656250Y-105975000D01*
X376781250Y-103575000D02*
X376781250Y-105975000D01*
X376856250Y-103575000D02*
X371056250Y-103575000D01*
X371056250Y-103575000D02*
X371056250Y-105975000D01*
X371056250Y-105975000D02*
X376856250Y-105975000D01*
X357081250Y-122625000D02*
X357081250Y-125025000D01*
X357256250Y-122625000D02*
X357256250Y-125025000D01*
X357431250Y-122625000D02*
X357431250Y-125025000D01*
X357831250Y-125025000D02*
X357831250Y-122625000D01*
X357606250Y-122625000D02*
X357606250Y-125025000D01*
X357731250Y-122625000D02*
X357731250Y-125025000D01*
X357806250Y-122625000D02*
X352006250Y-122625000D01*
X352006250Y-122625000D02*
X352006250Y-125025000D01*
X352006250Y-125025000D02*
X357806250Y-125025000D01*
X376131250Y-46425000D02*
X376131250Y-48825000D01*
X376306250Y-46425000D02*
X376306250Y-48825000D01*
X376481250Y-46425000D02*
X376481250Y-48825000D01*
X376881250Y-48825000D02*
X376881250Y-46425000D01*
X376656250Y-46425000D02*
X376656250Y-48825000D01*
X376781250Y-46425000D02*
X376781250Y-48825000D01*
X376856250Y-46425000D02*
X371056250Y-46425000D01*
X371056250Y-46425000D02*
X371056250Y-48825000D01*
X371056250Y-48825000D02*
X376856250Y-48825000D01*
X376131250Y-65475000D02*
X376131250Y-67875000D01*
X376306250Y-65475000D02*
X376306250Y-67875000D01*
X376481250Y-65475000D02*
X376481250Y-67875000D01*
X376881250Y-67875000D02*
X376881250Y-65475000D01*
X376656250Y-65475000D02*
X376656250Y-67875000D01*
X376781250Y-65475000D02*
X376781250Y-67875000D01*
X376856250Y-65475000D02*
X371056250Y-65475000D01*
X371056250Y-65475000D02*
X371056250Y-67875000D01*
X371056250Y-67875000D02*
X376856250Y-67875000D01*
X376131250Y-122625000D02*
X376131250Y-125025000D01*
X376306250Y-122625000D02*
X376306250Y-125025000D01*
X376481250Y-122625000D02*
X376481250Y-125025000D01*
X376881250Y-125025000D02*
X376881250Y-122625000D01*
X376656250Y-122625000D02*
X376656250Y-125025000D01*
X376781250Y-122625000D02*
X376781250Y-125025000D01*
X376856250Y-122625000D02*
X371056250Y-122625000D01*
X371056250Y-122625000D02*
X371056250Y-125025000D01*
X371056250Y-125025000D02*
X376856250Y-125025000D01*
X101640000Y-38500000D02*
X101640000Y-32000000D01*
X93940000Y-38500000D02*
X93940000Y-32000000D01*
X93940000Y-38500000D02*
X101640000Y-38500000D01*
D12*
X231650000Y-122380000D02*
X232850000Y-122380000D01*
X232850000Y-120620000D02*
X231650000Y-120620000D01*
X95870000Y-45400000D02*
X95870000Y-46600000D01*
X97630000Y-46600000D02*
X97630000Y-45400000D01*
X97870000Y-45400000D02*
X97870000Y-46600000D01*
X99630000Y-46600000D02*
X99630000Y-45400000D01*
X171600000Y-125870000D02*
X170400000Y-125870000D01*
X170400000Y-127630000D02*
X171600000Y-127630000D01*
X237950000Y-119950000D02*
X237500000Y-119500000D01*
X237950000Y-116550000D02*
X237500000Y-117000000D01*
X242550000Y-116550000D02*
X243000000Y-117000000D01*
X242550000Y-119950000D02*
X243000000Y-119500000D01*
X241250000Y-115500000D02*
X239250000Y-115500000D01*
X237500000Y-119500000D02*
X237500000Y-117000000D01*
X241250000Y-121000000D02*
X239250000Y-121000000D01*
X243000000Y-119500000D02*
X243000000Y-117000000D01*
X185700532Y-117766091D02*
X188741091Y-114725532D01*
X188741091Y-114725532D02*
X192559468Y-118543909D01*
D13*
X338031250Y-122625000D02*
X338031250Y-125025000D01*
X338206250Y-122625000D02*
X338206250Y-125025000D01*
X338381250Y-122625000D02*
X338381250Y-125025000D01*
X338781250Y-125025000D02*
X338781250Y-122625000D01*
X338556250Y-122625000D02*
X338556250Y-125025000D01*
X338681250Y-122625000D02*
X338681250Y-125025000D01*
X338756250Y-122625000D02*
X332956250Y-122625000D01*
X332956250Y-122625000D02*
X332956250Y-125025000D01*
X332956250Y-125025000D02*
X338756250Y-125025000D01*
X330887500Y-103575000D02*
X330887500Y-105975000D01*
X331062500Y-103575000D02*
X331062500Y-105975000D01*
X331237500Y-103575000D02*
X331237500Y-105975000D01*
X331637500Y-105975000D02*
X331637500Y-103575000D01*
X331412500Y-103575000D02*
X331412500Y-105975000D01*
X331537500Y-103575000D02*
X331537500Y-105975000D01*
X331612500Y-103575000D02*
X325812500Y-103575000D01*
X325812500Y-103575000D02*
X325812500Y-105975000D01*
X325812500Y-105975000D02*
X331612500Y-105975000D01*
D11*
X169384881Y-117393095D02*
X170194405Y-117393095D01*
X170289643Y-117440714D01*
X170337262Y-117488333D01*
X170384881Y-117583571D01*
X170384881Y-117774048D01*
X170337262Y-117869286D01*
X170289643Y-117916905D01*
X170194405Y-117964524D01*
X169384881Y-117964524D01*
X170384881Y-118964524D02*
X170384881Y-118393095D01*
X170384881Y-118678809D02*
X169384881Y-118678809D01*
X169527738Y-118583571D01*
X169622976Y-118488333D01*
X169670595Y-118393095D01*
D13*
X107894345Y-47632881D02*
X107894345Y-46632881D01*
X107322916Y-47632881D02*
X107751488Y-47061452D01*
X107322916Y-46632881D02*
X107894345Y-47204310D01*
X106465773Y-46632881D02*
X106656250Y-46632881D01*
X106751488Y-46680500D01*
X106799107Y-46728119D01*
X106894345Y-46870976D01*
X106941964Y-47061452D01*
X106941964Y-47442405D01*
X106894345Y-47537643D01*
X106846726Y-47585262D01*
X106751488Y-47632881D01*
X106561011Y-47632881D01*
X106465773Y-47585262D01*
X106418154Y-47537643D01*
X106370535Y-47442405D01*
X106370535Y-47204310D01*
X106418154Y-47109071D01*
X106465773Y-47061452D01*
X106561011Y-47013833D01*
X106751488Y-47013833D01*
X106846726Y-47061452D01*
X106894345Y-47109071D01*
X106941964Y-47204310D01*
D11*
X187857143Y-111583334D02*
X187904762Y-111535715D01*
X187952381Y-111392858D01*
X187952381Y-111297620D01*
X187904762Y-111154762D01*
X187809524Y-111059524D01*
X187714286Y-111011905D01*
X187523810Y-110964286D01*
X187380952Y-110964286D01*
X187190476Y-111011905D01*
X187095238Y-111059524D01*
X187000000Y-111154762D01*
X186952381Y-111297620D01*
X186952381Y-111392858D01*
X187000000Y-111535715D01*
X187047619Y-111583334D01*
X187952381Y-112535715D02*
X187952381Y-111964286D01*
X187952381Y-112250000D02*
X186952381Y-112250000D01*
X187095238Y-112154762D01*
X187190476Y-112059524D01*
X187238095Y-111964286D01*
X170107143Y-122833334D02*
X170154762Y-122785715D01*
X170202381Y-122642858D01*
X170202381Y-122547620D01*
X170154762Y-122404762D01*
X170059524Y-122309524D01*
X169964286Y-122261905D01*
X169773810Y-122214286D01*
X169630952Y-122214286D01*
X169440476Y-122261905D01*
X169345238Y-122309524D01*
X169250000Y-122404762D01*
X169202381Y-122547620D01*
X169202381Y-122642858D01*
X169250000Y-122785715D01*
X169297619Y-122833334D01*
X169297619Y-123214286D02*
X169250000Y-123261905D01*
X169202381Y-123357143D01*
X169202381Y-123595239D01*
X169250000Y-123690477D01*
X169297619Y-123738096D01*
X169392857Y-123785715D01*
X169488095Y-123785715D01*
X169630952Y-123738096D01*
X170202381Y-123166667D01*
X170202381Y-123785715D01*
X182041666Y-128732143D02*
X182089285Y-128779762D01*
X182232142Y-128827381D01*
X182327380Y-128827381D01*
X182470238Y-128779762D01*
X182565476Y-128684524D01*
X182613095Y-128589286D01*
X182660714Y-128398810D01*
X182660714Y-128255952D01*
X182613095Y-128065476D01*
X182565476Y-127970238D01*
X182470238Y-127875000D01*
X182327380Y-127827381D01*
X182232142Y-127827381D01*
X182089285Y-127875000D01*
X182041666Y-127922619D01*
X181708333Y-127827381D02*
X181089285Y-127827381D01*
X181422619Y-128208333D01*
X181279761Y-128208333D01*
X181184523Y-128255952D01*
X181136904Y-128303571D01*
X181089285Y-128398810D01*
X181089285Y-128636905D01*
X181136904Y-128732143D01*
X181184523Y-128779762D01*
X181279761Y-128827381D01*
X181565476Y-128827381D01*
X181660714Y-128779762D01*
X181708333Y-128732143D01*
X167107143Y-112083334D02*
X167154762Y-112035715D01*
X167202381Y-111892858D01*
X167202381Y-111797620D01*
X167154762Y-111654762D01*
X167059524Y-111559524D01*
X166964286Y-111511905D01*
X166773810Y-111464286D01*
X166630952Y-111464286D01*
X166440476Y-111511905D01*
X166345238Y-111559524D01*
X166250000Y-111654762D01*
X166202381Y-111797620D01*
X166202381Y-111892858D01*
X166250000Y-112035715D01*
X166297619Y-112083334D01*
X166535714Y-112940477D02*
X167202381Y-112940477D01*
X166154762Y-112702381D02*
X166869048Y-112464286D01*
X166869048Y-113083334D01*
X172166666Y-107607143D02*
X172214285Y-107654762D01*
X172357142Y-107702381D01*
X172452380Y-107702381D01*
X172595238Y-107654762D01*
X172690476Y-107559524D01*
X172738095Y-107464286D01*
X172785714Y-107273810D01*
X172785714Y-107130952D01*
X172738095Y-106940476D01*
X172690476Y-106845238D01*
X172595238Y-106750000D01*
X172452380Y-106702381D01*
X172357142Y-106702381D01*
X172214285Y-106750000D01*
X172166666Y-106797619D01*
X171261904Y-106702381D02*
X171738095Y-106702381D01*
X171785714Y-107178571D01*
X171738095Y-107130952D01*
X171642857Y-107083333D01*
X171404761Y-107083333D01*
X171309523Y-107130952D01*
X171261904Y-107178571D01*
X171214285Y-107273810D01*
X171214285Y-107511905D01*
X171261904Y-107607143D01*
X171309523Y-107654762D01*
X171404761Y-107702381D01*
X171642857Y-107702381D01*
X171738095Y-107654762D01*
X171785714Y-107607143D01*
X190166666Y-125107143D02*
X190214285Y-125154762D01*
X190357142Y-125202381D01*
X190452380Y-125202381D01*
X190595238Y-125154762D01*
X190690476Y-125059524D01*
X190738095Y-124964286D01*
X190785714Y-124773810D01*
X190785714Y-124630952D01*
X190738095Y-124440476D01*
X190690476Y-124345238D01*
X190595238Y-124250000D01*
X190452380Y-124202381D01*
X190357142Y-124202381D01*
X190214285Y-124250000D01*
X190166666Y-124297619D01*
X189309523Y-124202381D02*
X189500000Y-124202381D01*
X189595238Y-124250000D01*
X189642857Y-124297619D01*
X189738095Y-124440476D01*
X189785714Y-124630952D01*
X189785714Y-125011905D01*
X189738095Y-125107143D01*
X189690476Y-125154762D01*
X189595238Y-125202381D01*
X189404761Y-125202381D01*
X189309523Y-125154762D01*
X189261904Y-125107143D01*
X189214285Y-125011905D01*
X189214285Y-124773810D01*
X189261904Y-124678571D01*
X189309523Y-124630952D01*
X189404761Y-124583333D01*
X189595238Y-124583333D01*
X189690476Y-124630952D01*
X189738095Y-124678571D01*
X189785714Y-124773810D01*
X190166666Y-111607143D02*
X190214285Y-111654762D01*
X190357142Y-111702381D01*
X190452380Y-111702381D01*
X190595238Y-111654762D01*
X190690476Y-111559524D01*
X190738095Y-111464286D01*
X190785714Y-111273810D01*
X190785714Y-111130952D01*
X190738095Y-110940476D01*
X190690476Y-110845238D01*
X190595238Y-110750000D01*
X190452380Y-110702381D01*
X190357142Y-110702381D01*
X190214285Y-110750000D01*
X190166666Y-110797619D01*
X189833333Y-110702381D02*
X189166666Y-110702381D01*
X189595238Y-111702381D01*
X180166666Y-111107143D02*
X180214285Y-111154762D01*
X180357142Y-111202381D01*
X180452380Y-111202381D01*
X180595238Y-111154762D01*
X180690476Y-111059524D01*
X180738095Y-110964286D01*
X180785714Y-110773810D01*
X180785714Y-110630952D01*
X180738095Y-110440476D01*
X180690476Y-110345238D01*
X180595238Y-110250000D01*
X180452380Y-110202381D01*
X180357142Y-110202381D01*
X180214285Y-110250000D01*
X180166666Y-110297619D01*
X179595238Y-110630952D02*
X179690476Y-110583333D01*
X179738095Y-110535714D01*
X179785714Y-110440476D01*
X179785714Y-110392857D01*
X179738095Y-110297619D01*
X179690476Y-110250000D01*
X179595238Y-110202381D01*
X179404761Y-110202381D01*
X179309523Y-110250000D01*
X179261904Y-110297619D01*
X179214285Y-110392857D01*
X179214285Y-110440476D01*
X179261904Y-110535714D01*
X179309523Y-110583333D01*
X179404761Y-110630952D01*
X179595238Y-110630952D01*
X179690476Y-110678571D01*
X179738095Y-110726190D01*
X179785714Y-110821429D01*
X179785714Y-111011905D01*
X179738095Y-111107143D01*
X179690476Y-111154762D01*
X179595238Y-111202381D01*
X179404761Y-111202381D01*
X179309523Y-111154762D01*
X179261904Y-111107143D01*
X179214285Y-111011905D01*
X179214285Y-110821429D01*
X179261904Y-110726190D01*
X179309523Y-110678571D01*
X179404761Y-110630952D01*
X166916666Y-112857143D02*
X166964285Y-112904762D01*
X167107142Y-112952381D01*
X167202380Y-112952381D01*
X167345238Y-112904762D01*
X167440476Y-112809524D01*
X167488095Y-112714286D01*
X167535714Y-112523810D01*
X167535714Y-112380952D01*
X167488095Y-112190476D01*
X167440476Y-112095238D01*
X167345238Y-112000000D01*
X167202380Y-111952381D01*
X167107142Y-111952381D01*
X166964285Y-112000000D01*
X166916666Y-112047619D01*
X166440476Y-112952381D02*
X166250000Y-112952381D01*
X166154761Y-112904762D01*
X166107142Y-112857143D01*
X166011904Y-112714286D01*
X165964285Y-112523810D01*
X165964285Y-112142857D01*
X166011904Y-112047619D01*
X166059523Y-112000000D01*
X166154761Y-111952381D01*
X166345238Y-111952381D01*
X166440476Y-112000000D01*
X166488095Y-112047619D01*
X166535714Y-112142857D01*
X166535714Y-112380952D01*
X166488095Y-112476190D01*
X166440476Y-112523810D01*
X166345238Y-112571429D01*
X166154761Y-112571429D01*
X166059523Y-112523810D01*
X166011904Y-112476190D01*
X165964285Y-112380952D01*
X88696726Y-49911905D02*
X88696726Y-49111905D01*
X88506250Y-49111905D01*
X88391964Y-49150000D01*
X88315773Y-49226190D01*
X88277678Y-49302381D01*
X88239583Y-49454762D01*
X88239583Y-49569048D01*
X88277678Y-49721429D01*
X88315773Y-49797619D01*
X88391964Y-49873810D01*
X88506250Y-49911905D01*
X88696726Y-49911905D01*
X87477678Y-49911905D02*
X87934821Y-49911905D01*
X87706250Y-49911905D02*
X87706250Y-49111905D01*
X87782440Y-49226190D01*
X87858631Y-49302381D01*
X87934821Y-49340476D01*
X93459226Y-68961905D02*
X93459226Y-68161905D01*
X93268750Y-68161905D01*
X93154464Y-68200000D01*
X93078273Y-68276190D01*
X93040178Y-68352381D01*
X93002083Y-68504762D01*
X93002083Y-68619048D01*
X93040178Y-68771429D01*
X93078273Y-68847619D01*
X93154464Y-68923810D01*
X93268750Y-68961905D01*
X93459226Y-68961905D01*
X92697321Y-68238095D02*
X92659226Y-68200000D01*
X92583035Y-68161905D01*
X92392559Y-68161905D01*
X92316369Y-68200000D01*
X92278273Y-68238095D01*
X92240178Y-68314286D01*
X92240178Y-68390476D01*
X92278273Y-68504762D01*
X92735416Y-68961905D01*
X92240178Y-68961905D01*
X95840476Y-88011905D02*
X95840476Y-87211905D01*
X95650000Y-87211905D01*
X95535714Y-87250000D01*
X95459523Y-87326190D01*
X95421428Y-87402381D01*
X95383333Y-87554762D01*
X95383333Y-87669048D01*
X95421428Y-87821429D01*
X95459523Y-87897619D01*
X95535714Y-87973810D01*
X95650000Y-88011905D01*
X95840476Y-88011905D01*
X95116666Y-87211905D02*
X94621428Y-87211905D01*
X94888095Y-87516667D01*
X94773809Y-87516667D01*
X94697619Y-87554762D01*
X94659523Y-87592857D01*
X94621428Y-87669048D01*
X94621428Y-87859524D01*
X94659523Y-87935714D01*
X94697619Y-87973810D01*
X94773809Y-88011905D01*
X95002381Y-88011905D01*
X95078571Y-87973810D01*
X95116666Y-87935714D01*
X100602976Y-107061905D02*
X100602976Y-106261905D01*
X100412500Y-106261905D01*
X100298214Y-106300000D01*
X100222023Y-106376190D01*
X100183928Y-106452381D01*
X100145833Y-106604762D01*
X100145833Y-106719048D01*
X100183928Y-106871429D01*
X100222023Y-106947619D01*
X100298214Y-107023810D01*
X100412500Y-107061905D01*
X100602976Y-107061905D01*
X99460119Y-106528571D02*
X99460119Y-107061905D01*
X99650595Y-106223810D02*
X99841071Y-106795238D01*
X99345833Y-106795238D01*
X91077976Y-126111905D02*
X91077976Y-125311905D01*
X90887500Y-125311905D01*
X90773214Y-125350000D01*
X90697023Y-125426190D01*
X90658928Y-125502381D01*
X90620833Y-125654762D01*
X90620833Y-125769048D01*
X90658928Y-125921429D01*
X90697023Y-125997619D01*
X90773214Y-126073810D01*
X90887500Y-126111905D01*
X91077976Y-126111905D01*
X89897023Y-125311905D02*
X90277976Y-125311905D01*
X90316071Y-125692857D01*
X90277976Y-125654762D01*
X90201785Y-125616667D01*
X90011309Y-125616667D01*
X89935119Y-125654762D01*
X89897023Y-125692857D01*
X89858928Y-125769048D01*
X89858928Y-125959524D01*
X89897023Y-126035714D01*
X89935119Y-126073810D01*
X90011309Y-126111905D01*
X90201785Y-126111905D01*
X90277976Y-126073810D01*
X90316071Y-126035714D01*
X107746726Y-49911905D02*
X107746726Y-49111905D01*
X107556250Y-49111905D01*
X107441964Y-49150000D01*
X107365773Y-49226190D01*
X107327678Y-49302381D01*
X107289583Y-49454762D01*
X107289583Y-49569048D01*
X107327678Y-49721429D01*
X107365773Y-49797619D01*
X107441964Y-49873810D01*
X107556250Y-49911905D01*
X107746726Y-49911905D01*
X106603869Y-49111905D02*
X106756250Y-49111905D01*
X106832440Y-49150000D01*
X106870535Y-49188095D01*
X106946726Y-49302381D01*
X106984821Y-49454762D01*
X106984821Y-49759524D01*
X106946726Y-49835714D01*
X106908631Y-49873810D01*
X106832440Y-49911905D01*
X106680059Y-49911905D01*
X106603869Y-49873810D01*
X106565773Y-49835714D01*
X106527678Y-49759524D01*
X106527678Y-49569048D01*
X106565773Y-49492857D01*
X106603869Y-49454762D01*
X106680059Y-49416667D01*
X106832440Y-49416667D01*
X106908631Y-49454762D01*
X106946726Y-49492857D01*
X106984821Y-49569048D01*
X117271726Y-68961905D02*
X117271726Y-68161905D01*
X117081250Y-68161905D01*
X116966964Y-68200000D01*
X116890773Y-68276190D01*
X116852678Y-68352381D01*
X116814583Y-68504762D01*
X116814583Y-68619048D01*
X116852678Y-68771429D01*
X116890773Y-68847619D01*
X116966964Y-68923810D01*
X117081250Y-68961905D01*
X117271726Y-68961905D01*
X116547916Y-68161905D02*
X116014583Y-68161905D01*
X116357440Y-68961905D01*
X122034226Y-88011905D02*
X122034226Y-87211905D01*
X121843750Y-87211905D01*
X121729464Y-87250000D01*
X121653273Y-87326190D01*
X121615178Y-87402381D01*
X121577083Y-87554762D01*
X121577083Y-87669048D01*
X121615178Y-87821429D01*
X121653273Y-87897619D01*
X121729464Y-87973810D01*
X121843750Y-88011905D01*
X122034226Y-88011905D01*
X121119940Y-87554762D02*
X121196131Y-87516667D01*
X121234226Y-87478571D01*
X121272321Y-87402381D01*
X121272321Y-87364286D01*
X121234226Y-87288095D01*
X121196131Y-87250000D01*
X121119940Y-87211905D01*
X120967559Y-87211905D01*
X120891369Y-87250000D01*
X120853273Y-87288095D01*
X120815178Y-87364286D01*
X120815178Y-87402381D01*
X120853273Y-87478571D01*
X120891369Y-87516667D01*
X120967559Y-87554762D01*
X121119940Y-87554762D01*
X121196131Y-87592857D01*
X121234226Y-87630952D01*
X121272321Y-87707143D01*
X121272321Y-87859524D01*
X121234226Y-87935714D01*
X121196131Y-87973810D01*
X121119940Y-88011905D01*
X120967559Y-88011905D01*
X120891369Y-87973810D01*
X120853273Y-87935714D01*
X120815178Y-87859524D01*
X120815178Y-87707143D01*
X120853273Y-87630952D01*
X120891369Y-87592857D01*
X120967559Y-87554762D01*
X131559226Y-107061905D02*
X131559226Y-106261905D01*
X131368750Y-106261905D01*
X131254464Y-106300000D01*
X131178273Y-106376190D01*
X131140178Y-106452381D01*
X131102083Y-106604762D01*
X131102083Y-106719048D01*
X131140178Y-106871429D01*
X131178273Y-106947619D01*
X131254464Y-107023810D01*
X131368750Y-107061905D01*
X131559226Y-107061905D01*
X130721131Y-107061905D02*
X130568750Y-107061905D01*
X130492559Y-107023810D01*
X130454464Y-106985714D01*
X130378273Y-106871429D01*
X130340178Y-106719048D01*
X130340178Y-106414286D01*
X130378273Y-106338095D01*
X130416369Y-106300000D01*
X130492559Y-106261905D01*
X130644940Y-106261905D01*
X130721131Y-106300000D01*
X130759226Y-106338095D01*
X130797321Y-106414286D01*
X130797321Y-106604762D01*
X130759226Y-106680952D01*
X130721131Y-106719048D01*
X130644940Y-106757143D01*
X130492559Y-106757143D01*
X130416369Y-106719048D01*
X130378273Y-106680952D01*
X130340178Y-106604762D01*
X115271429Y-126111905D02*
X115271429Y-125311905D01*
X115080953Y-125311905D01*
X114966667Y-125350000D01*
X114890476Y-125426190D01*
X114852381Y-125502381D01*
X114814286Y-125654762D01*
X114814286Y-125769048D01*
X114852381Y-125921429D01*
X114890476Y-125997619D01*
X114966667Y-126073810D01*
X115080953Y-126111905D01*
X115271429Y-126111905D01*
X114052381Y-126111905D02*
X114509524Y-126111905D01*
X114280953Y-126111905D02*
X114280953Y-125311905D01*
X114357143Y-125426190D01*
X114433334Y-125502381D01*
X114509524Y-125540476D01*
X113557143Y-125311905D02*
X113480952Y-125311905D01*
X113404762Y-125350000D01*
X113366667Y-125388095D01*
X113328571Y-125464286D01*
X113290476Y-125616667D01*
X113290476Y-125807143D01*
X113328571Y-125959524D01*
X113366667Y-126035714D01*
X113404762Y-126073810D01*
X113480952Y-126111905D01*
X113557143Y-126111905D01*
X113633333Y-126073810D01*
X113671429Y-126035714D01*
X113709524Y-125959524D01*
X113747619Y-125807143D01*
X113747619Y-125616667D01*
X113709524Y-125464286D01*
X113671429Y-125388095D01*
X113633333Y-125350000D01*
X113557143Y-125311905D01*
X139083929Y-126111905D02*
X139083929Y-125311905D01*
X138893453Y-125311905D01*
X138779167Y-125350000D01*
X138702976Y-125426190D01*
X138664881Y-125502381D01*
X138626786Y-125654762D01*
X138626786Y-125769048D01*
X138664881Y-125921429D01*
X138702976Y-125997619D01*
X138779167Y-126073810D01*
X138893453Y-126111905D01*
X139083929Y-126111905D01*
X137864881Y-126111905D02*
X138322024Y-126111905D01*
X138093453Y-126111905D02*
X138093453Y-125311905D01*
X138169643Y-125426190D01*
X138245834Y-125502381D01*
X138322024Y-125540476D01*
X137102976Y-126111905D02*
X137560119Y-126111905D01*
X137331548Y-126111905D02*
X137331548Y-125311905D01*
X137407738Y-125426190D01*
X137483929Y-125502381D01*
X137560119Y-125540476D01*
X127177679Y-49911905D02*
X127177679Y-49111905D01*
X126987203Y-49111905D01*
X126872917Y-49150000D01*
X126796726Y-49226190D01*
X126758631Y-49302381D01*
X126720536Y-49454762D01*
X126720536Y-49569048D01*
X126758631Y-49721429D01*
X126796726Y-49797619D01*
X126872917Y-49873810D01*
X126987203Y-49911905D01*
X127177679Y-49911905D01*
X125958631Y-49911905D02*
X126415774Y-49911905D01*
X126187203Y-49911905D02*
X126187203Y-49111905D01*
X126263393Y-49226190D01*
X126339584Y-49302381D01*
X126415774Y-49340476D01*
X125653869Y-49188095D02*
X125615774Y-49150000D01*
X125539583Y-49111905D01*
X125349107Y-49111905D01*
X125272917Y-49150000D01*
X125234821Y-49188095D01*
X125196726Y-49264286D01*
X125196726Y-49340476D01*
X125234821Y-49454762D01*
X125691964Y-49911905D01*
X125196726Y-49911905D01*
X136702679Y-68961905D02*
X136702679Y-68161905D01*
X136512203Y-68161905D01*
X136397917Y-68200000D01*
X136321726Y-68276190D01*
X136283631Y-68352381D01*
X136245536Y-68504762D01*
X136245536Y-68619048D01*
X136283631Y-68771429D01*
X136321726Y-68847619D01*
X136397917Y-68923810D01*
X136512203Y-68961905D01*
X136702679Y-68961905D01*
X135483631Y-68961905D02*
X135940774Y-68961905D01*
X135712203Y-68961905D02*
X135712203Y-68161905D01*
X135788393Y-68276190D01*
X135864584Y-68352381D01*
X135940774Y-68390476D01*
X135216964Y-68161905D02*
X134721726Y-68161905D01*
X134988393Y-68466667D01*
X134874107Y-68466667D01*
X134797917Y-68504762D01*
X134759821Y-68542857D01*
X134721726Y-68619048D01*
X134721726Y-68809524D01*
X134759821Y-68885714D01*
X134797917Y-68923810D01*
X134874107Y-68961905D01*
X135102679Y-68961905D01*
X135178869Y-68923810D01*
X135216964Y-68885714D01*
X141465179Y-88011905D02*
X141465179Y-87211905D01*
X141274703Y-87211905D01*
X141160417Y-87250000D01*
X141084226Y-87326190D01*
X141046131Y-87402381D01*
X141008036Y-87554762D01*
X141008036Y-87669048D01*
X141046131Y-87821429D01*
X141084226Y-87897619D01*
X141160417Y-87973810D01*
X141274703Y-88011905D01*
X141465179Y-88011905D01*
X140246131Y-88011905D02*
X140703274Y-88011905D01*
X140474703Y-88011905D02*
X140474703Y-87211905D01*
X140550893Y-87326190D01*
X140627084Y-87402381D01*
X140703274Y-87440476D01*
X139560417Y-87478571D02*
X139560417Y-88011905D01*
X139750893Y-87173810D02*
X139941369Y-87745238D01*
X139446131Y-87745238D01*
X150990179Y-107061905D02*
X150990179Y-106261905D01*
X150799703Y-106261905D01*
X150685417Y-106300000D01*
X150609226Y-106376190D01*
X150571131Y-106452381D01*
X150533036Y-106604762D01*
X150533036Y-106719048D01*
X150571131Y-106871429D01*
X150609226Y-106947619D01*
X150685417Y-107023810D01*
X150799703Y-107061905D01*
X150990179Y-107061905D01*
X149771131Y-107061905D02*
X150228274Y-107061905D01*
X149999703Y-107061905D02*
X149999703Y-106261905D01*
X150075893Y-106376190D01*
X150152084Y-106452381D01*
X150228274Y-106490476D01*
X149047321Y-106261905D02*
X149428274Y-106261905D01*
X149466369Y-106642857D01*
X149428274Y-106604762D01*
X149352083Y-106566667D01*
X149161607Y-106566667D01*
X149085417Y-106604762D01*
X149047321Y-106642857D01*
X149009226Y-106719048D01*
X149009226Y-106909524D01*
X149047321Y-106985714D01*
X149085417Y-107023810D01*
X149161607Y-107061905D01*
X149352083Y-107061905D01*
X149428274Y-107023810D01*
X149466369Y-106985714D01*
X146227679Y-49911905D02*
X146227679Y-49111905D01*
X146037203Y-49111905D01*
X145922917Y-49150000D01*
X145846726Y-49226190D01*
X145808631Y-49302381D01*
X145770536Y-49454762D01*
X145770536Y-49569048D01*
X145808631Y-49721429D01*
X145846726Y-49797619D01*
X145922917Y-49873810D01*
X146037203Y-49911905D01*
X146227679Y-49911905D01*
X145008631Y-49911905D02*
X145465774Y-49911905D01*
X145237203Y-49911905D02*
X145237203Y-49111905D01*
X145313393Y-49226190D01*
X145389584Y-49302381D01*
X145465774Y-49340476D01*
X144322917Y-49111905D02*
X144475298Y-49111905D01*
X144551488Y-49150000D01*
X144589583Y-49188095D01*
X144665774Y-49302381D01*
X144703869Y-49454762D01*
X144703869Y-49759524D01*
X144665774Y-49835714D01*
X144627679Y-49873810D01*
X144551488Y-49911905D01*
X144399107Y-49911905D01*
X144322917Y-49873810D01*
X144284821Y-49835714D01*
X144246726Y-49759524D01*
X144246726Y-49569048D01*
X144284821Y-49492857D01*
X144322917Y-49454762D01*
X144399107Y-49416667D01*
X144551488Y-49416667D01*
X144627679Y-49454762D01*
X144665774Y-49492857D01*
X144703869Y-49569048D01*
X155752679Y-68961905D02*
X155752679Y-68161905D01*
X155562203Y-68161905D01*
X155447917Y-68200000D01*
X155371726Y-68276190D01*
X155333631Y-68352381D01*
X155295536Y-68504762D01*
X155295536Y-68619048D01*
X155333631Y-68771429D01*
X155371726Y-68847619D01*
X155447917Y-68923810D01*
X155562203Y-68961905D01*
X155752679Y-68961905D01*
X154533631Y-68961905D02*
X154990774Y-68961905D01*
X154762203Y-68961905D02*
X154762203Y-68161905D01*
X154838393Y-68276190D01*
X154914584Y-68352381D01*
X154990774Y-68390476D01*
X154266964Y-68161905D02*
X153733631Y-68161905D01*
X154076488Y-68961905D01*
X160515179Y-88011905D02*
X160515179Y-87211905D01*
X160324703Y-87211905D01*
X160210417Y-87250000D01*
X160134226Y-87326190D01*
X160096131Y-87402381D01*
X160058036Y-87554762D01*
X160058036Y-87669048D01*
X160096131Y-87821429D01*
X160134226Y-87897619D01*
X160210417Y-87973810D01*
X160324703Y-88011905D01*
X160515179Y-88011905D01*
X159296131Y-88011905D02*
X159753274Y-88011905D01*
X159524703Y-88011905D02*
X159524703Y-87211905D01*
X159600893Y-87326190D01*
X159677084Y-87402381D01*
X159753274Y-87440476D01*
X158838988Y-87554762D02*
X158915179Y-87516667D01*
X158953274Y-87478571D01*
X158991369Y-87402381D01*
X158991369Y-87364286D01*
X158953274Y-87288095D01*
X158915179Y-87250000D01*
X158838988Y-87211905D01*
X158686607Y-87211905D01*
X158610417Y-87250000D01*
X158572321Y-87288095D01*
X158534226Y-87364286D01*
X158534226Y-87402381D01*
X158572321Y-87478571D01*
X158610417Y-87516667D01*
X158686607Y-87554762D01*
X158838988Y-87554762D01*
X158915179Y-87592857D01*
X158953274Y-87630952D01*
X158991369Y-87707143D01*
X158991369Y-87859524D01*
X158953274Y-87935714D01*
X158915179Y-87973810D01*
X158838988Y-88011905D01*
X158686607Y-88011905D01*
X158610417Y-87973810D01*
X158572321Y-87935714D01*
X158534226Y-87859524D01*
X158534226Y-87707143D01*
X158572321Y-87630952D01*
X158610417Y-87592857D01*
X158686607Y-87554762D01*
X170040179Y-107061905D02*
X170040179Y-106261905D01*
X169849703Y-106261905D01*
X169735417Y-106300000D01*
X169659226Y-106376190D01*
X169621131Y-106452381D01*
X169583036Y-106604762D01*
X169583036Y-106719048D01*
X169621131Y-106871429D01*
X169659226Y-106947619D01*
X169735417Y-107023810D01*
X169849703Y-107061905D01*
X170040179Y-107061905D01*
X168821131Y-107061905D02*
X169278274Y-107061905D01*
X169049703Y-107061905D02*
X169049703Y-106261905D01*
X169125893Y-106376190D01*
X169202084Y-106452381D01*
X169278274Y-106490476D01*
X168440179Y-107061905D02*
X168287798Y-107061905D01*
X168211607Y-107023810D01*
X168173512Y-106985714D01*
X168097321Y-106871429D01*
X168059226Y-106719048D01*
X168059226Y-106414286D01*
X168097321Y-106338095D01*
X168135417Y-106300000D01*
X168211607Y-106261905D01*
X168363988Y-106261905D01*
X168440179Y-106300000D01*
X168478274Y-106338095D01*
X168516369Y-106414286D01*
X168516369Y-106604762D01*
X168478274Y-106680952D01*
X168440179Y-106719048D01*
X168363988Y-106757143D01*
X168211607Y-106757143D01*
X168135417Y-106719048D01*
X168097321Y-106680952D01*
X168059226Y-106604762D01*
X165277679Y-49911905D02*
X165277679Y-49111905D01*
X165087203Y-49111905D01*
X164972917Y-49150000D01*
X164896726Y-49226190D01*
X164858631Y-49302381D01*
X164820536Y-49454762D01*
X164820536Y-49569048D01*
X164858631Y-49721429D01*
X164896726Y-49797619D01*
X164972917Y-49873810D01*
X165087203Y-49911905D01*
X165277679Y-49911905D01*
X164515774Y-49188095D02*
X164477679Y-49150000D01*
X164401488Y-49111905D01*
X164211012Y-49111905D01*
X164134822Y-49150000D01*
X164096726Y-49188095D01*
X164058631Y-49264286D01*
X164058631Y-49340476D01*
X164096726Y-49454762D01*
X164553869Y-49911905D01*
X164058631Y-49911905D01*
X163296726Y-49911905D02*
X163753869Y-49911905D01*
X163525298Y-49911905D02*
X163525298Y-49111905D01*
X163601488Y-49226190D01*
X163677679Y-49302381D01*
X163753869Y-49340476D01*
X174802679Y-68961905D02*
X174802679Y-68161905D01*
X174612203Y-68161905D01*
X174497917Y-68200000D01*
X174421726Y-68276190D01*
X174383631Y-68352381D01*
X174345536Y-68504762D01*
X174345536Y-68619048D01*
X174383631Y-68771429D01*
X174421726Y-68847619D01*
X174497917Y-68923810D01*
X174612203Y-68961905D01*
X174802679Y-68961905D01*
X174040774Y-68238095D02*
X174002679Y-68200000D01*
X173926488Y-68161905D01*
X173736012Y-68161905D01*
X173659822Y-68200000D01*
X173621726Y-68238095D01*
X173583631Y-68314286D01*
X173583631Y-68390476D01*
X173621726Y-68504762D01*
X174078869Y-68961905D01*
X173583631Y-68961905D01*
X173278869Y-68238095D02*
X173240774Y-68200000D01*
X173164583Y-68161905D01*
X172974107Y-68161905D01*
X172897917Y-68200000D01*
X172859821Y-68238095D01*
X172821726Y-68314286D01*
X172821726Y-68390476D01*
X172859821Y-68504762D01*
X173316964Y-68961905D01*
X172821726Y-68961905D01*
X179565179Y-88011905D02*
X179565179Y-87211905D01*
X179374703Y-87211905D01*
X179260417Y-87250000D01*
X179184226Y-87326190D01*
X179146131Y-87402381D01*
X179108036Y-87554762D01*
X179108036Y-87669048D01*
X179146131Y-87821429D01*
X179184226Y-87897619D01*
X179260417Y-87973810D01*
X179374703Y-88011905D01*
X179565179Y-88011905D01*
X178803274Y-87288095D02*
X178765179Y-87250000D01*
X178688988Y-87211905D01*
X178498512Y-87211905D01*
X178422322Y-87250000D01*
X178384226Y-87288095D01*
X178346131Y-87364286D01*
X178346131Y-87440476D01*
X178384226Y-87554762D01*
X178841369Y-88011905D01*
X178346131Y-88011905D01*
X178079464Y-87211905D02*
X177584226Y-87211905D01*
X177850893Y-87516667D01*
X177736607Y-87516667D01*
X177660417Y-87554762D01*
X177622321Y-87592857D01*
X177584226Y-87669048D01*
X177584226Y-87859524D01*
X177622321Y-87935714D01*
X177660417Y-87973810D01*
X177736607Y-88011905D01*
X177965179Y-88011905D01*
X178041369Y-87973810D01*
X178079464Y-87935714D01*
X189090179Y-107061905D02*
X189090179Y-106261905D01*
X188899703Y-106261905D01*
X188785417Y-106300000D01*
X188709226Y-106376190D01*
X188671131Y-106452381D01*
X188633036Y-106604762D01*
X188633036Y-106719048D01*
X188671131Y-106871429D01*
X188709226Y-106947619D01*
X188785417Y-107023810D01*
X188899703Y-107061905D01*
X189090179Y-107061905D01*
X188328274Y-106338095D02*
X188290179Y-106300000D01*
X188213988Y-106261905D01*
X188023512Y-106261905D01*
X187947322Y-106300000D01*
X187909226Y-106338095D01*
X187871131Y-106414286D01*
X187871131Y-106490476D01*
X187909226Y-106604762D01*
X188366369Y-107061905D01*
X187871131Y-107061905D01*
X187185417Y-106528571D02*
X187185417Y-107061905D01*
X187375893Y-106223810D02*
X187566369Y-106795238D01*
X187071131Y-106795238D01*
X184327679Y-49911905D02*
X184327679Y-49111905D01*
X184137203Y-49111905D01*
X184022917Y-49150000D01*
X183946726Y-49226190D01*
X183908631Y-49302381D01*
X183870536Y-49454762D01*
X183870536Y-49569048D01*
X183908631Y-49721429D01*
X183946726Y-49797619D01*
X184022917Y-49873810D01*
X184137203Y-49911905D01*
X184327679Y-49911905D01*
X183565774Y-49188095D02*
X183527679Y-49150000D01*
X183451488Y-49111905D01*
X183261012Y-49111905D01*
X183184822Y-49150000D01*
X183146726Y-49188095D01*
X183108631Y-49264286D01*
X183108631Y-49340476D01*
X183146726Y-49454762D01*
X183603869Y-49911905D01*
X183108631Y-49911905D01*
X182422917Y-49111905D02*
X182575298Y-49111905D01*
X182651488Y-49150000D01*
X182689583Y-49188095D01*
X182765774Y-49302381D01*
X182803869Y-49454762D01*
X182803869Y-49759524D01*
X182765774Y-49835714D01*
X182727679Y-49873810D01*
X182651488Y-49911905D01*
X182499107Y-49911905D01*
X182422917Y-49873810D01*
X182384821Y-49835714D01*
X182346726Y-49759524D01*
X182346726Y-49569048D01*
X182384821Y-49492857D01*
X182422917Y-49454762D01*
X182499107Y-49416667D01*
X182651488Y-49416667D01*
X182727679Y-49454762D01*
X182765774Y-49492857D01*
X182803869Y-49569048D01*
X193852679Y-68961905D02*
X193852679Y-68161905D01*
X193662203Y-68161905D01*
X193547917Y-68200000D01*
X193471726Y-68276190D01*
X193433631Y-68352381D01*
X193395536Y-68504762D01*
X193395536Y-68619048D01*
X193433631Y-68771429D01*
X193471726Y-68847619D01*
X193547917Y-68923810D01*
X193662203Y-68961905D01*
X193852679Y-68961905D01*
X193090774Y-68238095D02*
X193052679Y-68200000D01*
X192976488Y-68161905D01*
X192786012Y-68161905D01*
X192709822Y-68200000D01*
X192671726Y-68238095D01*
X192633631Y-68314286D01*
X192633631Y-68390476D01*
X192671726Y-68504762D01*
X193128869Y-68961905D01*
X192633631Y-68961905D01*
X192366964Y-68161905D02*
X191833631Y-68161905D01*
X192176488Y-68961905D01*
X198615179Y-88011905D02*
X198615179Y-87211905D01*
X198424703Y-87211905D01*
X198310417Y-87250000D01*
X198234226Y-87326190D01*
X198196131Y-87402381D01*
X198158036Y-87554762D01*
X198158036Y-87669048D01*
X198196131Y-87821429D01*
X198234226Y-87897619D01*
X198310417Y-87973810D01*
X198424703Y-88011905D01*
X198615179Y-88011905D01*
X197853274Y-87288095D02*
X197815179Y-87250000D01*
X197738988Y-87211905D01*
X197548512Y-87211905D01*
X197472322Y-87250000D01*
X197434226Y-87288095D01*
X197396131Y-87364286D01*
X197396131Y-87440476D01*
X197434226Y-87554762D01*
X197891369Y-88011905D01*
X197396131Y-88011905D01*
X196938988Y-87554762D02*
X197015179Y-87516667D01*
X197053274Y-87478571D01*
X197091369Y-87402381D01*
X197091369Y-87364286D01*
X197053274Y-87288095D01*
X197015179Y-87250000D01*
X196938988Y-87211905D01*
X196786607Y-87211905D01*
X196710417Y-87250000D01*
X196672321Y-87288095D01*
X196634226Y-87364286D01*
X196634226Y-87402381D01*
X196672321Y-87478571D01*
X196710417Y-87516667D01*
X196786607Y-87554762D01*
X196938988Y-87554762D01*
X197015179Y-87592857D01*
X197053274Y-87630952D01*
X197091369Y-87707143D01*
X197091369Y-87859524D01*
X197053274Y-87935714D01*
X197015179Y-87973810D01*
X196938988Y-88011905D01*
X196786607Y-88011905D01*
X196710417Y-87973810D01*
X196672321Y-87935714D01*
X196634226Y-87859524D01*
X196634226Y-87707143D01*
X196672321Y-87630952D01*
X196710417Y-87592857D01*
X196786607Y-87554762D01*
X208140179Y-107061905D02*
X208140179Y-106261905D01*
X207949703Y-106261905D01*
X207835417Y-106300000D01*
X207759226Y-106376190D01*
X207721131Y-106452381D01*
X207683036Y-106604762D01*
X207683036Y-106719048D01*
X207721131Y-106871429D01*
X207759226Y-106947619D01*
X207835417Y-107023810D01*
X207949703Y-107061905D01*
X208140179Y-107061905D01*
X207378274Y-106338095D02*
X207340179Y-106300000D01*
X207263988Y-106261905D01*
X207073512Y-106261905D01*
X206997322Y-106300000D01*
X206959226Y-106338095D01*
X206921131Y-106414286D01*
X206921131Y-106490476D01*
X206959226Y-106604762D01*
X207416369Y-107061905D01*
X206921131Y-107061905D01*
X206540179Y-107061905D02*
X206387798Y-107061905D01*
X206311607Y-107023810D01*
X206273512Y-106985714D01*
X206197321Y-106871429D01*
X206159226Y-106719048D01*
X206159226Y-106414286D01*
X206197321Y-106338095D01*
X206235417Y-106300000D01*
X206311607Y-106261905D01*
X206463988Y-106261905D01*
X206540179Y-106300000D01*
X206578274Y-106338095D01*
X206616369Y-106414286D01*
X206616369Y-106604762D01*
X206578274Y-106680952D01*
X206540179Y-106719048D01*
X206463988Y-106757143D01*
X206311607Y-106757143D01*
X206235417Y-106719048D01*
X206197321Y-106680952D01*
X206159226Y-106604762D01*
X203377679Y-49911905D02*
X203377679Y-49111905D01*
X203187203Y-49111905D01*
X203072917Y-49150000D01*
X202996726Y-49226190D01*
X202958631Y-49302381D01*
X202920536Y-49454762D01*
X202920536Y-49569048D01*
X202958631Y-49721429D01*
X202996726Y-49797619D01*
X203072917Y-49873810D01*
X203187203Y-49911905D01*
X203377679Y-49911905D01*
X202653869Y-49111905D02*
X202158631Y-49111905D01*
X202425298Y-49416667D01*
X202311012Y-49416667D01*
X202234822Y-49454762D01*
X202196726Y-49492857D01*
X202158631Y-49569048D01*
X202158631Y-49759524D01*
X202196726Y-49835714D01*
X202234822Y-49873810D01*
X202311012Y-49911905D01*
X202539584Y-49911905D01*
X202615774Y-49873810D01*
X202653869Y-49835714D01*
X201396726Y-49911905D02*
X201853869Y-49911905D01*
X201625298Y-49911905D02*
X201625298Y-49111905D01*
X201701488Y-49226190D01*
X201777679Y-49302381D01*
X201853869Y-49340476D01*
X212902679Y-68961905D02*
X212902679Y-68161905D01*
X212712203Y-68161905D01*
X212597917Y-68200000D01*
X212521726Y-68276190D01*
X212483631Y-68352381D01*
X212445536Y-68504762D01*
X212445536Y-68619048D01*
X212483631Y-68771429D01*
X212521726Y-68847619D01*
X212597917Y-68923810D01*
X212712203Y-68961905D01*
X212902679Y-68961905D01*
X212178869Y-68161905D02*
X211683631Y-68161905D01*
X211950298Y-68466667D01*
X211836012Y-68466667D01*
X211759822Y-68504762D01*
X211721726Y-68542857D01*
X211683631Y-68619048D01*
X211683631Y-68809524D01*
X211721726Y-68885714D01*
X211759822Y-68923810D01*
X211836012Y-68961905D01*
X212064584Y-68961905D01*
X212140774Y-68923810D01*
X212178869Y-68885714D01*
X211378869Y-68238095D02*
X211340774Y-68200000D01*
X211264583Y-68161905D01*
X211074107Y-68161905D01*
X210997917Y-68200000D01*
X210959821Y-68238095D01*
X210921726Y-68314286D01*
X210921726Y-68390476D01*
X210959821Y-68504762D01*
X211416964Y-68961905D01*
X210921726Y-68961905D01*
X217665179Y-88011905D02*
X217665179Y-87211905D01*
X217474703Y-87211905D01*
X217360417Y-87250000D01*
X217284226Y-87326190D01*
X217246131Y-87402381D01*
X217208036Y-87554762D01*
X217208036Y-87669048D01*
X217246131Y-87821429D01*
X217284226Y-87897619D01*
X217360417Y-87973810D01*
X217474703Y-88011905D01*
X217665179Y-88011905D01*
X216941369Y-87211905D02*
X216446131Y-87211905D01*
X216712798Y-87516667D01*
X216598512Y-87516667D01*
X216522322Y-87554762D01*
X216484226Y-87592857D01*
X216446131Y-87669048D01*
X216446131Y-87859524D01*
X216484226Y-87935714D01*
X216522322Y-87973810D01*
X216598512Y-88011905D01*
X216827084Y-88011905D01*
X216903274Y-87973810D01*
X216941369Y-87935714D01*
X216179464Y-87211905D02*
X215684226Y-87211905D01*
X215950893Y-87516667D01*
X215836607Y-87516667D01*
X215760417Y-87554762D01*
X215722321Y-87592857D01*
X215684226Y-87669048D01*
X215684226Y-87859524D01*
X215722321Y-87935714D01*
X215760417Y-87973810D01*
X215836607Y-88011905D01*
X216065179Y-88011905D01*
X216141369Y-87973810D01*
X216179464Y-87935714D01*
X227190179Y-107061905D02*
X227190179Y-106261905D01*
X226999703Y-106261905D01*
X226885417Y-106300000D01*
X226809226Y-106376190D01*
X226771131Y-106452381D01*
X226733036Y-106604762D01*
X226733036Y-106719048D01*
X226771131Y-106871429D01*
X226809226Y-106947619D01*
X226885417Y-107023810D01*
X226999703Y-107061905D01*
X227190179Y-107061905D01*
X226466369Y-106261905D02*
X225971131Y-106261905D01*
X226237798Y-106566667D01*
X226123512Y-106566667D01*
X226047322Y-106604762D01*
X226009226Y-106642857D01*
X225971131Y-106719048D01*
X225971131Y-106909524D01*
X226009226Y-106985714D01*
X226047322Y-107023810D01*
X226123512Y-107061905D01*
X226352084Y-107061905D01*
X226428274Y-107023810D01*
X226466369Y-106985714D01*
X225285417Y-106528571D02*
X225285417Y-107061905D01*
X225475893Y-106223810D02*
X225666369Y-106795238D01*
X225171131Y-106795238D01*
X210521429Y-126111905D02*
X210521429Y-125311905D01*
X210330953Y-125311905D01*
X210216667Y-125350000D01*
X210140476Y-125426190D01*
X210102381Y-125502381D01*
X210064286Y-125654762D01*
X210064286Y-125769048D01*
X210102381Y-125921429D01*
X210140476Y-125997619D01*
X210216667Y-126073810D01*
X210330953Y-126111905D01*
X210521429Y-126111905D01*
X209797619Y-125311905D02*
X209302381Y-125311905D01*
X209569048Y-125616667D01*
X209454762Y-125616667D01*
X209378572Y-125654762D01*
X209340476Y-125692857D01*
X209302381Y-125769048D01*
X209302381Y-125959524D01*
X209340476Y-126035714D01*
X209378572Y-126073810D01*
X209454762Y-126111905D01*
X209683334Y-126111905D01*
X209759524Y-126073810D01*
X209797619Y-126035714D01*
X208578571Y-125311905D02*
X208959524Y-125311905D01*
X208997619Y-125692857D01*
X208959524Y-125654762D01*
X208883333Y-125616667D01*
X208692857Y-125616667D01*
X208616667Y-125654762D01*
X208578571Y-125692857D01*
X208540476Y-125769048D01*
X208540476Y-125959524D01*
X208578571Y-126035714D01*
X208616667Y-126073810D01*
X208692857Y-126111905D01*
X208883333Y-126111905D01*
X208959524Y-126073810D01*
X208997619Y-126035714D01*
X222427679Y-49911905D02*
X222427679Y-49111905D01*
X222237203Y-49111905D01*
X222122917Y-49150000D01*
X222046726Y-49226190D01*
X222008631Y-49302381D01*
X221970536Y-49454762D01*
X221970536Y-49569048D01*
X222008631Y-49721429D01*
X222046726Y-49797619D01*
X222122917Y-49873810D01*
X222237203Y-49911905D01*
X222427679Y-49911905D01*
X221703869Y-49111905D02*
X221208631Y-49111905D01*
X221475298Y-49416667D01*
X221361012Y-49416667D01*
X221284822Y-49454762D01*
X221246726Y-49492857D01*
X221208631Y-49569048D01*
X221208631Y-49759524D01*
X221246726Y-49835714D01*
X221284822Y-49873810D01*
X221361012Y-49911905D01*
X221589584Y-49911905D01*
X221665774Y-49873810D01*
X221703869Y-49835714D01*
X220522917Y-49111905D02*
X220675298Y-49111905D01*
X220751488Y-49150000D01*
X220789583Y-49188095D01*
X220865774Y-49302381D01*
X220903869Y-49454762D01*
X220903869Y-49759524D01*
X220865774Y-49835714D01*
X220827679Y-49873810D01*
X220751488Y-49911905D01*
X220599107Y-49911905D01*
X220522917Y-49873810D01*
X220484821Y-49835714D01*
X220446726Y-49759524D01*
X220446726Y-49569048D01*
X220484821Y-49492857D01*
X220522917Y-49454762D01*
X220599107Y-49416667D01*
X220751488Y-49416667D01*
X220827679Y-49454762D01*
X220865774Y-49492857D01*
X220903869Y-49569048D01*
X231952679Y-68961905D02*
X231952679Y-68161905D01*
X231762203Y-68161905D01*
X231647917Y-68200000D01*
X231571726Y-68276190D01*
X231533631Y-68352381D01*
X231495536Y-68504762D01*
X231495536Y-68619048D01*
X231533631Y-68771429D01*
X231571726Y-68847619D01*
X231647917Y-68923810D01*
X231762203Y-68961905D01*
X231952679Y-68961905D01*
X231228869Y-68161905D02*
X230733631Y-68161905D01*
X231000298Y-68466667D01*
X230886012Y-68466667D01*
X230809822Y-68504762D01*
X230771726Y-68542857D01*
X230733631Y-68619048D01*
X230733631Y-68809524D01*
X230771726Y-68885714D01*
X230809822Y-68923810D01*
X230886012Y-68961905D01*
X231114584Y-68961905D01*
X231190774Y-68923810D01*
X231228869Y-68885714D01*
X230466964Y-68161905D02*
X229933631Y-68161905D01*
X230276488Y-68961905D01*
X236715179Y-88011905D02*
X236715179Y-87211905D01*
X236524703Y-87211905D01*
X236410417Y-87250000D01*
X236334226Y-87326190D01*
X236296131Y-87402381D01*
X236258036Y-87554762D01*
X236258036Y-87669048D01*
X236296131Y-87821429D01*
X236334226Y-87897619D01*
X236410417Y-87973810D01*
X236524703Y-88011905D01*
X236715179Y-88011905D01*
X235991369Y-87211905D02*
X235496131Y-87211905D01*
X235762798Y-87516667D01*
X235648512Y-87516667D01*
X235572322Y-87554762D01*
X235534226Y-87592857D01*
X235496131Y-87669048D01*
X235496131Y-87859524D01*
X235534226Y-87935714D01*
X235572322Y-87973810D01*
X235648512Y-88011905D01*
X235877084Y-88011905D01*
X235953274Y-87973810D01*
X235991369Y-87935714D01*
X235038988Y-87554762D02*
X235115179Y-87516667D01*
X235153274Y-87478571D01*
X235191369Y-87402381D01*
X235191369Y-87364286D01*
X235153274Y-87288095D01*
X235115179Y-87250000D01*
X235038988Y-87211905D01*
X234886607Y-87211905D01*
X234810417Y-87250000D01*
X234772321Y-87288095D01*
X234734226Y-87364286D01*
X234734226Y-87402381D01*
X234772321Y-87478571D01*
X234810417Y-87516667D01*
X234886607Y-87554762D01*
X235038988Y-87554762D01*
X235115179Y-87592857D01*
X235153274Y-87630952D01*
X235191369Y-87707143D01*
X235191369Y-87859524D01*
X235153274Y-87935714D01*
X235115179Y-87973810D01*
X235038988Y-88011905D01*
X234886607Y-88011905D01*
X234810417Y-87973810D01*
X234772321Y-87935714D01*
X234734226Y-87859524D01*
X234734226Y-87707143D01*
X234772321Y-87630952D01*
X234810417Y-87592857D01*
X234886607Y-87554762D01*
X246240179Y-107061905D02*
X246240179Y-106261905D01*
X246049703Y-106261905D01*
X245935417Y-106300000D01*
X245859226Y-106376190D01*
X245821131Y-106452381D01*
X245783036Y-106604762D01*
X245783036Y-106719048D01*
X245821131Y-106871429D01*
X245859226Y-106947619D01*
X245935417Y-107023810D01*
X246049703Y-107061905D01*
X246240179Y-107061905D01*
X245516369Y-106261905D02*
X245021131Y-106261905D01*
X245287798Y-106566667D01*
X245173512Y-106566667D01*
X245097322Y-106604762D01*
X245059226Y-106642857D01*
X245021131Y-106719048D01*
X245021131Y-106909524D01*
X245059226Y-106985714D01*
X245097322Y-107023810D01*
X245173512Y-107061905D01*
X245402084Y-107061905D01*
X245478274Y-107023810D01*
X245516369Y-106985714D01*
X244640179Y-107061905D02*
X244487798Y-107061905D01*
X244411607Y-107023810D01*
X244373512Y-106985714D01*
X244297321Y-106871429D01*
X244259226Y-106719048D01*
X244259226Y-106414286D01*
X244297321Y-106338095D01*
X244335417Y-106300000D01*
X244411607Y-106261905D01*
X244563988Y-106261905D01*
X244640179Y-106300000D01*
X244678274Y-106338095D01*
X244716369Y-106414286D01*
X244716369Y-106604762D01*
X244678274Y-106680952D01*
X244640179Y-106719048D01*
X244563988Y-106757143D01*
X244411607Y-106757143D01*
X244335417Y-106719048D01*
X244297321Y-106680952D01*
X244259226Y-106604762D01*
X241477679Y-49911905D02*
X241477679Y-49111905D01*
X241287203Y-49111905D01*
X241172917Y-49150000D01*
X241096726Y-49226190D01*
X241058631Y-49302381D01*
X241020536Y-49454762D01*
X241020536Y-49569048D01*
X241058631Y-49721429D01*
X241096726Y-49797619D01*
X241172917Y-49873810D01*
X241287203Y-49911905D01*
X241477679Y-49911905D01*
X240334822Y-49378571D02*
X240334822Y-49911905D01*
X240525298Y-49073810D02*
X240715774Y-49645238D01*
X240220536Y-49645238D01*
X239496726Y-49911905D02*
X239953869Y-49911905D01*
X239725298Y-49911905D02*
X239725298Y-49111905D01*
X239801488Y-49226190D01*
X239877679Y-49302381D01*
X239953869Y-49340476D01*
X251002679Y-68961905D02*
X251002679Y-68161905D01*
X250812203Y-68161905D01*
X250697917Y-68200000D01*
X250621726Y-68276190D01*
X250583631Y-68352381D01*
X250545536Y-68504762D01*
X250545536Y-68619048D01*
X250583631Y-68771429D01*
X250621726Y-68847619D01*
X250697917Y-68923810D01*
X250812203Y-68961905D01*
X251002679Y-68961905D01*
X249859822Y-68428571D02*
X249859822Y-68961905D01*
X250050298Y-68123810D02*
X250240774Y-68695238D01*
X249745536Y-68695238D01*
X249478869Y-68238095D02*
X249440774Y-68200000D01*
X249364583Y-68161905D01*
X249174107Y-68161905D01*
X249097917Y-68200000D01*
X249059821Y-68238095D01*
X249021726Y-68314286D01*
X249021726Y-68390476D01*
X249059821Y-68504762D01*
X249516964Y-68961905D01*
X249021726Y-68961905D01*
X255765179Y-88011905D02*
X255765179Y-87211905D01*
X255574703Y-87211905D01*
X255460417Y-87250000D01*
X255384226Y-87326190D01*
X255346131Y-87402381D01*
X255308036Y-87554762D01*
X255308036Y-87669048D01*
X255346131Y-87821429D01*
X255384226Y-87897619D01*
X255460417Y-87973810D01*
X255574703Y-88011905D01*
X255765179Y-88011905D01*
X254622322Y-87478571D02*
X254622322Y-88011905D01*
X254812798Y-87173810D02*
X255003274Y-87745238D01*
X254508036Y-87745238D01*
X254279464Y-87211905D02*
X253784226Y-87211905D01*
X254050893Y-87516667D01*
X253936607Y-87516667D01*
X253860417Y-87554762D01*
X253822321Y-87592857D01*
X253784226Y-87669048D01*
X253784226Y-87859524D01*
X253822321Y-87935714D01*
X253860417Y-87973810D01*
X253936607Y-88011905D01*
X254165179Y-88011905D01*
X254241369Y-87973810D01*
X254279464Y-87935714D01*
X265290179Y-107061905D02*
X265290179Y-106261905D01*
X265099703Y-106261905D01*
X264985417Y-106300000D01*
X264909226Y-106376190D01*
X264871131Y-106452381D01*
X264833036Y-106604762D01*
X264833036Y-106719048D01*
X264871131Y-106871429D01*
X264909226Y-106947619D01*
X264985417Y-107023810D01*
X265099703Y-107061905D01*
X265290179Y-107061905D01*
X264147322Y-106528571D02*
X264147322Y-107061905D01*
X264337798Y-106223810D02*
X264528274Y-106795238D01*
X264033036Y-106795238D01*
X263385417Y-106528571D02*
X263385417Y-107061905D01*
X263575893Y-106223810D02*
X263766369Y-106795238D01*
X263271131Y-106795238D01*
X260527679Y-49911905D02*
X260527679Y-49111905D01*
X260337203Y-49111905D01*
X260222917Y-49150000D01*
X260146726Y-49226190D01*
X260108631Y-49302381D01*
X260070536Y-49454762D01*
X260070536Y-49569048D01*
X260108631Y-49721429D01*
X260146726Y-49797619D01*
X260222917Y-49873810D01*
X260337203Y-49911905D01*
X260527679Y-49911905D01*
X259384822Y-49378571D02*
X259384822Y-49911905D01*
X259575298Y-49073810D02*
X259765774Y-49645238D01*
X259270536Y-49645238D01*
X258622917Y-49111905D02*
X258775298Y-49111905D01*
X258851488Y-49150000D01*
X258889583Y-49188095D01*
X258965774Y-49302381D01*
X259003869Y-49454762D01*
X259003869Y-49759524D01*
X258965774Y-49835714D01*
X258927679Y-49873810D01*
X258851488Y-49911905D01*
X258699107Y-49911905D01*
X258622917Y-49873810D01*
X258584821Y-49835714D01*
X258546726Y-49759524D01*
X258546726Y-49569048D01*
X258584821Y-49492857D01*
X258622917Y-49454762D01*
X258699107Y-49416667D01*
X258851488Y-49416667D01*
X258927679Y-49454762D01*
X258965774Y-49492857D01*
X259003869Y-49569048D01*
X270052679Y-68961905D02*
X270052679Y-68161905D01*
X269862203Y-68161905D01*
X269747917Y-68200000D01*
X269671726Y-68276190D01*
X269633631Y-68352381D01*
X269595536Y-68504762D01*
X269595536Y-68619048D01*
X269633631Y-68771429D01*
X269671726Y-68847619D01*
X269747917Y-68923810D01*
X269862203Y-68961905D01*
X270052679Y-68961905D01*
X268909822Y-68428571D02*
X268909822Y-68961905D01*
X269100298Y-68123810D02*
X269290774Y-68695238D01*
X268795536Y-68695238D01*
X268566964Y-68161905D02*
X268033631Y-68161905D01*
X268376488Y-68961905D01*
X274815179Y-88011905D02*
X274815179Y-87211905D01*
X274624703Y-87211905D01*
X274510417Y-87250000D01*
X274434226Y-87326190D01*
X274396131Y-87402381D01*
X274358036Y-87554762D01*
X274358036Y-87669048D01*
X274396131Y-87821429D01*
X274434226Y-87897619D01*
X274510417Y-87973810D01*
X274624703Y-88011905D01*
X274815179Y-88011905D01*
X273672322Y-87478571D02*
X273672322Y-88011905D01*
X273862798Y-87173810D02*
X274053274Y-87745238D01*
X273558036Y-87745238D01*
X273138988Y-87554762D02*
X273215179Y-87516667D01*
X273253274Y-87478571D01*
X273291369Y-87402381D01*
X273291369Y-87364286D01*
X273253274Y-87288095D01*
X273215179Y-87250000D01*
X273138988Y-87211905D01*
X272986607Y-87211905D01*
X272910417Y-87250000D01*
X272872321Y-87288095D01*
X272834226Y-87364286D01*
X272834226Y-87402381D01*
X272872321Y-87478571D01*
X272910417Y-87516667D01*
X272986607Y-87554762D01*
X273138988Y-87554762D01*
X273215179Y-87592857D01*
X273253274Y-87630952D01*
X273291369Y-87707143D01*
X273291369Y-87859524D01*
X273253274Y-87935714D01*
X273215179Y-87973810D01*
X273138988Y-88011905D01*
X272986607Y-88011905D01*
X272910417Y-87973810D01*
X272872321Y-87935714D01*
X272834226Y-87859524D01*
X272834226Y-87707143D01*
X272872321Y-87630952D01*
X272910417Y-87592857D01*
X272986607Y-87554762D01*
X284340179Y-107061905D02*
X284340179Y-106261905D01*
X284149703Y-106261905D01*
X284035417Y-106300000D01*
X283959226Y-106376190D01*
X283921131Y-106452381D01*
X283883036Y-106604762D01*
X283883036Y-106719048D01*
X283921131Y-106871429D01*
X283959226Y-106947619D01*
X284035417Y-107023810D01*
X284149703Y-107061905D01*
X284340179Y-107061905D01*
X283197322Y-106528571D02*
X283197322Y-107061905D01*
X283387798Y-106223810D02*
X283578274Y-106795238D01*
X283083036Y-106795238D01*
X282740179Y-107061905D02*
X282587798Y-107061905D01*
X282511607Y-107023810D01*
X282473512Y-106985714D01*
X282397321Y-106871429D01*
X282359226Y-106719048D01*
X282359226Y-106414286D01*
X282397321Y-106338095D01*
X282435417Y-106300000D01*
X282511607Y-106261905D01*
X282663988Y-106261905D01*
X282740179Y-106300000D01*
X282778274Y-106338095D01*
X282816369Y-106414286D01*
X282816369Y-106604762D01*
X282778274Y-106680952D01*
X282740179Y-106719048D01*
X282663988Y-106757143D01*
X282511607Y-106757143D01*
X282435417Y-106719048D01*
X282397321Y-106680952D01*
X282359226Y-106604762D01*
X279577679Y-49911905D02*
X279577679Y-49111905D01*
X279387203Y-49111905D01*
X279272917Y-49150000D01*
X279196726Y-49226190D01*
X279158631Y-49302381D01*
X279120536Y-49454762D01*
X279120536Y-49569048D01*
X279158631Y-49721429D01*
X279196726Y-49797619D01*
X279272917Y-49873810D01*
X279387203Y-49911905D01*
X279577679Y-49911905D01*
X278396726Y-49111905D02*
X278777679Y-49111905D01*
X278815774Y-49492857D01*
X278777679Y-49454762D01*
X278701488Y-49416667D01*
X278511012Y-49416667D01*
X278434822Y-49454762D01*
X278396726Y-49492857D01*
X278358631Y-49569048D01*
X278358631Y-49759524D01*
X278396726Y-49835714D01*
X278434822Y-49873810D01*
X278511012Y-49911905D01*
X278701488Y-49911905D01*
X278777679Y-49873810D01*
X278815774Y-49835714D01*
X277596726Y-49911905D02*
X278053869Y-49911905D01*
X277825298Y-49911905D02*
X277825298Y-49111905D01*
X277901488Y-49226190D01*
X277977679Y-49302381D01*
X278053869Y-49340476D01*
X289102679Y-68961905D02*
X289102679Y-68161905D01*
X288912203Y-68161905D01*
X288797917Y-68200000D01*
X288721726Y-68276190D01*
X288683631Y-68352381D01*
X288645536Y-68504762D01*
X288645536Y-68619048D01*
X288683631Y-68771429D01*
X288721726Y-68847619D01*
X288797917Y-68923810D01*
X288912203Y-68961905D01*
X289102679Y-68961905D01*
X287921726Y-68161905D02*
X288302679Y-68161905D01*
X288340774Y-68542857D01*
X288302679Y-68504762D01*
X288226488Y-68466667D01*
X288036012Y-68466667D01*
X287959822Y-68504762D01*
X287921726Y-68542857D01*
X287883631Y-68619048D01*
X287883631Y-68809524D01*
X287921726Y-68885714D01*
X287959822Y-68923810D01*
X288036012Y-68961905D01*
X288226488Y-68961905D01*
X288302679Y-68923810D01*
X288340774Y-68885714D01*
X287578869Y-68238095D02*
X287540774Y-68200000D01*
X287464583Y-68161905D01*
X287274107Y-68161905D01*
X287197917Y-68200000D01*
X287159821Y-68238095D01*
X287121726Y-68314286D01*
X287121726Y-68390476D01*
X287159821Y-68504762D01*
X287616964Y-68961905D01*
X287121726Y-68961905D01*
X293865179Y-88011905D02*
X293865179Y-87211905D01*
X293674703Y-87211905D01*
X293560417Y-87250000D01*
X293484226Y-87326190D01*
X293446131Y-87402381D01*
X293408036Y-87554762D01*
X293408036Y-87669048D01*
X293446131Y-87821429D01*
X293484226Y-87897619D01*
X293560417Y-87973810D01*
X293674703Y-88011905D01*
X293865179Y-88011905D01*
X292684226Y-87211905D02*
X293065179Y-87211905D01*
X293103274Y-87592857D01*
X293065179Y-87554762D01*
X292988988Y-87516667D01*
X292798512Y-87516667D01*
X292722322Y-87554762D01*
X292684226Y-87592857D01*
X292646131Y-87669048D01*
X292646131Y-87859524D01*
X292684226Y-87935714D01*
X292722322Y-87973810D01*
X292798512Y-88011905D01*
X292988988Y-88011905D01*
X293065179Y-87973810D01*
X293103274Y-87935714D01*
X292379464Y-87211905D02*
X291884226Y-87211905D01*
X292150893Y-87516667D01*
X292036607Y-87516667D01*
X291960417Y-87554762D01*
X291922321Y-87592857D01*
X291884226Y-87669048D01*
X291884226Y-87859524D01*
X291922321Y-87935714D01*
X291960417Y-87973810D01*
X292036607Y-88011905D01*
X292265179Y-88011905D01*
X292341369Y-87973810D01*
X292379464Y-87935714D01*
X303390179Y-107061905D02*
X303390179Y-106261905D01*
X303199703Y-106261905D01*
X303085417Y-106300000D01*
X303009226Y-106376190D01*
X302971131Y-106452381D01*
X302933036Y-106604762D01*
X302933036Y-106719048D01*
X302971131Y-106871429D01*
X303009226Y-106947619D01*
X303085417Y-107023810D01*
X303199703Y-107061905D01*
X303390179Y-107061905D01*
X302209226Y-106261905D02*
X302590179Y-106261905D01*
X302628274Y-106642857D01*
X302590179Y-106604762D01*
X302513988Y-106566667D01*
X302323512Y-106566667D01*
X302247322Y-106604762D01*
X302209226Y-106642857D01*
X302171131Y-106719048D01*
X302171131Y-106909524D01*
X302209226Y-106985714D01*
X302247322Y-107023810D01*
X302323512Y-107061905D01*
X302513988Y-107061905D01*
X302590179Y-107023810D01*
X302628274Y-106985714D01*
X301485417Y-106528571D02*
X301485417Y-107061905D01*
X301675893Y-106223810D02*
X301866369Y-106795238D01*
X301371131Y-106795238D01*
X279577679Y-126111905D02*
X279577679Y-125311905D01*
X279387203Y-125311905D01*
X279272917Y-125350000D01*
X279196726Y-125426190D01*
X279158631Y-125502381D01*
X279120536Y-125654762D01*
X279120536Y-125769048D01*
X279158631Y-125921429D01*
X279196726Y-125997619D01*
X279272917Y-126073810D01*
X279387203Y-126111905D01*
X279577679Y-126111905D01*
X278396726Y-125311905D02*
X278777679Y-125311905D01*
X278815774Y-125692857D01*
X278777679Y-125654762D01*
X278701488Y-125616667D01*
X278511012Y-125616667D01*
X278434822Y-125654762D01*
X278396726Y-125692857D01*
X278358631Y-125769048D01*
X278358631Y-125959524D01*
X278396726Y-126035714D01*
X278434822Y-126073810D01*
X278511012Y-126111905D01*
X278701488Y-126111905D01*
X278777679Y-126073810D01*
X278815774Y-126035714D01*
X277634821Y-125311905D02*
X278015774Y-125311905D01*
X278053869Y-125692857D01*
X278015774Y-125654762D01*
X277939583Y-125616667D01*
X277749107Y-125616667D01*
X277672917Y-125654762D01*
X277634821Y-125692857D01*
X277596726Y-125769048D01*
X277596726Y-125959524D01*
X277634821Y-126035714D01*
X277672917Y-126073810D01*
X277749107Y-126111905D01*
X277939583Y-126111905D01*
X278015774Y-126073810D01*
X278053869Y-126035714D01*
X298627679Y-49911905D02*
X298627679Y-49111905D01*
X298437203Y-49111905D01*
X298322917Y-49150000D01*
X298246726Y-49226190D01*
X298208631Y-49302381D01*
X298170536Y-49454762D01*
X298170536Y-49569048D01*
X298208631Y-49721429D01*
X298246726Y-49797619D01*
X298322917Y-49873810D01*
X298437203Y-49911905D01*
X298627679Y-49911905D01*
X297446726Y-49111905D02*
X297827679Y-49111905D01*
X297865774Y-49492857D01*
X297827679Y-49454762D01*
X297751488Y-49416667D01*
X297561012Y-49416667D01*
X297484822Y-49454762D01*
X297446726Y-49492857D01*
X297408631Y-49569048D01*
X297408631Y-49759524D01*
X297446726Y-49835714D01*
X297484822Y-49873810D01*
X297561012Y-49911905D01*
X297751488Y-49911905D01*
X297827679Y-49873810D01*
X297865774Y-49835714D01*
X296722917Y-49111905D02*
X296875298Y-49111905D01*
X296951488Y-49150000D01*
X296989583Y-49188095D01*
X297065774Y-49302381D01*
X297103869Y-49454762D01*
X297103869Y-49759524D01*
X297065774Y-49835714D01*
X297027679Y-49873810D01*
X296951488Y-49911905D01*
X296799107Y-49911905D01*
X296722917Y-49873810D01*
X296684821Y-49835714D01*
X296646726Y-49759524D01*
X296646726Y-49569048D01*
X296684821Y-49492857D01*
X296722917Y-49454762D01*
X296799107Y-49416667D01*
X296951488Y-49416667D01*
X297027679Y-49454762D01*
X297065774Y-49492857D01*
X297103869Y-49569048D01*
X308152679Y-68961905D02*
X308152679Y-68161905D01*
X307962203Y-68161905D01*
X307847917Y-68200000D01*
X307771726Y-68276190D01*
X307733631Y-68352381D01*
X307695536Y-68504762D01*
X307695536Y-68619048D01*
X307733631Y-68771429D01*
X307771726Y-68847619D01*
X307847917Y-68923810D01*
X307962203Y-68961905D01*
X308152679Y-68961905D01*
X306971726Y-68161905D02*
X307352679Y-68161905D01*
X307390774Y-68542857D01*
X307352679Y-68504762D01*
X307276488Y-68466667D01*
X307086012Y-68466667D01*
X307009822Y-68504762D01*
X306971726Y-68542857D01*
X306933631Y-68619048D01*
X306933631Y-68809524D01*
X306971726Y-68885714D01*
X307009822Y-68923810D01*
X307086012Y-68961905D01*
X307276488Y-68961905D01*
X307352679Y-68923810D01*
X307390774Y-68885714D01*
X306666964Y-68161905D02*
X306133631Y-68161905D01*
X306476488Y-68961905D01*
X312915179Y-88011905D02*
X312915179Y-87211905D01*
X312724703Y-87211905D01*
X312610417Y-87250000D01*
X312534226Y-87326190D01*
X312496131Y-87402381D01*
X312458036Y-87554762D01*
X312458036Y-87669048D01*
X312496131Y-87821429D01*
X312534226Y-87897619D01*
X312610417Y-87973810D01*
X312724703Y-88011905D01*
X312915179Y-88011905D01*
X311734226Y-87211905D02*
X312115179Y-87211905D01*
X312153274Y-87592857D01*
X312115179Y-87554762D01*
X312038988Y-87516667D01*
X311848512Y-87516667D01*
X311772322Y-87554762D01*
X311734226Y-87592857D01*
X311696131Y-87669048D01*
X311696131Y-87859524D01*
X311734226Y-87935714D01*
X311772322Y-87973810D01*
X311848512Y-88011905D01*
X312038988Y-88011905D01*
X312115179Y-87973810D01*
X312153274Y-87935714D01*
X311238988Y-87554762D02*
X311315179Y-87516667D01*
X311353274Y-87478571D01*
X311391369Y-87402381D01*
X311391369Y-87364286D01*
X311353274Y-87288095D01*
X311315179Y-87250000D01*
X311238988Y-87211905D01*
X311086607Y-87211905D01*
X311010417Y-87250000D01*
X310972321Y-87288095D01*
X310934226Y-87364286D01*
X310934226Y-87402381D01*
X310972321Y-87478571D01*
X311010417Y-87516667D01*
X311086607Y-87554762D01*
X311238988Y-87554762D01*
X311315179Y-87592857D01*
X311353274Y-87630952D01*
X311391369Y-87707143D01*
X311391369Y-87859524D01*
X311353274Y-87935714D01*
X311315179Y-87973810D01*
X311238988Y-88011905D01*
X311086607Y-88011905D01*
X311010417Y-87973810D01*
X310972321Y-87935714D01*
X310934226Y-87859524D01*
X310934226Y-87707143D01*
X310972321Y-87630952D01*
X311010417Y-87592857D01*
X311086607Y-87554762D01*
X298627679Y-126111905D02*
X298627679Y-125311905D01*
X298437203Y-125311905D01*
X298322917Y-125350000D01*
X298246726Y-125426190D01*
X298208631Y-125502381D01*
X298170536Y-125654762D01*
X298170536Y-125769048D01*
X298208631Y-125921429D01*
X298246726Y-125997619D01*
X298322917Y-126073810D01*
X298437203Y-126111905D01*
X298627679Y-126111905D01*
X297484822Y-125311905D02*
X297637203Y-125311905D01*
X297713393Y-125350000D01*
X297751488Y-125388095D01*
X297827679Y-125502381D01*
X297865774Y-125654762D01*
X297865774Y-125959524D01*
X297827679Y-126035714D01*
X297789584Y-126073810D01*
X297713393Y-126111905D01*
X297561012Y-126111905D01*
X297484822Y-126073810D01*
X297446726Y-126035714D01*
X297408631Y-125959524D01*
X297408631Y-125769048D01*
X297446726Y-125692857D01*
X297484822Y-125654762D01*
X297561012Y-125616667D01*
X297713393Y-125616667D01*
X297789584Y-125654762D01*
X297827679Y-125692857D01*
X297865774Y-125769048D01*
X296913393Y-125311905D02*
X296837202Y-125311905D01*
X296761012Y-125350000D01*
X296722917Y-125388095D01*
X296684821Y-125464286D01*
X296646726Y-125616667D01*
X296646726Y-125807143D01*
X296684821Y-125959524D01*
X296722917Y-126035714D01*
X296761012Y-126073810D01*
X296837202Y-126111905D01*
X296913393Y-126111905D01*
X296989583Y-126073810D01*
X297027679Y-126035714D01*
X297065774Y-125959524D01*
X297103869Y-125807143D01*
X297103869Y-125616667D01*
X297065774Y-125464286D01*
X297027679Y-125388095D01*
X296989583Y-125350000D01*
X296913393Y-125311905D01*
X317677679Y-49911905D02*
X317677679Y-49111905D01*
X317487203Y-49111905D01*
X317372917Y-49150000D01*
X317296726Y-49226190D01*
X317258631Y-49302381D01*
X317220536Y-49454762D01*
X317220536Y-49569048D01*
X317258631Y-49721429D01*
X317296726Y-49797619D01*
X317372917Y-49873810D01*
X317487203Y-49911905D01*
X317677679Y-49911905D01*
X316534822Y-49111905D02*
X316687203Y-49111905D01*
X316763393Y-49150000D01*
X316801488Y-49188095D01*
X316877679Y-49302381D01*
X316915774Y-49454762D01*
X316915774Y-49759524D01*
X316877679Y-49835714D01*
X316839584Y-49873810D01*
X316763393Y-49911905D01*
X316611012Y-49911905D01*
X316534822Y-49873810D01*
X316496726Y-49835714D01*
X316458631Y-49759524D01*
X316458631Y-49569048D01*
X316496726Y-49492857D01*
X316534822Y-49454762D01*
X316611012Y-49416667D01*
X316763393Y-49416667D01*
X316839584Y-49454762D01*
X316877679Y-49492857D01*
X316915774Y-49569048D01*
X315696726Y-49911905D02*
X316153869Y-49911905D01*
X315925298Y-49911905D02*
X315925298Y-49111905D01*
X316001488Y-49226190D01*
X316077679Y-49302381D01*
X316153869Y-49340476D01*
X327202679Y-68961905D02*
X327202679Y-68161905D01*
X327012203Y-68161905D01*
X326897917Y-68200000D01*
X326821726Y-68276190D01*
X326783631Y-68352381D01*
X326745536Y-68504762D01*
X326745536Y-68619048D01*
X326783631Y-68771429D01*
X326821726Y-68847619D01*
X326897917Y-68923810D01*
X327012203Y-68961905D01*
X327202679Y-68961905D01*
X326059822Y-68161905D02*
X326212203Y-68161905D01*
X326288393Y-68200000D01*
X326326488Y-68238095D01*
X326402679Y-68352381D01*
X326440774Y-68504762D01*
X326440774Y-68809524D01*
X326402679Y-68885714D01*
X326364584Y-68923810D01*
X326288393Y-68961905D01*
X326136012Y-68961905D01*
X326059822Y-68923810D01*
X326021726Y-68885714D01*
X325983631Y-68809524D01*
X325983631Y-68619048D01*
X326021726Y-68542857D01*
X326059822Y-68504762D01*
X326136012Y-68466667D01*
X326288393Y-68466667D01*
X326364584Y-68504762D01*
X326402679Y-68542857D01*
X326440774Y-68619048D01*
X325678869Y-68238095D02*
X325640774Y-68200000D01*
X325564583Y-68161905D01*
X325374107Y-68161905D01*
X325297917Y-68200000D01*
X325259821Y-68238095D01*
X325221726Y-68314286D01*
X325221726Y-68390476D01*
X325259821Y-68504762D01*
X325716964Y-68961905D01*
X325221726Y-68961905D01*
X343871429Y-88011905D02*
X343871429Y-87211905D01*
X343680953Y-87211905D01*
X343566667Y-87250000D01*
X343490476Y-87326190D01*
X343452381Y-87402381D01*
X343414286Y-87554762D01*
X343414286Y-87669048D01*
X343452381Y-87821429D01*
X343490476Y-87897619D01*
X343566667Y-87973810D01*
X343680953Y-88011905D01*
X343871429Y-88011905D01*
X342728572Y-87211905D02*
X342880953Y-87211905D01*
X342957143Y-87250000D01*
X342995238Y-87288095D01*
X343071429Y-87402381D01*
X343109524Y-87554762D01*
X343109524Y-87859524D01*
X343071429Y-87935714D01*
X343033334Y-87973810D01*
X342957143Y-88011905D01*
X342804762Y-88011905D01*
X342728572Y-87973810D01*
X342690476Y-87935714D01*
X342652381Y-87859524D01*
X342652381Y-87669048D01*
X342690476Y-87592857D01*
X342728572Y-87554762D01*
X342804762Y-87516667D01*
X342957143Y-87516667D01*
X343033334Y-87554762D01*
X343071429Y-87592857D01*
X343109524Y-87669048D01*
X342385714Y-87211905D02*
X341890476Y-87211905D01*
X342157143Y-87516667D01*
X342042857Y-87516667D01*
X341966667Y-87554762D01*
X341928571Y-87592857D01*
X341890476Y-87669048D01*
X341890476Y-87859524D01*
X341928571Y-87935714D01*
X341966667Y-87973810D01*
X342042857Y-88011905D01*
X342271429Y-88011905D01*
X342347619Y-87973810D01*
X342385714Y-87935714D01*
X355777679Y-107061905D02*
X355777679Y-106261905D01*
X355587203Y-106261905D01*
X355472917Y-106300000D01*
X355396726Y-106376190D01*
X355358631Y-106452381D01*
X355320536Y-106604762D01*
X355320536Y-106719048D01*
X355358631Y-106871429D01*
X355396726Y-106947619D01*
X355472917Y-107023810D01*
X355587203Y-107061905D01*
X355777679Y-107061905D01*
X354634822Y-106261905D02*
X354787203Y-106261905D01*
X354863393Y-106300000D01*
X354901488Y-106338095D01*
X354977679Y-106452381D01*
X355015774Y-106604762D01*
X355015774Y-106909524D01*
X354977679Y-106985714D01*
X354939584Y-107023810D01*
X354863393Y-107061905D01*
X354711012Y-107061905D01*
X354634822Y-107023810D01*
X354596726Y-106985714D01*
X354558631Y-106909524D01*
X354558631Y-106719048D01*
X354596726Y-106642857D01*
X354634822Y-106604762D01*
X354711012Y-106566667D01*
X354863393Y-106566667D01*
X354939584Y-106604762D01*
X354977679Y-106642857D01*
X355015774Y-106719048D01*
X353872917Y-106528571D02*
X353872917Y-107061905D01*
X354063393Y-106223810D02*
X354253869Y-106795238D01*
X353758631Y-106795238D01*
X317677679Y-126111905D02*
X317677679Y-125311905D01*
X317487203Y-125311905D01*
X317372917Y-125350000D01*
X317296726Y-125426190D01*
X317258631Y-125502381D01*
X317220536Y-125654762D01*
X317220536Y-125769048D01*
X317258631Y-125921429D01*
X317296726Y-125997619D01*
X317372917Y-126073810D01*
X317487203Y-126111905D01*
X317677679Y-126111905D01*
X316534822Y-125311905D02*
X316687203Y-125311905D01*
X316763393Y-125350000D01*
X316801488Y-125388095D01*
X316877679Y-125502381D01*
X316915774Y-125654762D01*
X316915774Y-125959524D01*
X316877679Y-126035714D01*
X316839584Y-126073810D01*
X316763393Y-126111905D01*
X316611012Y-126111905D01*
X316534822Y-126073810D01*
X316496726Y-126035714D01*
X316458631Y-125959524D01*
X316458631Y-125769048D01*
X316496726Y-125692857D01*
X316534822Y-125654762D01*
X316611012Y-125616667D01*
X316763393Y-125616667D01*
X316839584Y-125654762D01*
X316877679Y-125692857D01*
X316915774Y-125769048D01*
X315734821Y-125311905D02*
X316115774Y-125311905D01*
X316153869Y-125692857D01*
X316115774Y-125654762D01*
X316039583Y-125616667D01*
X315849107Y-125616667D01*
X315772917Y-125654762D01*
X315734821Y-125692857D01*
X315696726Y-125769048D01*
X315696726Y-125959524D01*
X315734821Y-126035714D01*
X315772917Y-126073810D01*
X315849107Y-126111905D01*
X316039583Y-126111905D01*
X316115774Y-126073810D01*
X316153869Y-126035714D01*
X346252679Y-49911905D02*
X346252679Y-49111905D01*
X346062203Y-49111905D01*
X345947917Y-49150000D01*
X345871726Y-49226190D01*
X345833631Y-49302381D01*
X345795536Y-49454762D01*
X345795536Y-49569048D01*
X345833631Y-49721429D01*
X345871726Y-49797619D01*
X345947917Y-49873810D01*
X346062203Y-49911905D01*
X346252679Y-49911905D01*
X345109822Y-49111905D02*
X345262203Y-49111905D01*
X345338393Y-49150000D01*
X345376488Y-49188095D01*
X345452679Y-49302381D01*
X345490774Y-49454762D01*
X345490774Y-49759524D01*
X345452679Y-49835714D01*
X345414584Y-49873810D01*
X345338393Y-49911905D01*
X345186012Y-49911905D01*
X345109822Y-49873810D01*
X345071726Y-49835714D01*
X345033631Y-49759524D01*
X345033631Y-49569048D01*
X345071726Y-49492857D01*
X345109822Y-49454762D01*
X345186012Y-49416667D01*
X345338393Y-49416667D01*
X345414584Y-49454762D01*
X345452679Y-49492857D01*
X345490774Y-49569048D01*
X344347917Y-49111905D02*
X344500298Y-49111905D01*
X344576488Y-49150000D01*
X344614583Y-49188095D01*
X344690774Y-49302381D01*
X344728869Y-49454762D01*
X344728869Y-49759524D01*
X344690774Y-49835714D01*
X344652679Y-49873810D01*
X344576488Y-49911905D01*
X344424107Y-49911905D01*
X344347917Y-49873810D01*
X344309821Y-49835714D01*
X344271726Y-49759524D01*
X344271726Y-49569048D01*
X344309821Y-49492857D01*
X344347917Y-49454762D01*
X344424107Y-49416667D01*
X344576488Y-49416667D01*
X344652679Y-49454762D01*
X344690774Y-49492857D01*
X344728869Y-49569048D01*
X351015179Y-68961905D02*
X351015179Y-68161905D01*
X350824703Y-68161905D01*
X350710417Y-68200000D01*
X350634226Y-68276190D01*
X350596131Y-68352381D01*
X350558036Y-68504762D01*
X350558036Y-68619048D01*
X350596131Y-68771429D01*
X350634226Y-68847619D01*
X350710417Y-68923810D01*
X350824703Y-68961905D01*
X351015179Y-68961905D01*
X349872322Y-68161905D02*
X350024703Y-68161905D01*
X350100893Y-68200000D01*
X350138988Y-68238095D01*
X350215179Y-68352381D01*
X350253274Y-68504762D01*
X350253274Y-68809524D01*
X350215179Y-68885714D01*
X350177084Y-68923810D01*
X350100893Y-68961905D01*
X349948512Y-68961905D01*
X349872322Y-68923810D01*
X349834226Y-68885714D01*
X349796131Y-68809524D01*
X349796131Y-68619048D01*
X349834226Y-68542857D01*
X349872322Y-68504762D01*
X349948512Y-68466667D01*
X350100893Y-68466667D01*
X350177084Y-68504762D01*
X350215179Y-68542857D01*
X350253274Y-68619048D01*
X349529464Y-68161905D02*
X348996131Y-68161905D01*
X349338988Y-68961905D01*
X374827679Y-88011905D02*
X374827679Y-87211905D01*
X374637203Y-87211905D01*
X374522917Y-87250000D01*
X374446726Y-87326190D01*
X374408631Y-87402381D01*
X374370536Y-87554762D01*
X374370536Y-87669048D01*
X374408631Y-87821429D01*
X374446726Y-87897619D01*
X374522917Y-87973810D01*
X374637203Y-88011905D01*
X374827679Y-88011905D01*
X373684822Y-87211905D02*
X373837203Y-87211905D01*
X373913393Y-87250000D01*
X373951488Y-87288095D01*
X374027679Y-87402381D01*
X374065774Y-87554762D01*
X374065774Y-87859524D01*
X374027679Y-87935714D01*
X373989584Y-87973810D01*
X373913393Y-88011905D01*
X373761012Y-88011905D01*
X373684822Y-87973810D01*
X373646726Y-87935714D01*
X373608631Y-87859524D01*
X373608631Y-87669048D01*
X373646726Y-87592857D01*
X373684822Y-87554762D01*
X373761012Y-87516667D01*
X373913393Y-87516667D01*
X373989584Y-87554762D01*
X374027679Y-87592857D01*
X374065774Y-87669048D01*
X373151488Y-87554762D02*
X373227679Y-87516667D01*
X373265774Y-87478571D01*
X373303869Y-87402381D01*
X373303869Y-87364286D01*
X373265774Y-87288095D01*
X373227679Y-87250000D01*
X373151488Y-87211905D01*
X372999107Y-87211905D01*
X372922917Y-87250000D01*
X372884821Y-87288095D01*
X372846726Y-87364286D01*
X372846726Y-87402381D01*
X372884821Y-87478571D01*
X372922917Y-87516667D01*
X372999107Y-87554762D01*
X373151488Y-87554762D01*
X373227679Y-87592857D01*
X373265774Y-87630952D01*
X373303869Y-87707143D01*
X373303869Y-87859524D01*
X373265774Y-87935714D01*
X373227679Y-87973810D01*
X373151488Y-88011905D01*
X372999107Y-88011905D01*
X372922917Y-87973810D01*
X372884821Y-87935714D01*
X372846726Y-87859524D01*
X372846726Y-87707143D01*
X372884821Y-87630952D01*
X372922917Y-87592857D01*
X372999107Y-87554762D01*
X374827679Y-107061905D02*
X374827679Y-106261905D01*
X374637203Y-106261905D01*
X374522917Y-106300000D01*
X374446726Y-106376190D01*
X374408631Y-106452381D01*
X374370536Y-106604762D01*
X374370536Y-106719048D01*
X374408631Y-106871429D01*
X374446726Y-106947619D01*
X374522917Y-107023810D01*
X374637203Y-107061905D01*
X374827679Y-107061905D01*
X373684822Y-106261905D02*
X373837203Y-106261905D01*
X373913393Y-106300000D01*
X373951488Y-106338095D01*
X374027679Y-106452381D01*
X374065774Y-106604762D01*
X374065774Y-106909524D01*
X374027679Y-106985714D01*
X373989584Y-107023810D01*
X373913393Y-107061905D01*
X373761012Y-107061905D01*
X373684822Y-107023810D01*
X373646726Y-106985714D01*
X373608631Y-106909524D01*
X373608631Y-106719048D01*
X373646726Y-106642857D01*
X373684822Y-106604762D01*
X373761012Y-106566667D01*
X373913393Y-106566667D01*
X373989584Y-106604762D01*
X374027679Y-106642857D01*
X374065774Y-106719048D01*
X373227679Y-107061905D02*
X373075298Y-107061905D01*
X372999107Y-107023810D01*
X372961012Y-106985714D01*
X372884821Y-106871429D01*
X372846726Y-106719048D01*
X372846726Y-106414286D01*
X372884821Y-106338095D01*
X372922917Y-106300000D01*
X372999107Y-106261905D01*
X373151488Y-106261905D01*
X373227679Y-106300000D01*
X373265774Y-106338095D01*
X373303869Y-106414286D01*
X373303869Y-106604762D01*
X373265774Y-106680952D01*
X373227679Y-106719048D01*
X373151488Y-106757143D01*
X372999107Y-106757143D01*
X372922917Y-106719048D01*
X372884821Y-106680952D01*
X372846726Y-106604762D01*
X355777679Y-126111905D02*
X355777679Y-125311905D01*
X355587203Y-125311905D01*
X355472917Y-125350000D01*
X355396726Y-125426190D01*
X355358631Y-125502381D01*
X355320536Y-125654762D01*
X355320536Y-125769048D01*
X355358631Y-125921429D01*
X355396726Y-125997619D01*
X355472917Y-126073810D01*
X355587203Y-126111905D01*
X355777679Y-126111905D01*
X355053869Y-125311905D02*
X354520536Y-125311905D01*
X354863393Y-126111905D01*
X354063393Y-125311905D02*
X353987202Y-125311905D01*
X353911012Y-125350000D01*
X353872917Y-125388095D01*
X353834821Y-125464286D01*
X353796726Y-125616667D01*
X353796726Y-125807143D01*
X353834821Y-125959524D01*
X353872917Y-126035714D01*
X353911012Y-126073810D01*
X353987202Y-126111905D01*
X354063393Y-126111905D01*
X354139583Y-126073810D01*
X354177679Y-126035714D01*
X354215774Y-125959524D01*
X354253869Y-125807143D01*
X354253869Y-125616667D01*
X354215774Y-125464286D01*
X354177679Y-125388095D01*
X354139583Y-125350000D01*
X354063393Y-125311905D01*
X374827679Y-49911905D02*
X374827679Y-49111905D01*
X374637203Y-49111905D01*
X374522917Y-49150000D01*
X374446726Y-49226190D01*
X374408631Y-49302381D01*
X374370536Y-49454762D01*
X374370536Y-49569048D01*
X374408631Y-49721429D01*
X374446726Y-49797619D01*
X374522917Y-49873810D01*
X374637203Y-49911905D01*
X374827679Y-49911905D01*
X374103869Y-49111905D02*
X373570536Y-49111905D01*
X373913393Y-49911905D01*
X372846726Y-49911905D02*
X373303869Y-49911905D01*
X373075298Y-49911905D02*
X373075298Y-49111905D01*
X373151488Y-49226190D01*
X373227679Y-49302381D01*
X373303869Y-49340476D01*
X374827679Y-68961905D02*
X374827679Y-68161905D01*
X374637203Y-68161905D01*
X374522917Y-68200000D01*
X374446726Y-68276190D01*
X374408631Y-68352381D01*
X374370536Y-68504762D01*
X374370536Y-68619048D01*
X374408631Y-68771429D01*
X374446726Y-68847619D01*
X374522917Y-68923810D01*
X374637203Y-68961905D01*
X374827679Y-68961905D01*
X374103869Y-68161905D02*
X373570536Y-68161905D01*
X373913393Y-68961905D01*
X373303869Y-68238095D02*
X373265774Y-68200000D01*
X373189583Y-68161905D01*
X372999107Y-68161905D01*
X372922917Y-68200000D01*
X372884821Y-68238095D01*
X372846726Y-68314286D01*
X372846726Y-68390476D01*
X372884821Y-68504762D01*
X373341964Y-68961905D01*
X372846726Y-68961905D01*
X374827679Y-126111905D02*
X374827679Y-125311905D01*
X374637203Y-125311905D01*
X374522917Y-125350000D01*
X374446726Y-125426190D01*
X374408631Y-125502381D01*
X374370536Y-125654762D01*
X374370536Y-125769048D01*
X374408631Y-125921429D01*
X374446726Y-125997619D01*
X374522917Y-126073810D01*
X374637203Y-126111905D01*
X374827679Y-126111905D01*
X374103869Y-125311905D02*
X373570536Y-125311905D01*
X373913393Y-126111905D01*
X372884821Y-125311905D02*
X373265774Y-125311905D01*
X373303869Y-125692857D01*
X373265774Y-125654762D01*
X373189583Y-125616667D01*
X372999107Y-125616667D01*
X372922917Y-125654762D01*
X372884821Y-125692857D01*
X372846726Y-125769048D01*
X372846726Y-125959524D01*
X372884821Y-126035714D01*
X372922917Y-126073810D01*
X372999107Y-126111905D01*
X373189583Y-126111905D01*
X373265774Y-126073810D01*
X373303869Y-126035714D01*
D13*
X88844345Y-47632881D02*
X88844345Y-46632881D01*
X88272916Y-47632881D02*
X88701488Y-47061452D01*
X88272916Y-46632881D02*
X88844345Y-47204310D01*
X87320535Y-47632881D02*
X87891964Y-47632881D01*
X87606250Y-47632881D02*
X87606250Y-46632881D01*
X87701488Y-46775738D01*
X87796726Y-46870976D01*
X87891964Y-46918595D01*
X93606845Y-66682881D02*
X93606845Y-65682881D01*
X93035416Y-66682881D02*
X93463988Y-66111452D01*
X93035416Y-65682881D02*
X93606845Y-66254310D01*
X92654464Y-65778119D02*
X92606845Y-65730500D01*
X92511607Y-65682881D01*
X92273511Y-65682881D01*
X92178273Y-65730500D01*
X92130654Y-65778119D01*
X92083035Y-65873357D01*
X92083035Y-65968595D01*
X92130654Y-66111452D01*
X92702083Y-66682881D01*
X92083035Y-66682881D01*
X95988095Y-85732881D02*
X95988095Y-84732881D01*
X95416666Y-85732881D02*
X95845238Y-85161452D01*
X95416666Y-84732881D02*
X95988095Y-85304310D01*
X95083333Y-84732881D02*
X94464285Y-84732881D01*
X94797619Y-85113833D01*
X94654761Y-85113833D01*
X94559523Y-85161452D01*
X94511904Y-85209071D01*
X94464285Y-85304310D01*
X94464285Y-85542405D01*
X94511904Y-85637643D01*
X94559523Y-85685262D01*
X94654761Y-85732881D01*
X94940476Y-85732881D01*
X95035714Y-85685262D01*
X95083333Y-85637643D01*
X100750595Y-104782881D02*
X100750595Y-103782881D01*
X100179166Y-104782881D02*
X100607738Y-104211452D01*
X100179166Y-103782881D02*
X100750595Y-104354310D01*
X99322023Y-104116214D02*
X99322023Y-104782881D01*
X99560119Y-103735262D02*
X99798214Y-104449548D01*
X99179166Y-104449548D01*
X91225595Y-123832881D02*
X91225595Y-122832881D01*
X90654166Y-123832881D02*
X91082738Y-123261452D01*
X90654166Y-122832881D02*
X91225595Y-123404310D01*
X89749404Y-122832881D02*
X90225595Y-122832881D01*
X90273214Y-123309071D01*
X90225595Y-123261452D01*
X90130357Y-123213833D01*
X89892261Y-123213833D01*
X89797023Y-123261452D01*
X89749404Y-123309071D01*
X89701785Y-123404310D01*
X89701785Y-123642405D01*
X89749404Y-123737643D01*
X89797023Y-123785262D01*
X89892261Y-123832881D01*
X90130357Y-123832881D01*
X90225595Y-123785262D01*
X90273214Y-123737643D01*
X117419345Y-66682881D02*
X117419345Y-65682881D01*
X116847916Y-66682881D02*
X117276488Y-66111452D01*
X116847916Y-65682881D02*
X117419345Y-66254310D01*
X116514583Y-65682881D02*
X115847916Y-65682881D01*
X116276488Y-66682881D01*
X122181845Y-85732881D02*
X122181845Y-84732881D01*
X121610416Y-85732881D02*
X122038988Y-85161452D01*
X121610416Y-84732881D02*
X122181845Y-85304310D01*
X121038988Y-85161452D02*
X121134226Y-85113833D01*
X121181845Y-85066214D01*
X121229464Y-84970976D01*
X121229464Y-84923357D01*
X121181845Y-84828119D01*
X121134226Y-84780500D01*
X121038988Y-84732881D01*
X120848511Y-84732881D01*
X120753273Y-84780500D01*
X120705654Y-84828119D01*
X120658035Y-84923357D01*
X120658035Y-84970976D01*
X120705654Y-85066214D01*
X120753273Y-85113833D01*
X120848511Y-85161452D01*
X121038988Y-85161452D01*
X121134226Y-85209071D01*
X121181845Y-85256690D01*
X121229464Y-85351929D01*
X121229464Y-85542405D01*
X121181845Y-85637643D01*
X121134226Y-85685262D01*
X121038988Y-85732881D01*
X120848511Y-85732881D01*
X120753273Y-85685262D01*
X120705654Y-85637643D01*
X120658035Y-85542405D01*
X120658035Y-85351929D01*
X120705654Y-85256690D01*
X120753273Y-85209071D01*
X120848511Y-85161452D01*
X131706845Y-104782881D02*
X131706845Y-103782881D01*
X131135416Y-104782881D02*
X131563988Y-104211452D01*
X131135416Y-103782881D02*
X131706845Y-104354310D01*
X130659226Y-104782881D02*
X130468750Y-104782881D01*
X130373511Y-104735262D01*
X130325892Y-104687643D01*
X130230654Y-104544786D01*
X130183035Y-104354310D01*
X130183035Y-103973357D01*
X130230654Y-103878119D01*
X130278273Y-103830500D01*
X130373511Y-103782881D01*
X130563988Y-103782881D01*
X130659226Y-103830500D01*
X130706845Y-103878119D01*
X130754464Y-103973357D01*
X130754464Y-104211452D01*
X130706845Y-104306690D01*
X130659226Y-104354310D01*
X130563988Y-104401929D01*
X130373511Y-104401929D01*
X130278273Y-104354310D01*
X130230654Y-104306690D01*
X130183035Y-104211452D01*
X115514286Y-123832881D02*
X115514286Y-122832881D01*
X114942857Y-123832881D02*
X115371429Y-123261452D01*
X114942857Y-122832881D02*
X115514286Y-123404310D01*
X113990476Y-123832881D02*
X114561905Y-123832881D01*
X114276191Y-123832881D02*
X114276191Y-122832881D01*
X114371429Y-122975738D01*
X114466667Y-123070976D01*
X114561905Y-123118595D01*
X113371429Y-122832881D02*
X113276190Y-122832881D01*
X113180952Y-122880500D01*
X113133333Y-122928119D01*
X113085714Y-123023357D01*
X113038095Y-123213833D01*
X113038095Y-123451929D01*
X113085714Y-123642405D01*
X113133333Y-123737643D01*
X113180952Y-123785262D01*
X113276190Y-123832881D01*
X113371429Y-123832881D01*
X113466667Y-123785262D01*
X113514286Y-123737643D01*
X113561905Y-123642405D01*
X113609524Y-123451929D01*
X113609524Y-123213833D01*
X113561905Y-123023357D01*
X113514286Y-122928119D01*
X113466667Y-122880500D01*
X113371429Y-122832881D01*
X139326786Y-123832881D02*
X139326786Y-122832881D01*
X138755357Y-123832881D02*
X139183929Y-123261452D01*
X138755357Y-122832881D02*
X139326786Y-123404310D01*
X137802976Y-123832881D02*
X138374405Y-123832881D01*
X138088691Y-123832881D02*
X138088691Y-122832881D01*
X138183929Y-122975738D01*
X138279167Y-123070976D01*
X138374405Y-123118595D01*
X136850595Y-123832881D02*
X137422024Y-123832881D01*
X137136310Y-123832881D02*
X137136310Y-122832881D01*
X137231548Y-122975738D01*
X137326786Y-123070976D01*
X137422024Y-123118595D01*
X127420536Y-47632881D02*
X127420536Y-46632881D01*
X126849107Y-47632881D02*
X127277679Y-47061452D01*
X126849107Y-46632881D02*
X127420536Y-47204310D01*
X125896726Y-47632881D02*
X126468155Y-47632881D01*
X126182441Y-47632881D02*
X126182441Y-46632881D01*
X126277679Y-46775738D01*
X126372917Y-46870976D01*
X126468155Y-46918595D01*
X125515774Y-46728119D02*
X125468155Y-46680500D01*
X125372917Y-46632881D01*
X125134821Y-46632881D01*
X125039583Y-46680500D01*
X124991964Y-46728119D01*
X124944345Y-46823357D01*
X124944345Y-46918595D01*
X124991964Y-47061452D01*
X125563393Y-47632881D01*
X124944345Y-47632881D01*
X136945536Y-66682881D02*
X136945536Y-65682881D01*
X136374107Y-66682881D02*
X136802679Y-66111452D01*
X136374107Y-65682881D02*
X136945536Y-66254310D01*
X135421726Y-66682881D02*
X135993155Y-66682881D01*
X135707441Y-66682881D02*
X135707441Y-65682881D01*
X135802679Y-65825738D01*
X135897917Y-65920976D01*
X135993155Y-65968595D01*
X135088393Y-65682881D02*
X134469345Y-65682881D01*
X134802679Y-66063833D01*
X134659821Y-66063833D01*
X134564583Y-66111452D01*
X134516964Y-66159071D01*
X134469345Y-66254310D01*
X134469345Y-66492405D01*
X134516964Y-66587643D01*
X134564583Y-66635262D01*
X134659821Y-66682881D01*
X134945536Y-66682881D01*
X135040774Y-66635262D01*
X135088393Y-66587643D01*
X141708036Y-85732881D02*
X141708036Y-84732881D01*
X141136607Y-85732881D02*
X141565179Y-85161452D01*
X141136607Y-84732881D02*
X141708036Y-85304310D01*
X140184226Y-85732881D02*
X140755655Y-85732881D01*
X140469941Y-85732881D02*
X140469941Y-84732881D01*
X140565179Y-84875738D01*
X140660417Y-84970976D01*
X140755655Y-85018595D01*
X139327083Y-85066214D02*
X139327083Y-85732881D01*
X139565179Y-84685262D02*
X139803274Y-85399548D01*
X139184226Y-85399548D01*
X151233036Y-104782881D02*
X151233036Y-103782881D01*
X150661607Y-104782881D02*
X151090179Y-104211452D01*
X150661607Y-103782881D02*
X151233036Y-104354310D01*
X149709226Y-104782881D02*
X150280655Y-104782881D01*
X149994941Y-104782881D02*
X149994941Y-103782881D01*
X150090179Y-103925738D01*
X150185417Y-104020976D01*
X150280655Y-104068595D01*
X148804464Y-103782881D02*
X149280655Y-103782881D01*
X149328274Y-104259071D01*
X149280655Y-104211452D01*
X149185417Y-104163833D01*
X148947321Y-104163833D01*
X148852083Y-104211452D01*
X148804464Y-104259071D01*
X148756845Y-104354310D01*
X148756845Y-104592405D01*
X148804464Y-104687643D01*
X148852083Y-104735262D01*
X148947321Y-104782881D01*
X149185417Y-104782881D01*
X149280655Y-104735262D01*
X149328274Y-104687643D01*
X146470536Y-47632881D02*
X146470536Y-46632881D01*
X145899107Y-47632881D02*
X146327679Y-47061452D01*
X145899107Y-46632881D02*
X146470536Y-47204310D01*
X144946726Y-47632881D02*
X145518155Y-47632881D01*
X145232441Y-47632881D02*
X145232441Y-46632881D01*
X145327679Y-46775738D01*
X145422917Y-46870976D01*
X145518155Y-46918595D01*
X144089583Y-46632881D02*
X144280060Y-46632881D01*
X144375298Y-46680500D01*
X144422917Y-46728119D01*
X144518155Y-46870976D01*
X144565774Y-47061452D01*
X144565774Y-47442405D01*
X144518155Y-47537643D01*
X144470536Y-47585262D01*
X144375298Y-47632881D01*
X144184821Y-47632881D01*
X144089583Y-47585262D01*
X144041964Y-47537643D01*
X143994345Y-47442405D01*
X143994345Y-47204310D01*
X144041964Y-47109071D01*
X144089583Y-47061452D01*
X144184821Y-47013833D01*
X144375298Y-47013833D01*
X144470536Y-47061452D01*
X144518155Y-47109071D01*
X144565774Y-47204310D01*
X155995536Y-66682881D02*
X155995536Y-65682881D01*
X155424107Y-66682881D02*
X155852679Y-66111452D01*
X155424107Y-65682881D02*
X155995536Y-66254310D01*
X154471726Y-66682881D02*
X155043155Y-66682881D01*
X154757441Y-66682881D02*
X154757441Y-65682881D01*
X154852679Y-65825738D01*
X154947917Y-65920976D01*
X155043155Y-65968595D01*
X154138393Y-65682881D02*
X153471726Y-65682881D01*
X153900298Y-66682881D01*
X160758036Y-85732881D02*
X160758036Y-84732881D01*
X160186607Y-85732881D02*
X160615179Y-85161452D01*
X160186607Y-84732881D02*
X160758036Y-85304310D01*
X159234226Y-85732881D02*
X159805655Y-85732881D01*
X159519941Y-85732881D02*
X159519941Y-84732881D01*
X159615179Y-84875738D01*
X159710417Y-84970976D01*
X159805655Y-85018595D01*
X158662798Y-85161452D02*
X158758036Y-85113833D01*
X158805655Y-85066214D01*
X158853274Y-84970976D01*
X158853274Y-84923357D01*
X158805655Y-84828119D01*
X158758036Y-84780500D01*
X158662798Y-84732881D01*
X158472321Y-84732881D01*
X158377083Y-84780500D01*
X158329464Y-84828119D01*
X158281845Y-84923357D01*
X158281845Y-84970976D01*
X158329464Y-85066214D01*
X158377083Y-85113833D01*
X158472321Y-85161452D01*
X158662798Y-85161452D01*
X158758036Y-85209071D01*
X158805655Y-85256690D01*
X158853274Y-85351929D01*
X158853274Y-85542405D01*
X158805655Y-85637643D01*
X158758036Y-85685262D01*
X158662798Y-85732881D01*
X158472321Y-85732881D01*
X158377083Y-85685262D01*
X158329464Y-85637643D01*
X158281845Y-85542405D01*
X158281845Y-85351929D01*
X158329464Y-85256690D01*
X158377083Y-85209071D01*
X158472321Y-85161452D01*
X170283036Y-104782881D02*
X170283036Y-103782881D01*
X169711607Y-104782881D02*
X170140179Y-104211452D01*
X169711607Y-103782881D02*
X170283036Y-104354310D01*
X168759226Y-104782881D02*
X169330655Y-104782881D01*
X169044941Y-104782881D02*
X169044941Y-103782881D01*
X169140179Y-103925738D01*
X169235417Y-104020976D01*
X169330655Y-104068595D01*
X168283036Y-104782881D02*
X168092560Y-104782881D01*
X167997321Y-104735262D01*
X167949702Y-104687643D01*
X167854464Y-104544786D01*
X167806845Y-104354310D01*
X167806845Y-103973357D01*
X167854464Y-103878119D01*
X167902083Y-103830500D01*
X167997321Y-103782881D01*
X168187798Y-103782881D01*
X168283036Y-103830500D01*
X168330655Y-103878119D01*
X168378274Y-103973357D01*
X168378274Y-104211452D01*
X168330655Y-104306690D01*
X168283036Y-104354310D01*
X168187798Y-104401929D01*
X167997321Y-104401929D01*
X167902083Y-104354310D01*
X167854464Y-104306690D01*
X167806845Y-104211452D01*
X165520536Y-47632881D02*
X165520536Y-46632881D01*
X164949107Y-47632881D02*
X165377679Y-47061452D01*
X164949107Y-46632881D02*
X165520536Y-47204310D01*
X164568155Y-46728119D02*
X164520536Y-46680500D01*
X164425298Y-46632881D01*
X164187202Y-46632881D01*
X164091964Y-46680500D01*
X164044345Y-46728119D01*
X163996726Y-46823357D01*
X163996726Y-46918595D01*
X164044345Y-47061452D01*
X164615774Y-47632881D01*
X163996726Y-47632881D01*
X163044345Y-47632881D02*
X163615774Y-47632881D01*
X163330060Y-47632881D02*
X163330060Y-46632881D01*
X163425298Y-46775738D01*
X163520536Y-46870976D01*
X163615774Y-46918595D01*
X175045536Y-66682881D02*
X175045536Y-65682881D01*
X174474107Y-66682881D02*
X174902679Y-66111452D01*
X174474107Y-65682881D02*
X175045536Y-66254310D01*
X174093155Y-65778119D02*
X174045536Y-65730500D01*
X173950298Y-65682881D01*
X173712202Y-65682881D01*
X173616964Y-65730500D01*
X173569345Y-65778119D01*
X173521726Y-65873357D01*
X173521726Y-65968595D01*
X173569345Y-66111452D01*
X174140774Y-66682881D01*
X173521726Y-66682881D01*
X173140774Y-65778119D02*
X173093155Y-65730500D01*
X172997917Y-65682881D01*
X172759821Y-65682881D01*
X172664583Y-65730500D01*
X172616964Y-65778119D01*
X172569345Y-65873357D01*
X172569345Y-65968595D01*
X172616964Y-66111452D01*
X173188393Y-66682881D01*
X172569345Y-66682881D01*
X179808036Y-85732881D02*
X179808036Y-84732881D01*
X179236607Y-85732881D02*
X179665179Y-85161452D01*
X179236607Y-84732881D02*
X179808036Y-85304310D01*
X178855655Y-84828119D02*
X178808036Y-84780500D01*
X178712798Y-84732881D01*
X178474702Y-84732881D01*
X178379464Y-84780500D01*
X178331845Y-84828119D01*
X178284226Y-84923357D01*
X178284226Y-85018595D01*
X178331845Y-85161452D01*
X178903274Y-85732881D01*
X178284226Y-85732881D01*
X177950893Y-84732881D02*
X177331845Y-84732881D01*
X177665179Y-85113833D01*
X177522321Y-85113833D01*
X177427083Y-85161452D01*
X177379464Y-85209071D01*
X177331845Y-85304310D01*
X177331845Y-85542405D01*
X177379464Y-85637643D01*
X177427083Y-85685262D01*
X177522321Y-85732881D01*
X177808036Y-85732881D01*
X177903274Y-85685262D01*
X177950893Y-85637643D01*
X189333036Y-104782881D02*
X189333036Y-103782881D01*
X188761607Y-104782881D02*
X189190179Y-104211452D01*
X188761607Y-103782881D02*
X189333036Y-104354310D01*
X188380655Y-103878119D02*
X188333036Y-103830500D01*
X188237798Y-103782881D01*
X187999702Y-103782881D01*
X187904464Y-103830500D01*
X187856845Y-103878119D01*
X187809226Y-103973357D01*
X187809226Y-104068595D01*
X187856845Y-104211452D01*
X188428274Y-104782881D01*
X187809226Y-104782881D01*
X186952083Y-104116214D02*
X186952083Y-104782881D01*
X187190179Y-103735262D02*
X187428274Y-104449548D01*
X186809226Y-104449548D01*
X184570536Y-47632881D02*
X184570536Y-46632881D01*
X183999107Y-47632881D02*
X184427679Y-47061452D01*
X183999107Y-46632881D02*
X184570536Y-47204310D01*
X183618155Y-46728119D02*
X183570536Y-46680500D01*
X183475298Y-46632881D01*
X183237202Y-46632881D01*
X183141964Y-46680500D01*
X183094345Y-46728119D01*
X183046726Y-46823357D01*
X183046726Y-46918595D01*
X183094345Y-47061452D01*
X183665774Y-47632881D01*
X183046726Y-47632881D01*
X182189583Y-46632881D02*
X182380060Y-46632881D01*
X182475298Y-46680500D01*
X182522917Y-46728119D01*
X182618155Y-46870976D01*
X182665774Y-47061452D01*
X182665774Y-47442405D01*
X182618155Y-47537643D01*
X182570536Y-47585262D01*
X182475298Y-47632881D01*
X182284821Y-47632881D01*
X182189583Y-47585262D01*
X182141964Y-47537643D01*
X182094345Y-47442405D01*
X182094345Y-47204310D01*
X182141964Y-47109071D01*
X182189583Y-47061452D01*
X182284821Y-47013833D01*
X182475298Y-47013833D01*
X182570536Y-47061452D01*
X182618155Y-47109071D01*
X182665774Y-47204310D01*
X194095536Y-66682881D02*
X194095536Y-65682881D01*
X193524107Y-66682881D02*
X193952679Y-66111452D01*
X193524107Y-65682881D02*
X194095536Y-66254310D01*
X193143155Y-65778119D02*
X193095536Y-65730500D01*
X193000298Y-65682881D01*
X192762202Y-65682881D01*
X192666964Y-65730500D01*
X192619345Y-65778119D01*
X192571726Y-65873357D01*
X192571726Y-65968595D01*
X192619345Y-66111452D01*
X193190774Y-66682881D01*
X192571726Y-66682881D01*
X192238393Y-65682881D02*
X191571726Y-65682881D01*
X192000298Y-66682881D01*
X198858036Y-85732881D02*
X198858036Y-84732881D01*
X198286607Y-85732881D02*
X198715179Y-85161452D01*
X198286607Y-84732881D02*
X198858036Y-85304310D01*
X197905655Y-84828119D02*
X197858036Y-84780500D01*
X197762798Y-84732881D01*
X197524702Y-84732881D01*
X197429464Y-84780500D01*
X197381845Y-84828119D01*
X197334226Y-84923357D01*
X197334226Y-85018595D01*
X197381845Y-85161452D01*
X197953274Y-85732881D01*
X197334226Y-85732881D01*
X196762798Y-85161452D02*
X196858036Y-85113833D01*
X196905655Y-85066214D01*
X196953274Y-84970976D01*
X196953274Y-84923357D01*
X196905655Y-84828119D01*
X196858036Y-84780500D01*
X196762798Y-84732881D01*
X196572321Y-84732881D01*
X196477083Y-84780500D01*
X196429464Y-84828119D01*
X196381845Y-84923357D01*
X196381845Y-84970976D01*
X196429464Y-85066214D01*
X196477083Y-85113833D01*
X196572321Y-85161452D01*
X196762798Y-85161452D01*
X196858036Y-85209071D01*
X196905655Y-85256690D01*
X196953274Y-85351929D01*
X196953274Y-85542405D01*
X196905655Y-85637643D01*
X196858036Y-85685262D01*
X196762798Y-85732881D01*
X196572321Y-85732881D01*
X196477083Y-85685262D01*
X196429464Y-85637643D01*
X196381845Y-85542405D01*
X196381845Y-85351929D01*
X196429464Y-85256690D01*
X196477083Y-85209071D01*
X196572321Y-85161452D01*
X208383036Y-104782881D02*
X208383036Y-103782881D01*
X207811607Y-104782881D02*
X208240179Y-104211452D01*
X207811607Y-103782881D02*
X208383036Y-104354310D01*
X207430655Y-103878119D02*
X207383036Y-103830500D01*
X207287798Y-103782881D01*
X207049702Y-103782881D01*
X206954464Y-103830500D01*
X206906845Y-103878119D01*
X206859226Y-103973357D01*
X206859226Y-104068595D01*
X206906845Y-104211452D01*
X207478274Y-104782881D01*
X206859226Y-104782881D01*
X206383036Y-104782881D02*
X206192560Y-104782881D01*
X206097321Y-104735262D01*
X206049702Y-104687643D01*
X205954464Y-104544786D01*
X205906845Y-104354310D01*
X205906845Y-103973357D01*
X205954464Y-103878119D01*
X206002083Y-103830500D01*
X206097321Y-103782881D01*
X206287798Y-103782881D01*
X206383036Y-103830500D01*
X206430655Y-103878119D01*
X206478274Y-103973357D01*
X206478274Y-104211452D01*
X206430655Y-104306690D01*
X206383036Y-104354310D01*
X206287798Y-104401929D01*
X206097321Y-104401929D01*
X206002083Y-104354310D01*
X205954464Y-104306690D01*
X205906845Y-104211452D01*
X203620536Y-47632881D02*
X203620536Y-46632881D01*
X203049107Y-47632881D02*
X203477679Y-47061452D01*
X203049107Y-46632881D02*
X203620536Y-47204310D01*
X202715774Y-46632881D02*
X202096726Y-46632881D01*
X202430060Y-47013833D01*
X202287202Y-47013833D01*
X202191964Y-47061452D01*
X202144345Y-47109071D01*
X202096726Y-47204310D01*
X202096726Y-47442405D01*
X202144345Y-47537643D01*
X202191964Y-47585262D01*
X202287202Y-47632881D01*
X202572917Y-47632881D01*
X202668155Y-47585262D01*
X202715774Y-47537643D01*
X201144345Y-47632881D02*
X201715774Y-47632881D01*
X201430060Y-47632881D02*
X201430060Y-46632881D01*
X201525298Y-46775738D01*
X201620536Y-46870976D01*
X201715774Y-46918595D01*
X213145536Y-66682881D02*
X213145536Y-65682881D01*
X212574107Y-66682881D02*
X213002679Y-66111452D01*
X212574107Y-65682881D02*
X213145536Y-66254310D01*
X212240774Y-65682881D02*
X211621726Y-65682881D01*
X211955060Y-66063833D01*
X211812202Y-66063833D01*
X211716964Y-66111452D01*
X211669345Y-66159071D01*
X211621726Y-66254310D01*
X211621726Y-66492405D01*
X211669345Y-66587643D01*
X211716964Y-66635262D01*
X211812202Y-66682881D01*
X212097917Y-66682881D01*
X212193155Y-66635262D01*
X212240774Y-66587643D01*
X211240774Y-65778119D02*
X211193155Y-65730500D01*
X211097917Y-65682881D01*
X210859821Y-65682881D01*
X210764583Y-65730500D01*
X210716964Y-65778119D01*
X210669345Y-65873357D01*
X210669345Y-65968595D01*
X210716964Y-66111452D01*
X211288393Y-66682881D01*
X210669345Y-66682881D01*
X217908036Y-85732881D02*
X217908036Y-84732881D01*
X217336607Y-85732881D02*
X217765179Y-85161452D01*
X217336607Y-84732881D02*
X217908036Y-85304310D01*
X217003274Y-84732881D02*
X216384226Y-84732881D01*
X216717560Y-85113833D01*
X216574702Y-85113833D01*
X216479464Y-85161452D01*
X216431845Y-85209071D01*
X216384226Y-85304310D01*
X216384226Y-85542405D01*
X216431845Y-85637643D01*
X216479464Y-85685262D01*
X216574702Y-85732881D01*
X216860417Y-85732881D01*
X216955655Y-85685262D01*
X217003274Y-85637643D01*
X216050893Y-84732881D02*
X215431845Y-84732881D01*
X215765179Y-85113833D01*
X215622321Y-85113833D01*
X215527083Y-85161452D01*
X215479464Y-85209071D01*
X215431845Y-85304310D01*
X215431845Y-85542405D01*
X215479464Y-85637643D01*
X215527083Y-85685262D01*
X215622321Y-85732881D01*
X215908036Y-85732881D01*
X216003274Y-85685262D01*
X216050893Y-85637643D01*
X227433036Y-104782881D02*
X227433036Y-103782881D01*
X226861607Y-104782881D02*
X227290179Y-104211452D01*
X226861607Y-103782881D02*
X227433036Y-104354310D01*
X226528274Y-103782881D02*
X225909226Y-103782881D01*
X226242560Y-104163833D01*
X226099702Y-104163833D01*
X226004464Y-104211452D01*
X225956845Y-104259071D01*
X225909226Y-104354310D01*
X225909226Y-104592405D01*
X225956845Y-104687643D01*
X226004464Y-104735262D01*
X226099702Y-104782881D01*
X226385417Y-104782881D01*
X226480655Y-104735262D01*
X226528274Y-104687643D01*
X225052083Y-104116214D02*
X225052083Y-104782881D01*
X225290179Y-103735262D02*
X225528274Y-104449548D01*
X224909226Y-104449548D01*
X210764286Y-123832881D02*
X210764286Y-122832881D01*
X210192857Y-123832881D02*
X210621429Y-123261452D01*
X210192857Y-122832881D02*
X210764286Y-123404310D01*
X209859524Y-122832881D02*
X209240476Y-122832881D01*
X209573810Y-123213833D01*
X209430952Y-123213833D01*
X209335714Y-123261452D01*
X209288095Y-123309071D01*
X209240476Y-123404310D01*
X209240476Y-123642405D01*
X209288095Y-123737643D01*
X209335714Y-123785262D01*
X209430952Y-123832881D01*
X209716667Y-123832881D01*
X209811905Y-123785262D01*
X209859524Y-123737643D01*
X208335714Y-122832881D02*
X208811905Y-122832881D01*
X208859524Y-123309071D01*
X208811905Y-123261452D01*
X208716667Y-123213833D01*
X208478571Y-123213833D01*
X208383333Y-123261452D01*
X208335714Y-123309071D01*
X208288095Y-123404310D01*
X208288095Y-123642405D01*
X208335714Y-123737643D01*
X208383333Y-123785262D01*
X208478571Y-123832881D01*
X208716667Y-123832881D01*
X208811905Y-123785262D01*
X208859524Y-123737643D01*
X222670536Y-47632881D02*
X222670536Y-46632881D01*
X222099107Y-47632881D02*
X222527679Y-47061452D01*
X222099107Y-46632881D02*
X222670536Y-47204310D01*
X221765774Y-46632881D02*
X221146726Y-46632881D01*
X221480060Y-47013833D01*
X221337202Y-47013833D01*
X221241964Y-47061452D01*
X221194345Y-47109071D01*
X221146726Y-47204310D01*
X221146726Y-47442405D01*
X221194345Y-47537643D01*
X221241964Y-47585262D01*
X221337202Y-47632881D01*
X221622917Y-47632881D01*
X221718155Y-47585262D01*
X221765774Y-47537643D01*
X220289583Y-46632881D02*
X220480060Y-46632881D01*
X220575298Y-46680500D01*
X220622917Y-46728119D01*
X220718155Y-46870976D01*
X220765774Y-47061452D01*
X220765774Y-47442405D01*
X220718155Y-47537643D01*
X220670536Y-47585262D01*
X220575298Y-47632881D01*
X220384821Y-47632881D01*
X220289583Y-47585262D01*
X220241964Y-47537643D01*
X220194345Y-47442405D01*
X220194345Y-47204310D01*
X220241964Y-47109071D01*
X220289583Y-47061452D01*
X220384821Y-47013833D01*
X220575298Y-47013833D01*
X220670536Y-47061452D01*
X220718155Y-47109071D01*
X220765774Y-47204310D01*
X232195536Y-66682881D02*
X232195536Y-65682881D01*
X231624107Y-66682881D02*
X232052679Y-66111452D01*
X231624107Y-65682881D02*
X232195536Y-66254310D01*
X231290774Y-65682881D02*
X230671726Y-65682881D01*
X231005060Y-66063833D01*
X230862202Y-66063833D01*
X230766964Y-66111452D01*
X230719345Y-66159071D01*
X230671726Y-66254310D01*
X230671726Y-66492405D01*
X230719345Y-66587643D01*
X230766964Y-66635262D01*
X230862202Y-66682881D01*
X231147917Y-66682881D01*
X231243155Y-66635262D01*
X231290774Y-66587643D01*
X230338393Y-65682881D02*
X229671726Y-65682881D01*
X230100298Y-66682881D01*
X236958036Y-85732881D02*
X236958036Y-84732881D01*
X236386607Y-85732881D02*
X236815179Y-85161452D01*
X236386607Y-84732881D02*
X236958036Y-85304310D01*
X236053274Y-84732881D02*
X235434226Y-84732881D01*
X235767560Y-85113833D01*
X235624702Y-85113833D01*
X235529464Y-85161452D01*
X235481845Y-85209071D01*
X235434226Y-85304310D01*
X235434226Y-85542405D01*
X235481845Y-85637643D01*
X235529464Y-85685262D01*
X235624702Y-85732881D01*
X235910417Y-85732881D01*
X236005655Y-85685262D01*
X236053274Y-85637643D01*
X234862798Y-85161452D02*
X234958036Y-85113833D01*
X235005655Y-85066214D01*
X235053274Y-84970976D01*
X235053274Y-84923357D01*
X235005655Y-84828119D01*
X234958036Y-84780500D01*
X234862798Y-84732881D01*
X234672321Y-84732881D01*
X234577083Y-84780500D01*
X234529464Y-84828119D01*
X234481845Y-84923357D01*
X234481845Y-84970976D01*
X234529464Y-85066214D01*
X234577083Y-85113833D01*
X234672321Y-85161452D01*
X234862798Y-85161452D01*
X234958036Y-85209071D01*
X235005655Y-85256690D01*
X235053274Y-85351929D01*
X235053274Y-85542405D01*
X235005655Y-85637643D01*
X234958036Y-85685262D01*
X234862798Y-85732881D01*
X234672321Y-85732881D01*
X234577083Y-85685262D01*
X234529464Y-85637643D01*
X234481845Y-85542405D01*
X234481845Y-85351929D01*
X234529464Y-85256690D01*
X234577083Y-85209071D01*
X234672321Y-85161452D01*
X246483036Y-104782881D02*
X246483036Y-103782881D01*
X245911607Y-104782881D02*
X246340179Y-104211452D01*
X245911607Y-103782881D02*
X246483036Y-104354310D01*
X245578274Y-103782881D02*
X244959226Y-103782881D01*
X245292560Y-104163833D01*
X245149702Y-104163833D01*
X245054464Y-104211452D01*
X245006845Y-104259071D01*
X244959226Y-104354310D01*
X244959226Y-104592405D01*
X245006845Y-104687643D01*
X245054464Y-104735262D01*
X245149702Y-104782881D01*
X245435417Y-104782881D01*
X245530655Y-104735262D01*
X245578274Y-104687643D01*
X244483036Y-104782881D02*
X244292560Y-104782881D01*
X244197321Y-104735262D01*
X244149702Y-104687643D01*
X244054464Y-104544786D01*
X244006845Y-104354310D01*
X244006845Y-103973357D01*
X244054464Y-103878119D01*
X244102083Y-103830500D01*
X244197321Y-103782881D01*
X244387798Y-103782881D01*
X244483036Y-103830500D01*
X244530655Y-103878119D01*
X244578274Y-103973357D01*
X244578274Y-104211452D01*
X244530655Y-104306690D01*
X244483036Y-104354310D01*
X244387798Y-104401929D01*
X244197321Y-104401929D01*
X244102083Y-104354310D01*
X244054464Y-104306690D01*
X244006845Y-104211452D01*
X241720536Y-47632881D02*
X241720536Y-46632881D01*
X241149107Y-47632881D02*
X241577679Y-47061452D01*
X241149107Y-46632881D02*
X241720536Y-47204310D01*
X240291964Y-46966214D02*
X240291964Y-47632881D01*
X240530060Y-46585262D02*
X240768155Y-47299548D01*
X240149107Y-47299548D01*
X239244345Y-47632881D02*
X239815774Y-47632881D01*
X239530060Y-47632881D02*
X239530060Y-46632881D01*
X239625298Y-46775738D01*
X239720536Y-46870976D01*
X239815774Y-46918595D01*
X251245536Y-66682881D02*
X251245536Y-65682881D01*
X250674107Y-66682881D02*
X251102679Y-66111452D01*
X250674107Y-65682881D02*
X251245536Y-66254310D01*
X249816964Y-66016214D02*
X249816964Y-66682881D01*
X250055060Y-65635262D02*
X250293155Y-66349548D01*
X249674107Y-66349548D01*
X249340774Y-65778119D02*
X249293155Y-65730500D01*
X249197917Y-65682881D01*
X248959821Y-65682881D01*
X248864583Y-65730500D01*
X248816964Y-65778119D01*
X248769345Y-65873357D01*
X248769345Y-65968595D01*
X248816964Y-66111452D01*
X249388393Y-66682881D01*
X248769345Y-66682881D01*
X256008036Y-85732881D02*
X256008036Y-84732881D01*
X255436607Y-85732881D02*
X255865179Y-85161452D01*
X255436607Y-84732881D02*
X256008036Y-85304310D01*
X254579464Y-85066214D02*
X254579464Y-85732881D01*
X254817560Y-84685262D02*
X255055655Y-85399548D01*
X254436607Y-85399548D01*
X254150893Y-84732881D02*
X253531845Y-84732881D01*
X253865179Y-85113833D01*
X253722321Y-85113833D01*
X253627083Y-85161452D01*
X253579464Y-85209071D01*
X253531845Y-85304310D01*
X253531845Y-85542405D01*
X253579464Y-85637643D01*
X253627083Y-85685262D01*
X253722321Y-85732881D01*
X254008036Y-85732881D01*
X254103274Y-85685262D01*
X254150893Y-85637643D01*
X265533036Y-104782881D02*
X265533036Y-103782881D01*
X264961607Y-104782881D02*
X265390179Y-104211452D01*
X264961607Y-103782881D02*
X265533036Y-104354310D01*
X264104464Y-104116214D02*
X264104464Y-104782881D01*
X264342560Y-103735262D02*
X264580655Y-104449548D01*
X263961607Y-104449548D01*
X263152083Y-104116214D02*
X263152083Y-104782881D01*
X263390179Y-103735262D02*
X263628274Y-104449548D01*
X263009226Y-104449548D01*
X260770536Y-47632881D02*
X260770536Y-46632881D01*
X260199107Y-47632881D02*
X260627679Y-47061452D01*
X260199107Y-46632881D02*
X260770536Y-47204310D01*
X259341964Y-46966214D02*
X259341964Y-47632881D01*
X259580060Y-46585262D02*
X259818155Y-47299548D01*
X259199107Y-47299548D01*
X258389583Y-46632881D02*
X258580060Y-46632881D01*
X258675298Y-46680500D01*
X258722917Y-46728119D01*
X258818155Y-46870976D01*
X258865774Y-47061452D01*
X258865774Y-47442405D01*
X258818155Y-47537643D01*
X258770536Y-47585262D01*
X258675298Y-47632881D01*
X258484821Y-47632881D01*
X258389583Y-47585262D01*
X258341964Y-47537643D01*
X258294345Y-47442405D01*
X258294345Y-47204310D01*
X258341964Y-47109071D01*
X258389583Y-47061452D01*
X258484821Y-47013833D01*
X258675298Y-47013833D01*
X258770536Y-47061452D01*
X258818155Y-47109071D01*
X258865774Y-47204310D01*
X270295536Y-66682881D02*
X270295536Y-65682881D01*
X269724107Y-66682881D02*
X270152679Y-66111452D01*
X269724107Y-65682881D02*
X270295536Y-66254310D01*
X268866964Y-66016214D02*
X268866964Y-66682881D01*
X269105060Y-65635262D02*
X269343155Y-66349548D01*
X268724107Y-66349548D01*
X268438393Y-65682881D02*
X267771726Y-65682881D01*
X268200298Y-66682881D01*
X275058036Y-85732881D02*
X275058036Y-84732881D01*
X274486607Y-85732881D02*
X274915179Y-85161452D01*
X274486607Y-84732881D02*
X275058036Y-85304310D01*
X273629464Y-85066214D02*
X273629464Y-85732881D01*
X273867560Y-84685262D02*
X274105655Y-85399548D01*
X273486607Y-85399548D01*
X272962798Y-85161452D02*
X273058036Y-85113833D01*
X273105655Y-85066214D01*
X273153274Y-84970976D01*
X273153274Y-84923357D01*
X273105655Y-84828119D01*
X273058036Y-84780500D01*
X272962798Y-84732881D01*
X272772321Y-84732881D01*
X272677083Y-84780500D01*
X272629464Y-84828119D01*
X272581845Y-84923357D01*
X272581845Y-84970976D01*
X272629464Y-85066214D01*
X272677083Y-85113833D01*
X272772321Y-85161452D01*
X272962798Y-85161452D01*
X273058036Y-85209071D01*
X273105655Y-85256690D01*
X273153274Y-85351929D01*
X273153274Y-85542405D01*
X273105655Y-85637643D01*
X273058036Y-85685262D01*
X272962798Y-85732881D01*
X272772321Y-85732881D01*
X272677083Y-85685262D01*
X272629464Y-85637643D01*
X272581845Y-85542405D01*
X272581845Y-85351929D01*
X272629464Y-85256690D01*
X272677083Y-85209071D01*
X272772321Y-85161452D01*
X284583036Y-104782881D02*
X284583036Y-103782881D01*
X284011607Y-104782881D02*
X284440179Y-104211452D01*
X284011607Y-103782881D02*
X284583036Y-104354310D01*
X283154464Y-104116214D02*
X283154464Y-104782881D01*
X283392560Y-103735262D02*
X283630655Y-104449548D01*
X283011607Y-104449548D01*
X282583036Y-104782881D02*
X282392560Y-104782881D01*
X282297321Y-104735262D01*
X282249702Y-104687643D01*
X282154464Y-104544786D01*
X282106845Y-104354310D01*
X282106845Y-103973357D01*
X282154464Y-103878119D01*
X282202083Y-103830500D01*
X282297321Y-103782881D01*
X282487798Y-103782881D01*
X282583036Y-103830500D01*
X282630655Y-103878119D01*
X282678274Y-103973357D01*
X282678274Y-104211452D01*
X282630655Y-104306690D01*
X282583036Y-104354310D01*
X282487798Y-104401929D01*
X282297321Y-104401929D01*
X282202083Y-104354310D01*
X282154464Y-104306690D01*
X282106845Y-104211452D01*
X279820536Y-47632881D02*
X279820536Y-46632881D01*
X279249107Y-47632881D02*
X279677679Y-47061452D01*
X279249107Y-46632881D02*
X279820536Y-47204310D01*
X278344345Y-46632881D02*
X278820536Y-46632881D01*
X278868155Y-47109071D01*
X278820536Y-47061452D01*
X278725298Y-47013833D01*
X278487202Y-47013833D01*
X278391964Y-47061452D01*
X278344345Y-47109071D01*
X278296726Y-47204310D01*
X278296726Y-47442405D01*
X278344345Y-47537643D01*
X278391964Y-47585262D01*
X278487202Y-47632881D01*
X278725298Y-47632881D01*
X278820536Y-47585262D01*
X278868155Y-47537643D01*
X277344345Y-47632881D02*
X277915774Y-47632881D01*
X277630060Y-47632881D02*
X277630060Y-46632881D01*
X277725298Y-46775738D01*
X277820536Y-46870976D01*
X277915774Y-46918595D01*
X289345536Y-66682881D02*
X289345536Y-65682881D01*
X288774107Y-66682881D02*
X289202679Y-66111452D01*
X288774107Y-65682881D02*
X289345536Y-66254310D01*
X287869345Y-65682881D02*
X288345536Y-65682881D01*
X288393155Y-66159071D01*
X288345536Y-66111452D01*
X288250298Y-66063833D01*
X288012202Y-66063833D01*
X287916964Y-66111452D01*
X287869345Y-66159071D01*
X287821726Y-66254310D01*
X287821726Y-66492405D01*
X287869345Y-66587643D01*
X287916964Y-66635262D01*
X288012202Y-66682881D01*
X288250298Y-66682881D01*
X288345536Y-66635262D01*
X288393155Y-66587643D01*
X287440774Y-65778119D02*
X287393155Y-65730500D01*
X287297917Y-65682881D01*
X287059821Y-65682881D01*
X286964583Y-65730500D01*
X286916964Y-65778119D01*
X286869345Y-65873357D01*
X286869345Y-65968595D01*
X286916964Y-66111452D01*
X287488393Y-66682881D01*
X286869345Y-66682881D01*
X294108036Y-85732881D02*
X294108036Y-84732881D01*
X293536607Y-85732881D02*
X293965179Y-85161452D01*
X293536607Y-84732881D02*
X294108036Y-85304310D01*
X292631845Y-84732881D02*
X293108036Y-84732881D01*
X293155655Y-85209071D01*
X293108036Y-85161452D01*
X293012798Y-85113833D01*
X292774702Y-85113833D01*
X292679464Y-85161452D01*
X292631845Y-85209071D01*
X292584226Y-85304310D01*
X292584226Y-85542405D01*
X292631845Y-85637643D01*
X292679464Y-85685262D01*
X292774702Y-85732881D01*
X293012798Y-85732881D01*
X293108036Y-85685262D01*
X293155655Y-85637643D01*
X292250893Y-84732881D02*
X291631845Y-84732881D01*
X291965179Y-85113833D01*
X291822321Y-85113833D01*
X291727083Y-85161452D01*
X291679464Y-85209071D01*
X291631845Y-85304310D01*
X291631845Y-85542405D01*
X291679464Y-85637643D01*
X291727083Y-85685262D01*
X291822321Y-85732881D01*
X292108036Y-85732881D01*
X292203274Y-85685262D01*
X292250893Y-85637643D01*
X303633036Y-104782881D02*
X303633036Y-103782881D01*
X303061607Y-104782881D02*
X303490179Y-104211452D01*
X303061607Y-103782881D02*
X303633036Y-104354310D01*
X302156845Y-103782881D02*
X302633036Y-103782881D01*
X302680655Y-104259071D01*
X302633036Y-104211452D01*
X302537798Y-104163833D01*
X302299702Y-104163833D01*
X302204464Y-104211452D01*
X302156845Y-104259071D01*
X302109226Y-104354310D01*
X302109226Y-104592405D01*
X302156845Y-104687643D01*
X302204464Y-104735262D01*
X302299702Y-104782881D01*
X302537798Y-104782881D01*
X302633036Y-104735262D01*
X302680655Y-104687643D01*
X301252083Y-104116214D02*
X301252083Y-104782881D01*
X301490179Y-103735262D02*
X301728274Y-104449548D01*
X301109226Y-104449548D01*
X279820536Y-123832881D02*
X279820536Y-122832881D01*
X279249107Y-123832881D02*
X279677679Y-123261452D01*
X279249107Y-122832881D02*
X279820536Y-123404310D01*
X278344345Y-122832881D02*
X278820536Y-122832881D01*
X278868155Y-123309071D01*
X278820536Y-123261452D01*
X278725298Y-123213833D01*
X278487202Y-123213833D01*
X278391964Y-123261452D01*
X278344345Y-123309071D01*
X278296726Y-123404310D01*
X278296726Y-123642405D01*
X278344345Y-123737643D01*
X278391964Y-123785262D01*
X278487202Y-123832881D01*
X278725298Y-123832881D01*
X278820536Y-123785262D01*
X278868155Y-123737643D01*
X277391964Y-122832881D02*
X277868155Y-122832881D01*
X277915774Y-123309071D01*
X277868155Y-123261452D01*
X277772917Y-123213833D01*
X277534821Y-123213833D01*
X277439583Y-123261452D01*
X277391964Y-123309071D01*
X277344345Y-123404310D01*
X277344345Y-123642405D01*
X277391964Y-123737643D01*
X277439583Y-123785262D01*
X277534821Y-123832881D01*
X277772917Y-123832881D01*
X277868155Y-123785262D01*
X277915774Y-123737643D01*
X298870536Y-47632881D02*
X298870536Y-46632881D01*
X298299107Y-47632881D02*
X298727679Y-47061452D01*
X298299107Y-46632881D02*
X298870536Y-47204310D01*
X297394345Y-46632881D02*
X297870536Y-46632881D01*
X297918155Y-47109071D01*
X297870536Y-47061452D01*
X297775298Y-47013833D01*
X297537202Y-47013833D01*
X297441964Y-47061452D01*
X297394345Y-47109071D01*
X297346726Y-47204310D01*
X297346726Y-47442405D01*
X297394345Y-47537643D01*
X297441964Y-47585262D01*
X297537202Y-47632881D01*
X297775298Y-47632881D01*
X297870536Y-47585262D01*
X297918155Y-47537643D01*
X296489583Y-46632881D02*
X296680060Y-46632881D01*
X296775298Y-46680500D01*
X296822917Y-46728119D01*
X296918155Y-46870976D01*
X296965774Y-47061452D01*
X296965774Y-47442405D01*
X296918155Y-47537643D01*
X296870536Y-47585262D01*
X296775298Y-47632881D01*
X296584821Y-47632881D01*
X296489583Y-47585262D01*
X296441964Y-47537643D01*
X296394345Y-47442405D01*
X296394345Y-47204310D01*
X296441964Y-47109071D01*
X296489583Y-47061452D01*
X296584821Y-47013833D01*
X296775298Y-47013833D01*
X296870536Y-47061452D01*
X296918155Y-47109071D01*
X296965774Y-47204310D01*
X308395536Y-66682881D02*
X308395536Y-65682881D01*
X307824107Y-66682881D02*
X308252679Y-66111452D01*
X307824107Y-65682881D02*
X308395536Y-66254310D01*
X306919345Y-65682881D02*
X307395536Y-65682881D01*
X307443155Y-66159071D01*
X307395536Y-66111452D01*
X307300298Y-66063833D01*
X307062202Y-66063833D01*
X306966964Y-66111452D01*
X306919345Y-66159071D01*
X306871726Y-66254310D01*
X306871726Y-66492405D01*
X306919345Y-66587643D01*
X306966964Y-66635262D01*
X307062202Y-66682881D01*
X307300298Y-66682881D01*
X307395536Y-66635262D01*
X307443155Y-66587643D01*
X306538393Y-65682881D02*
X305871726Y-65682881D01*
X306300298Y-66682881D01*
X313158036Y-85732881D02*
X313158036Y-84732881D01*
X312586607Y-85732881D02*
X313015179Y-85161452D01*
X312586607Y-84732881D02*
X313158036Y-85304310D01*
X311681845Y-84732881D02*
X312158036Y-84732881D01*
X312205655Y-85209071D01*
X312158036Y-85161452D01*
X312062798Y-85113833D01*
X311824702Y-85113833D01*
X311729464Y-85161452D01*
X311681845Y-85209071D01*
X311634226Y-85304310D01*
X311634226Y-85542405D01*
X311681845Y-85637643D01*
X311729464Y-85685262D01*
X311824702Y-85732881D01*
X312062798Y-85732881D01*
X312158036Y-85685262D01*
X312205655Y-85637643D01*
X311062798Y-85161452D02*
X311158036Y-85113833D01*
X311205655Y-85066214D01*
X311253274Y-84970976D01*
X311253274Y-84923357D01*
X311205655Y-84828119D01*
X311158036Y-84780500D01*
X311062798Y-84732881D01*
X310872321Y-84732881D01*
X310777083Y-84780500D01*
X310729464Y-84828119D01*
X310681845Y-84923357D01*
X310681845Y-84970976D01*
X310729464Y-85066214D01*
X310777083Y-85113833D01*
X310872321Y-85161452D01*
X311062798Y-85161452D01*
X311158036Y-85209071D01*
X311205655Y-85256690D01*
X311253274Y-85351929D01*
X311253274Y-85542405D01*
X311205655Y-85637643D01*
X311158036Y-85685262D01*
X311062798Y-85732881D01*
X310872321Y-85732881D01*
X310777083Y-85685262D01*
X310729464Y-85637643D01*
X310681845Y-85542405D01*
X310681845Y-85351929D01*
X310729464Y-85256690D01*
X310777083Y-85209071D01*
X310872321Y-85161452D01*
X298870536Y-123832881D02*
X298870536Y-122832881D01*
X298299107Y-123832881D02*
X298727679Y-123261452D01*
X298299107Y-122832881D02*
X298870536Y-123404310D01*
X297441964Y-122832881D02*
X297632441Y-122832881D01*
X297727679Y-122880500D01*
X297775298Y-122928119D01*
X297870536Y-123070976D01*
X297918155Y-123261452D01*
X297918155Y-123642405D01*
X297870536Y-123737643D01*
X297822917Y-123785262D01*
X297727679Y-123832881D01*
X297537202Y-123832881D01*
X297441964Y-123785262D01*
X297394345Y-123737643D01*
X297346726Y-123642405D01*
X297346726Y-123404310D01*
X297394345Y-123309071D01*
X297441964Y-123261452D01*
X297537202Y-123213833D01*
X297727679Y-123213833D01*
X297822917Y-123261452D01*
X297870536Y-123309071D01*
X297918155Y-123404310D01*
X296727679Y-122832881D02*
X296632440Y-122832881D01*
X296537202Y-122880500D01*
X296489583Y-122928119D01*
X296441964Y-123023357D01*
X296394345Y-123213833D01*
X296394345Y-123451929D01*
X296441964Y-123642405D01*
X296489583Y-123737643D01*
X296537202Y-123785262D01*
X296632440Y-123832881D01*
X296727679Y-123832881D01*
X296822917Y-123785262D01*
X296870536Y-123737643D01*
X296918155Y-123642405D01*
X296965774Y-123451929D01*
X296965774Y-123213833D01*
X296918155Y-123023357D01*
X296870536Y-122928119D01*
X296822917Y-122880500D01*
X296727679Y-122832881D01*
X317920536Y-47632881D02*
X317920536Y-46632881D01*
X317349107Y-47632881D02*
X317777679Y-47061452D01*
X317349107Y-46632881D02*
X317920536Y-47204310D01*
X316491964Y-46632881D02*
X316682441Y-46632881D01*
X316777679Y-46680500D01*
X316825298Y-46728119D01*
X316920536Y-46870976D01*
X316968155Y-47061452D01*
X316968155Y-47442405D01*
X316920536Y-47537643D01*
X316872917Y-47585262D01*
X316777679Y-47632881D01*
X316587202Y-47632881D01*
X316491964Y-47585262D01*
X316444345Y-47537643D01*
X316396726Y-47442405D01*
X316396726Y-47204310D01*
X316444345Y-47109071D01*
X316491964Y-47061452D01*
X316587202Y-47013833D01*
X316777679Y-47013833D01*
X316872917Y-47061452D01*
X316920536Y-47109071D01*
X316968155Y-47204310D01*
X315444345Y-47632881D02*
X316015774Y-47632881D01*
X315730060Y-47632881D02*
X315730060Y-46632881D01*
X315825298Y-46775738D01*
X315920536Y-46870976D01*
X316015774Y-46918595D01*
X327445536Y-66682881D02*
X327445536Y-65682881D01*
X326874107Y-66682881D02*
X327302679Y-66111452D01*
X326874107Y-65682881D02*
X327445536Y-66254310D01*
X326016964Y-65682881D02*
X326207441Y-65682881D01*
X326302679Y-65730500D01*
X326350298Y-65778119D01*
X326445536Y-65920976D01*
X326493155Y-66111452D01*
X326493155Y-66492405D01*
X326445536Y-66587643D01*
X326397917Y-66635262D01*
X326302679Y-66682881D01*
X326112202Y-66682881D01*
X326016964Y-66635262D01*
X325969345Y-66587643D01*
X325921726Y-66492405D01*
X325921726Y-66254310D01*
X325969345Y-66159071D01*
X326016964Y-66111452D01*
X326112202Y-66063833D01*
X326302679Y-66063833D01*
X326397917Y-66111452D01*
X326445536Y-66159071D01*
X326493155Y-66254310D01*
X325540774Y-65778119D02*
X325493155Y-65730500D01*
X325397917Y-65682881D01*
X325159821Y-65682881D01*
X325064583Y-65730500D01*
X325016964Y-65778119D01*
X324969345Y-65873357D01*
X324969345Y-65968595D01*
X325016964Y-66111452D01*
X325588393Y-66682881D01*
X324969345Y-66682881D01*
X344114286Y-85732881D02*
X344114286Y-84732881D01*
X343542857Y-85732881D02*
X343971429Y-85161452D01*
X343542857Y-84732881D02*
X344114286Y-85304310D01*
X342685714Y-84732881D02*
X342876191Y-84732881D01*
X342971429Y-84780500D01*
X343019048Y-84828119D01*
X343114286Y-84970976D01*
X343161905Y-85161452D01*
X343161905Y-85542405D01*
X343114286Y-85637643D01*
X343066667Y-85685262D01*
X342971429Y-85732881D01*
X342780952Y-85732881D01*
X342685714Y-85685262D01*
X342638095Y-85637643D01*
X342590476Y-85542405D01*
X342590476Y-85304310D01*
X342638095Y-85209071D01*
X342685714Y-85161452D01*
X342780952Y-85113833D01*
X342971429Y-85113833D01*
X343066667Y-85161452D01*
X343114286Y-85209071D01*
X343161905Y-85304310D01*
X342257143Y-84732881D02*
X341638095Y-84732881D01*
X341971429Y-85113833D01*
X341828571Y-85113833D01*
X341733333Y-85161452D01*
X341685714Y-85209071D01*
X341638095Y-85304310D01*
X341638095Y-85542405D01*
X341685714Y-85637643D01*
X341733333Y-85685262D01*
X341828571Y-85732881D01*
X342114286Y-85732881D01*
X342209524Y-85685262D01*
X342257143Y-85637643D01*
X356020536Y-104782881D02*
X356020536Y-103782881D01*
X355449107Y-104782881D02*
X355877679Y-104211452D01*
X355449107Y-103782881D02*
X356020536Y-104354310D01*
X354591964Y-103782881D02*
X354782441Y-103782881D01*
X354877679Y-103830500D01*
X354925298Y-103878119D01*
X355020536Y-104020976D01*
X355068155Y-104211452D01*
X355068155Y-104592405D01*
X355020536Y-104687643D01*
X354972917Y-104735262D01*
X354877679Y-104782881D01*
X354687202Y-104782881D01*
X354591964Y-104735262D01*
X354544345Y-104687643D01*
X354496726Y-104592405D01*
X354496726Y-104354310D01*
X354544345Y-104259071D01*
X354591964Y-104211452D01*
X354687202Y-104163833D01*
X354877679Y-104163833D01*
X354972917Y-104211452D01*
X355020536Y-104259071D01*
X355068155Y-104354310D01*
X353639583Y-104116214D02*
X353639583Y-104782881D01*
X353877679Y-103735262D02*
X354115774Y-104449548D01*
X353496726Y-104449548D01*
X317920536Y-123832881D02*
X317920536Y-122832881D01*
X317349107Y-123832881D02*
X317777679Y-123261452D01*
X317349107Y-122832881D02*
X317920536Y-123404310D01*
X316491964Y-122832881D02*
X316682441Y-122832881D01*
X316777679Y-122880500D01*
X316825298Y-122928119D01*
X316920536Y-123070976D01*
X316968155Y-123261452D01*
X316968155Y-123642405D01*
X316920536Y-123737643D01*
X316872917Y-123785262D01*
X316777679Y-123832881D01*
X316587202Y-123832881D01*
X316491964Y-123785262D01*
X316444345Y-123737643D01*
X316396726Y-123642405D01*
X316396726Y-123404310D01*
X316444345Y-123309071D01*
X316491964Y-123261452D01*
X316587202Y-123213833D01*
X316777679Y-123213833D01*
X316872917Y-123261452D01*
X316920536Y-123309071D01*
X316968155Y-123404310D01*
X315491964Y-122832881D02*
X315968155Y-122832881D01*
X316015774Y-123309071D01*
X315968155Y-123261452D01*
X315872917Y-123213833D01*
X315634821Y-123213833D01*
X315539583Y-123261452D01*
X315491964Y-123309071D01*
X315444345Y-123404310D01*
X315444345Y-123642405D01*
X315491964Y-123737643D01*
X315539583Y-123785262D01*
X315634821Y-123832881D01*
X315872917Y-123832881D01*
X315968155Y-123785262D01*
X316015774Y-123737643D01*
X346495536Y-47632881D02*
X346495536Y-46632881D01*
X345924107Y-47632881D02*
X346352679Y-47061452D01*
X345924107Y-46632881D02*
X346495536Y-47204310D01*
X345066964Y-46632881D02*
X345257441Y-46632881D01*
X345352679Y-46680500D01*
X345400298Y-46728119D01*
X345495536Y-46870976D01*
X345543155Y-47061452D01*
X345543155Y-47442405D01*
X345495536Y-47537643D01*
X345447917Y-47585262D01*
X345352679Y-47632881D01*
X345162202Y-47632881D01*
X345066964Y-47585262D01*
X345019345Y-47537643D01*
X344971726Y-47442405D01*
X344971726Y-47204310D01*
X345019345Y-47109071D01*
X345066964Y-47061452D01*
X345162202Y-47013833D01*
X345352679Y-47013833D01*
X345447917Y-47061452D01*
X345495536Y-47109071D01*
X345543155Y-47204310D01*
X344114583Y-46632881D02*
X344305060Y-46632881D01*
X344400298Y-46680500D01*
X344447917Y-46728119D01*
X344543155Y-46870976D01*
X344590774Y-47061452D01*
X344590774Y-47442405D01*
X344543155Y-47537643D01*
X344495536Y-47585262D01*
X344400298Y-47632881D01*
X344209821Y-47632881D01*
X344114583Y-47585262D01*
X344066964Y-47537643D01*
X344019345Y-47442405D01*
X344019345Y-47204310D01*
X344066964Y-47109071D01*
X344114583Y-47061452D01*
X344209821Y-47013833D01*
X344400298Y-47013833D01*
X344495536Y-47061452D01*
X344543155Y-47109071D01*
X344590774Y-47204310D01*
X351258036Y-66682881D02*
X351258036Y-65682881D01*
X350686607Y-66682881D02*
X351115179Y-66111452D01*
X350686607Y-65682881D02*
X351258036Y-66254310D01*
X349829464Y-65682881D02*
X350019941Y-65682881D01*
X350115179Y-65730500D01*
X350162798Y-65778119D01*
X350258036Y-65920976D01*
X350305655Y-66111452D01*
X350305655Y-66492405D01*
X350258036Y-66587643D01*
X350210417Y-66635262D01*
X350115179Y-66682881D01*
X349924702Y-66682881D01*
X349829464Y-66635262D01*
X349781845Y-66587643D01*
X349734226Y-66492405D01*
X349734226Y-66254310D01*
X349781845Y-66159071D01*
X349829464Y-66111452D01*
X349924702Y-66063833D01*
X350115179Y-66063833D01*
X350210417Y-66111452D01*
X350258036Y-66159071D01*
X350305655Y-66254310D01*
X349400893Y-65682881D02*
X348734226Y-65682881D01*
X349162798Y-66682881D01*
X375070536Y-85732881D02*
X375070536Y-84732881D01*
X374499107Y-85732881D02*
X374927679Y-85161452D01*
X374499107Y-84732881D02*
X375070536Y-85304310D01*
X373641964Y-84732881D02*
X373832441Y-84732881D01*
X373927679Y-84780500D01*
X373975298Y-84828119D01*
X374070536Y-84970976D01*
X374118155Y-85161452D01*
X374118155Y-85542405D01*
X374070536Y-85637643D01*
X374022917Y-85685262D01*
X373927679Y-85732881D01*
X373737202Y-85732881D01*
X373641964Y-85685262D01*
X373594345Y-85637643D01*
X373546726Y-85542405D01*
X373546726Y-85304310D01*
X373594345Y-85209071D01*
X373641964Y-85161452D01*
X373737202Y-85113833D01*
X373927679Y-85113833D01*
X374022917Y-85161452D01*
X374070536Y-85209071D01*
X374118155Y-85304310D01*
X372975298Y-85161452D02*
X373070536Y-85113833D01*
X373118155Y-85066214D01*
X373165774Y-84970976D01*
X373165774Y-84923357D01*
X373118155Y-84828119D01*
X373070536Y-84780500D01*
X372975298Y-84732881D01*
X372784821Y-84732881D01*
X372689583Y-84780500D01*
X372641964Y-84828119D01*
X372594345Y-84923357D01*
X372594345Y-84970976D01*
X372641964Y-85066214D01*
X372689583Y-85113833D01*
X372784821Y-85161452D01*
X372975298Y-85161452D01*
X373070536Y-85209071D01*
X373118155Y-85256690D01*
X373165774Y-85351929D01*
X373165774Y-85542405D01*
X373118155Y-85637643D01*
X373070536Y-85685262D01*
X372975298Y-85732881D01*
X372784821Y-85732881D01*
X372689583Y-85685262D01*
X372641964Y-85637643D01*
X372594345Y-85542405D01*
X372594345Y-85351929D01*
X372641964Y-85256690D01*
X372689583Y-85209071D01*
X372784821Y-85161452D01*
X375070536Y-104782881D02*
X375070536Y-103782881D01*
X374499107Y-104782881D02*
X374927679Y-104211452D01*
X374499107Y-103782881D02*
X375070536Y-104354310D01*
X373641964Y-103782881D02*
X373832441Y-103782881D01*
X373927679Y-103830500D01*
X373975298Y-103878119D01*
X374070536Y-104020976D01*
X374118155Y-104211452D01*
X374118155Y-104592405D01*
X374070536Y-104687643D01*
X374022917Y-104735262D01*
X373927679Y-104782881D01*
X373737202Y-104782881D01*
X373641964Y-104735262D01*
X373594345Y-104687643D01*
X373546726Y-104592405D01*
X373546726Y-104354310D01*
X373594345Y-104259071D01*
X373641964Y-104211452D01*
X373737202Y-104163833D01*
X373927679Y-104163833D01*
X374022917Y-104211452D01*
X374070536Y-104259071D01*
X374118155Y-104354310D01*
X373070536Y-104782881D02*
X372880060Y-104782881D01*
X372784821Y-104735262D01*
X372737202Y-104687643D01*
X372641964Y-104544786D01*
X372594345Y-104354310D01*
X372594345Y-103973357D01*
X372641964Y-103878119D01*
X372689583Y-103830500D01*
X372784821Y-103782881D01*
X372975298Y-103782881D01*
X373070536Y-103830500D01*
X373118155Y-103878119D01*
X373165774Y-103973357D01*
X373165774Y-104211452D01*
X373118155Y-104306690D01*
X373070536Y-104354310D01*
X372975298Y-104401929D01*
X372784821Y-104401929D01*
X372689583Y-104354310D01*
X372641964Y-104306690D01*
X372594345Y-104211452D01*
X356020536Y-123832881D02*
X356020536Y-122832881D01*
X355449107Y-123832881D02*
X355877679Y-123261452D01*
X355449107Y-122832881D02*
X356020536Y-123404310D01*
X355115774Y-122832881D02*
X354449107Y-122832881D01*
X354877679Y-123832881D01*
X353877679Y-122832881D02*
X353782440Y-122832881D01*
X353687202Y-122880500D01*
X353639583Y-122928119D01*
X353591964Y-123023357D01*
X353544345Y-123213833D01*
X353544345Y-123451929D01*
X353591964Y-123642405D01*
X353639583Y-123737643D01*
X353687202Y-123785262D01*
X353782440Y-123832881D01*
X353877679Y-123832881D01*
X353972917Y-123785262D01*
X354020536Y-123737643D01*
X354068155Y-123642405D01*
X354115774Y-123451929D01*
X354115774Y-123213833D01*
X354068155Y-123023357D01*
X354020536Y-122928119D01*
X353972917Y-122880500D01*
X353877679Y-122832881D01*
X375070536Y-47632881D02*
X375070536Y-46632881D01*
X374499107Y-47632881D02*
X374927679Y-47061452D01*
X374499107Y-46632881D02*
X375070536Y-47204310D01*
X374165774Y-46632881D02*
X373499107Y-46632881D01*
X373927679Y-47632881D01*
X372594345Y-47632881D02*
X373165774Y-47632881D01*
X372880060Y-47632881D02*
X372880060Y-46632881D01*
X372975298Y-46775738D01*
X373070536Y-46870976D01*
X373165774Y-46918595D01*
X375070536Y-66682881D02*
X375070536Y-65682881D01*
X374499107Y-66682881D02*
X374927679Y-66111452D01*
X374499107Y-65682881D02*
X375070536Y-66254310D01*
X374165774Y-65682881D02*
X373499107Y-65682881D01*
X373927679Y-66682881D01*
X373165774Y-65778119D02*
X373118155Y-65730500D01*
X373022917Y-65682881D01*
X372784821Y-65682881D01*
X372689583Y-65730500D01*
X372641964Y-65778119D01*
X372594345Y-65873357D01*
X372594345Y-65968595D01*
X372641964Y-66111452D01*
X373213393Y-66682881D01*
X372594345Y-66682881D01*
X375070536Y-123832881D02*
X375070536Y-122832881D01*
X374499107Y-123832881D02*
X374927679Y-123261452D01*
X374499107Y-122832881D02*
X375070536Y-123404310D01*
X374165774Y-122832881D02*
X373499107Y-122832881D01*
X373927679Y-123832881D01*
X372641964Y-122832881D02*
X373118155Y-122832881D01*
X373165774Y-123309071D01*
X373118155Y-123261452D01*
X373022917Y-123213833D01*
X372784821Y-123213833D01*
X372689583Y-123261452D01*
X372641964Y-123309071D01*
X372594345Y-123404310D01*
X372594345Y-123642405D01*
X372641964Y-123737643D01*
X372689583Y-123785262D01*
X372784821Y-123832881D01*
X373022917Y-123832881D01*
X373118155Y-123785262D01*
X373165774Y-123737643D01*
D11*
X232416666Y-120252381D02*
X232750000Y-119776190D01*
X232988095Y-120252381D02*
X232988095Y-119252381D01*
X232607142Y-119252381D01*
X232511904Y-119300000D01*
X232464285Y-119347619D01*
X232416666Y-119442857D01*
X232416666Y-119585714D01*
X232464285Y-119680952D01*
X232511904Y-119728571D01*
X232607142Y-119776190D01*
X232988095Y-119776190D01*
X231464285Y-120252381D02*
X232035714Y-120252381D01*
X231750000Y-120252381D02*
X231750000Y-119252381D01*
X231845238Y-119395238D01*
X231940476Y-119490476D01*
X232035714Y-119538095D01*
X98902381Y-45833334D02*
X98426190Y-45500000D01*
X98902381Y-45261905D02*
X97902381Y-45261905D01*
X97902381Y-45642858D01*
X97950000Y-45738096D01*
X97997619Y-45785715D01*
X98092857Y-45833334D01*
X98235714Y-45833334D01*
X98330952Y-45785715D01*
X98378571Y-45738096D01*
X98426190Y-45642858D01*
X98426190Y-45261905D01*
X97997619Y-46214286D02*
X97950000Y-46261905D01*
X97902381Y-46357143D01*
X97902381Y-46595239D01*
X97950000Y-46690477D01*
X97997619Y-46738096D01*
X98092857Y-46785715D01*
X98188095Y-46785715D01*
X98330952Y-46738096D01*
X98902381Y-46166667D01*
X98902381Y-46785715D01*
X100902381Y-45833334D02*
X100426190Y-45500000D01*
X100902381Y-45261905D02*
X99902381Y-45261905D01*
X99902381Y-45642858D01*
X99950000Y-45738096D01*
X99997619Y-45785715D01*
X100092857Y-45833334D01*
X100235714Y-45833334D01*
X100330952Y-45785715D01*
X100378571Y-45738096D01*
X100426190Y-45642858D01*
X100426190Y-45261905D01*
X99902381Y-46166667D02*
X99902381Y-46785715D01*
X100283333Y-46452381D01*
X100283333Y-46595239D01*
X100330952Y-46690477D01*
X100378571Y-46738096D01*
X100473810Y-46785715D01*
X100711905Y-46785715D01*
X100807143Y-46738096D01*
X100854762Y-46690477D01*
X100902381Y-46595239D01*
X100902381Y-46309524D01*
X100854762Y-46214286D01*
X100807143Y-46166667D01*
X171166666Y-128902381D02*
X171500000Y-128426190D01*
X171738095Y-128902381D02*
X171738095Y-127902381D01*
X171357142Y-127902381D01*
X171261904Y-127950000D01*
X171214285Y-127997619D01*
X171166666Y-128092857D01*
X171166666Y-128235714D01*
X171214285Y-128330952D01*
X171261904Y-128378571D01*
X171357142Y-128426190D01*
X171738095Y-128426190D01*
X170309523Y-128235714D02*
X170309523Y-128902381D01*
X170547619Y-127854762D02*
X170785714Y-128569048D01*
X170166666Y-128569048D01*
X244404762Y-116916667D02*
X244452381Y-117059524D01*
X244452381Y-117297620D01*
X244404762Y-117392858D01*
X244357143Y-117440477D01*
X244261905Y-117488096D01*
X244166667Y-117488096D01*
X244071429Y-117440477D01*
X244023810Y-117392858D01*
X243976190Y-117297620D01*
X243928571Y-117107143D01*
X243880952Y-117011905D01*
X243833333Y-116964286D01*
X243738095Y-116916667D01*
X243642857Y-116916667D01*
X243547619Y-116964286D01*
X243500000Y-117011905D01*
X243452381Y-117107143D01*
X243452381Y-117345239D01*
X243500000Y-117488096D01*
X243452381Y-117821429D02*
X244452381Y-118059524D01*
X243738095Y-118250001D01*
X244452381Y-118440477D01*
X243452381Y-118678572D01*
X244452381Y-119583334D02*
X244452381Y-119011905D01*
X244452381Y-119297619D02*
X243452381Y-119297619D01*
X243595238Y-119202381D01*
X243690476Y-119107143D01*
X243738095Y-119011905D01*
X187397589Y-120560847D02*
X187060871Y-120897565D01*
X188003680Y-120426160D02*
X187397589Y-120560847D01*
X187532275Y-119954755D01*
X186219077Y-120055770D02*
X186623138Y-120459832D01*
X186421108Y-120257801D02*
X187128215Y-119550694D01*
X187094543Y-119719053D01*
X187094543Y-119853740D01*
X187128215Y-119954755D01*
X336727679Y-126111905D02*
X336727679Y-125311905D01*
X336537203Y-125311905D01*
X336422917Y-125350000D01*
X336346726Y-125426190D01*
X336308631Y-125502381D01*
X336270536Y-125654762D01*
X336270536Y-125769048D01*
X336308631Y-125921429D01*
X336346726Y-125997619D01*
X336422917Y-126073810D01*
X336537203Y-126111905D01*
X336727679Y-126111905D01*
X336003869Y-125311905D02*
X335470536Y-125311905D01*
X335813393Y-126111905D01*
X334822917Y-125578571D02*
X334822917Y-126111905D01*
X335013393Y-125273810D02*
X335203869Y-125845238D01*
X334708631Y-125845238D01*
D13*
X336970536Y-123832881D02*
X336970536Y-122832881D01*
X336399107Y-123832881D02*
X336827679Y-123261452D01*
X336399107Y-122832881D02*
X336970536Y-123404310D01*
X336065774Y-122832881D02*
X335399107Y-122832881D01*
X335827679Y-123832881D01*
X334589583Y-123166214D02*
X334589583Y-123832881D01*
X334827679Y-122785262D02*
X335065774Y-123499548D01*
X334446726Y-123499548D01*
D11*
X329583929Y-107061905D02*
X329583929Y-106261905D01*
X329393453Y-106261905D01*
X329279167Y-106300000D01*
X329202976Y-106376190D01*
X329164881Y-106452381D01*
X329126786Y-106604762D01*
X329126786Y-106719048D01*
X329164881Y-106871429D01*
X329202976Y-106947619D01*
X329279167Y-107023810D01*
X329393453Y-107061905D01*
X329583929Y-107061905D01*
X328402976Y-106261905D02*
X328783929Y-106261905D01*
X328822024Y-106642857D01*
X328783929Y-106604762D01*
X328707738Y-106566667D01*
X328517262Y-106566667D01*
X328441072Y-106604762D01*
X328402976Y-106642857D01*
X328364881Y-106719048D01*
X328364881Y-106909524D01*
X328402976Y-106985714D01*
X328441072Y-107023810D01*
X328517262Y-107061905D01*
X328707738Y-107061905D01*
X328783929Y-107023810D01*
X328822024Y-106985714D01*
X327983929Y-107061905D02*
X327831548Y-107061905D01*
X327755357Y-107023810D01*
X327717262Y-106985714D01*
X327641071Y-106871429D01*
X327602976Y-106719048D01*
X327602976Y-106414286D01*
X327641071Y-106338095D01*
X327679167Y-106300000D01*
X327755357Y-106261905D01*
X327907738Y-106261905D01*
X327983929Y-106300000D01*
X328022024Y-106338095D01*
X328060119Y-106414286D01*
X328060119Y-106604762D01*
X328022024Y-106680952D01*
X327983929Y-106719048D01*
X327907738Y-106757143D01*
X327755357Y-106757143D01*
X327679167Y-106719048D01*
X327641071Y-106680952D01*
X327602976Y-106604762D01*
D13*
X329826786Y-104782881D02*
X329826786Y-103782881D01*
X329255357Y-104782881D02*
X329683929Y-104211452D01*
X329255357Y-103782881D02*
X329826786Y-104354310D01*
X328350595Y-103782881D02*
X328826786Y-103782881D01*
X328874405Y-104259071D01*
X328826786Y-104211452D01*
X328731548Y-104163833D01*
X328493452Y-104163833D01*
X328398214Y-104211452D01*
X328350595Y-104259071D01*
X328302976Y-104354310D01*
X328302976Y-104592405D01*
X328350595Y-104687643D01*
X328398214Y-104735262D01*
X328493452Y-104782881D01*
X328731548Y-104782881D01*
X328826786Y-104735262D01*
X328874405Y-104687643D01*
X327826786Y-104782881D02*
X327636310Y-104782881D01*
X327541071Y-104735262D01*
X327493452Y-104687643D01*
X327398214Y-104544786D01*
X327350595Y-104354310D01*
X327350595Y-103973357D01*
X327398214Y-103878119D01*
X327445833Y-103830500D01*
X327541071Y-103782881D01*
X327731548Y-103782881D01*
X327826786Y-103830500D01*
X327874405Y-103878119D01*
X327922024Y-103973357D01*
X327922024Y-104211452D01*
X327874405Y-104306690D01*
X327826786Y-104354310D01*
X327731548Y-104401929D01*
X327541071Y-104401929D01*
X327445833Y-104354310D01*
X327398214Y-104306690D01*
X327350595Y-104211452D01*
M02*
