G04 #@! TF.FileFunction,Paste,Bot*
%FSLAX46Y46*%
G04 Gerber Fmt 4.6, Leading zero omitted, Abs format (unit mm)*
G04 Created by KiCad (PCBNEW 4.0.7) date 02/17/18 00:52:53*
%MOMM*%
%LPD*%
G01*
G04 APERTURE LIST*
%ADD10C,0.100000*%
%ADD11R,0.550000X1.500000*%
%ADD12R,1.500000X0.550000*%
%ADD13R,1.250000X1.500000*%
%ADD14R,1.500000X1.250000*%
%ADD15R,1.200000X1.200000*%
%ADD16R,2.350000X0.800000*%
%ADD17R,0.500000X1.400000*%
%ADD18O,1.500000X4.000000*%
%ADD19R,1.500000X1.300000*%
%ADD20R,1.300000X1.500000*%
%ADD21R,1.000000X1.700000*%
G04 APERTURE END LIST*
D10*
D11*
X173382500Y-112455000D03*
X174182500Y-112455000D03*
X174982500Y-112455000D03*
X175782500Y-112455000D03*
X176582500Y-112455000D03*
X177382500Y-112455000D03*
X178182500Y-112455000D03*
X178982500Y-112455000D03*
X179782500Y-112455000D03*
X180582500Y-112455000D03*
X181382500Y-112455000D03*
D12*
X183082500Y-114155000D03*
X183082500Y-114955000D03*
X183082500Y-115755000D03*
X183082500Y-116555000D03*
X183082500Y-117355000D03*
X183082500Y-118155000D03*
X183082500Y-118955000D03*
X183082500Y-119755000D03*
X183082500Y-120555000D03*
X183082500Y-121355000D03*
X183082500Y-122155000D03*
D11*
X181382500Y-123855000D03*
X180582500Y-123855000D03*
X179782500Y-123855000D03*
X178982500Y-123855000D03*
X178182500Y-123855000D03*
X177382500Y-123855000D03*
X176582500Y-123855000D03*
X175782500Y-123855000D03*
X174982500Y-123855000D03*
X174182500Y-123855000D03*
X173382500Y-123855000D03*
D12*
X171682500Y-122155000D03*
X171682500Y-121355000D03*
X171682500Y-120555000D03*
X171682500Y-119755000D03*
X171682500Y-118955000D03*
X171682500Y-118155000D03*
X171682500Y-117355000D03*
X171682500Y-116555000D03*
X171682500Y-115755000D03*
X171682500Y-114955000D03*
X171682500Y-114155000D03*
D13*
X185750000Y-113000000D03*
X185750000Y-110500000D03*
X168000000Y-124250000D03*
X168000000Y-121750000D03*
D14*
X180625000Y-126625000D03*
X183125000Y-126625000D03*
D13*
X168500000Y-111000000D03*
X168500000Y-113500000D03*
D14*
X173250000Y-109000000D03*
X170750000Y-109000000D03*
X188750000Y-123000000D03*
X191250000Y-123000000D03*
X191250000Y-113000000D03*
X188750000Y-113000000D03*
X178750000Y-109000000D03*
X181250000Y-109000000D03*
X165500000Y-115750000D03*
X168000000Y-115750000D03*
D15*
X86531250Y-47625000D03*
X89681250Y-47625000D03*
X91293750Y-66675000D03*
X94443750Y-66675000D03*
X93675000Y-85725000D03*
X96825000Y-85725000D03*
X98437500Y-104775000D03*
X101587500Y-104775000D03*
X88912500Y-123825000D03*
X92062500Y-123825000D03*
X105581250Y-47625000D03*
X108731250Y-47625000D03*
X115106250Y-66675000D03*
X118256250Y-66675000D03*
X119868750Y-85725000D03*
X123018750Y-85725000D03*
X129393750Y-104775000D03*
X132543750Y-104775000D03*
X112725000Y-123825000D03*
X115875000Y-123825000D03*
X136537500Y-123825000D03*
X139687500Y-123825000D03*
X124631250Y-47625000D03*
X127781250Y-47625000D03*
X134156250Y-66675000D03*
X137306250Y-66675000D03*
X138918750Y-85725000D03*
X142068750Y-85725000D03*
X148443750Y-104775000D03*
X151593750Y-104775000D03*
X143681250Y-47625000D03*
X146831250Y-47625000D03*
X153206250Y-66675000D03*
X156356250Y-66675000D03*
X157968750Y-85725000D03*
X161118750Y-85725000D03*
X167493750Y-104775000D03*
X170643750Y-104775000D03*
X162731250Y-47625000D03*
X165881250Y-47625000D03*
X172256250Y-66675000D03*
X175406250Y-66675000D03*
X177018750Y-85725000D03*
X180168750Y-85725000D03*
X186543750Y-104775000D03*
X189693750Y-104775000D03*
X181781250Y-47625000D03*
X184931250Y-47625000D03*
X191306250Y-66675000D03*
X194456250Y-66675000D03*
X196068750Y-85725000D03*
X199218750Y-85725000D03*
X205593750Y-104775000D03*
X208743750Y-104775000D03*
X200831250Y-47625000D03*
X203981250Y-47625000D03*
X210356250Y-66675000D03*
X213506250Y-66675000D03*
X215118750Y-85725000D03*
X218268750Y-85725000D03*
X224643750Y-104775000D03*
X227793750Y-104775000D03*
X207975000Y-123825000D03*
X211125000Y-123825000D03*
X219881250Y-47625000D03*
X223031250Y-47625000D03*
X229406250Y-66675000D03*
X232556250Y-66675000D03*
X234168750Y-85725000D03*
X237318750Y-85725000D03*
X243693750Y-104775000D03*
X246843750Y-104775000D03*
X238931250Y-47625000D03*
X242081250Y-47625000D03*
X248456250Y-66675000D03*
X251606250Y-66675000D03*
X253218750Y-85725000D03*
X256368750Y-85725000D03*
X262743750Y-104775000D03*
X265893750Y-104775000D03*
X257981250Y-47625000D03*
X261131250Y-47625000D03*
X267506250Y-66675000D03*
X270656250Y-66675000D03*
X272268750Y-85725000D03*
X275418750Y-85725000D03*
X281793750Y-104775000D03*
X284943750Y-104775000D03*
X277031250Y-47625000D03*
X280181250Y-47625000D03*
X286556250Y-66675000D03*
X289706250Y-66675000D03*
X291318750Y-85725000D03*
X294468750Y-85725000D03*
X300843750Y-104775000D03*
X303993750Y-104775000D03*
X277031250Y-123825000D03*
X280181250Y-123825000D03*
X296081250Y-47625000D03*
X299231250Y-47625000D03*
X305606250Y-66675000D03*
X308756250Y-66675000D03*
X310368750Y-85725000D03*
X313518750Y-85725000D03*
X296081250Y-123825000D03*
X299231250Y-123825000D03*
X315131250Y-47625000D03*
X318281250Y-47625000D03*
X324656250Y-66675000D03*
X327806250Y-66675000D03*
X341325000Y-85725000D03*
X344475000Y-85725000D03*
X353231250Y-104775000D03*
X356381250Y-104775000D03*
X315131250Y-123825000D03*
X318281250Y-123825000D03*
X343706250Y-47625000D03*
X346856250Y-47625000D03*
X348468750Y-66675000D03*
X351618750Y-66675000D03*
X372281250Y-85725000D03*
X375431250Y-85725000D03*
X372281250Y-104775000D03*
X375431250Y-104775000D03*
X353231250Y-123825000D03*
X356381250Y-123825000D03*
X372281250Y-47625000D03*
X375431250Y-47625000D03*
X372281250Y-66675000D03*
X375431250Y-66675000D03*
X372281250Y-123825000D03*
X375431250Y-123825000D03*
D16*
X100175000Y-33050000D03*
X94825000Y-33050000D03*
D17*
X95900000Y-38250000D03*
X96700000Y-38250000D03*
X97500000Y-38250000D03*
X98300000Y-38250000D03*
X99100000Y-38250000D03*
D18*
X93850000Y-35850000D03*
X101150000Y-35850000D03*
D19*
X233600000Y-121500000D03*
X230900000Y-121500000D03*
D20*
X104250000Y-65100000D03*
X104250000Y-62400000D03*
X107500000Y-65100000D03*
X107500000Y-62400000D03*
D19*
X169650000Y-126750000D03*
X172350000Y-126750000D03*
D21*
X242150000Y-121400000D03*
X242150000Y-115100000D03*
X238350000Y-121400000D03*
X238350000Y-115100000D03*
D10*
G36*
X187521332Y-116228134D02*
X188741091Y-115008375D01*
X190226016Y-116493300D01*
X189006257Y-117713059D01*
X187521332Y-116228134D01*
X187521332Y-116228134D01*
G37*
G36*
X189571941Y-118278743D02*
X190791700Y-117058984D01*
X192276625Y-118543909D01*
X191056866Y-119763668D01*
X189571941Y-118278743D01*
X189571941Y-118278743D01*
G37*
G36*
X188033984Y-119816700D02*
X189253743Y-118596941D01*
X190738668Y-120081866D01*
X189518909Y-121301625D01*
X188033984Y-119816700D01*
X188033984Y-119816700D01*
G37*
G36*
X185983375Y-117766091D02*
X187203134Y-116546332D01*
X188688059Y-118031257D01*
X187468300Y-119251016D01*
X185983375Y-117766091D01*
X185983375Y-117766091D01*
G37*
D15*
X334181250Y-123825000D03*
X337331250Y-123825000D03*
X327037500Y-104775000D03*
X330187500Y-104775000D03*
M02*
