G04 #@! TF.FileFunction,Soldermask,Bot*
%FSLAX46Y46*%
G04 Gerber Fmt 4.6, Leading zero omitted, Abs format (unit mm)*
G04 Created by KiCad (PCBNEW 4.0.7) date 01/28/18 20:53:29*
%MOMM*%
%LPD*%
G01*
G04 APERTURE LIST*
%ADD10C,0.100000*%
%ADD11R,0.950000X1.900000*%
%ADD12R,1.900000X0.950000*%
%ADD13C,2.900000*%
%ADD14R,1.650000X1.900000*%
%ADD15R,1.900000X1.650000*%
%ADD16R,1.600000X1.600000*%
%ADD17R,2.000000X2.000000*%
%ADD18C,2.000000*%
%ADD19R,2.750000X1.200000*%
%ADD20R,0.900000X1.800000*%
%ADD21O,1.900000X4.400000*%
%ADD22R,1.900000X1.700000*%
%ADD23R,1.700000X1.900000*%
%ADD24R,1.400000X2.100000*%
G04 APERTURE END LIST*
D10*
D11*
X173382500Y-112455000D03*
X174182500Y-112455000D03*
X174982500Y-112455000D03*
X175782500Y-112455000D03*
X176582500Y-112455000D03*
X177382500Y-112455000D03*
X178182500Y-112455000D03*
X178982500Y-112455000D03*
X179782500Y-112455000D03*
X180582500Y-112455000D03*
X181382500Y-112455000D03*
D12*
X183082500Y-114155000D03*
X183082500Y-114955000D03*
X183082500Y-115755000D03*
X183082500Y-116555000D03*
X183082500Y-117355000D03*
X183082500Y-118155000D03*
X183082500Y-118955000D03*
X183082500Y-119755000D03*
X183082500Y-120555000D03*
X183082500Y-121355000D03*
X183082500Y-122155000D03*
D11*
X181382500Y-123855000D03*
X180582500Y-123855000D03*
X179782500Y-123855000D03*
X178982500Y-123855000D03*
X178182500Y-123855000D03*
X177382500Y-123855000D03*
X176582500Y-123855000D03*
X175782500Y-123855000D03*
X174982500Y-123855000D03*
X174182500Y-123855000D03*
X173382500Y-123855000D03*
D12*
X171682500Y-122155000D03*
X171682500Y-121355000D03*
X171682500Y-120555000D03*
X171682500Y-119755000D03*
X171682500Y-118955000D03*
X171682500Y-118155000D03*
X171682500Y-117355000D03*
X171682500Y-116555000D03*
X171682500Y-115755000D03*
X171682500Y-114955000D03*
X171682500Y-114155000D03*
D13*
X104156703Y-38862546D02*
X103345797Y-40322454D01*
X109695974Y-37783172D02*
X109656526Y-38361828D01*
D14*
X185750000Y-113000000D03*
X185750000Y-110500000D03*
X168000000Y-124250000D03*
X168000000Y-121750000D03*
D15*
X180625000Y-126625000D03*
X183125000Y-126625000D03*
D14*
X168500000Y-111000000D03*
X168500000Y-113500000D03*
D15*
X173250000Y-109000000D03*
X170750000Y-109000000D03*
X188750000Y-123000000D03*
X191250000Y-123000000D03*
X191250000Y-113000000D03*
X188750000Y-113000000D03*
X178750000Y-109000000D03*
X181250000Y-109000000D03*
X165500000Y-115750000D03*
X168000000Y-115750000D03*
D16*
X86531250Y-47625000D03*
X89681250Y-47625000D03*
D17*
X92006250Y-47625000D03*
D18*
X84206250Y-47625000D03*
D16*
X91293750Y-66675000D03*
X94443750Y-66675000D03*
D17*
X96768750Y-66675000D03*
D18*
X88968750Y-66675000D03*
D16*
X93675000Y-85725000D03*
X96825000Y-85725000D03*
D17*
X99150000Y-85725000D03*
D18*
X91350000Y-85725000D03*
D16*
X98437500Y-104775000D03*
X101587500Y-104775000D03*
D17*
X103912500Y-104775000D03*
D18*
X96112500Y-104775000D03*
D16*
X88912500Y-123825000D03*
X92062500Y-123825000D03*
D17*
X94387500Y-123825000D03*
D18*
X86587500Y-123825000D03*
D16*
X105581250Y-47625000D03*
X108731250Y-47625000D03*
D17*
X111056250Y-47625000D03*
D18*
X103256250Y-47625000D03*
D16*
X115106250Y-66675000D03*
X118256250Y-66675000D03*
D17*
X120581250Y-66675000D03*
D18*
X112781250Y-66675000D03*
D16*
X119868750Y-85725000D03*
X123018750Y-85725000D03*
D17*
X125343750Y-85725000D03*
D18*
X117543750Y-85725000D03*
D16*
X129393750Y-104775000D03*
X132543750Y-104775000D03*
D17*
X134868750Y-104775000D03*
D18*
X127068750Y-104775000D03*
D16*
X112725000Y-123825000D03*
X115875000Y-123825000D03*
D17*
X118200000Y-123825000D03*
D18*
X110400000Y-123825000D03*
D16*
X136537500Y-123825000D03*
X139687500Y-123825000D03*
D17*
X142012500Y-123825000D03*
D18*
X134212500Y-123825000D03*
D16*
X124631250Y-47625000D03*
X127781250Y-47625000D03*
D17*
X130106250Y-47625000D03*
D18*
X122306250Y-47625000D03*
D16*
X134156250Y-66675000D03*
X137306250Y-66675000D03*
D17*
X139631250Y-66675000D03*
D18*
X131831250Y-66675000D03*
D16*
X138918750Y-85725000D03*
X142068750Y-85725000D03*
D17*
X144393750Y-85725000D03*
D18*
X136593750Y-85725000D03*
D16*
X148443750Y-104775000D03*
X151593750Y-104775000D03*
D17*
X153918750Y-104775000D03*
D18*
X146118750Y-104775000D03*
D16*
X143681250Y-47625000D03*
X146831250Y-47625000D03*
D17*
X149156250Y-47625000D03*
D18*
X141356250Y-47625000D03*
D16*
X153206250Y-66675000D03*
X156356250Y-66675000D03*
D17*
X158681250Y-66675000D03*
D18*
X150881250Y-66675000D03*
D16*
X157968750Y-85725000D03*
X161118750Y-85725000D03*
D17*
X163443750Y-85725000D03*
D18*
X155643750Y-85725000D03*
D16*
X167493750Y-104775000D03*
X170643750Y-104775000D03*
D17*
X172968750Y-104775000D03*
D18*
X165168750Y-104775000D03*
D16*
X162731250Y-47625000D03*
X165881250Y-47625000D03*
D17*
X168206250Y-47625000D03*
D18*
X160406250Y-47625000D03*
D16*
X172256250Y-66675000D03*
X175406250Y-66675000D03*
D17*
X177731250Y-66675000D03*
D18*
X169931250Y-66675000D03*
D16*
X177018750Y-85725000D03*
X180168750Y-85725000D03*
D17*
X182493750Y-85725000D03*
D18*
X174693750Y-85725000D03*
D16*
X186543750Y-104775000D03*
X189693750Y-104775000D03*
D17*
X192018750Y-104775000D03*
D18*
X184218750Y-104775000D03*
D16*
X181781250Y-47625000D03*
X184931250Y-47625000D03*
D17*
X187256250Y-47625000D03*
D18*
X179456250Y-47625000D03*
D16*
X191306250Y-66675000D03*
X194456250Y-66675000D03*
D17*
X196781250Y-66675000D03*
D18*
X188981250Y-66675000D03*
D16*
X196068750Y-85725000D03*
X199218750Y-85725000D03*
D17*
X201543750Y-85725000D03*
D18*
X193743750Y-85725000D03*
D16*
X205593750Y-104775000D03*
X208743750Y-104775000D03*
D17*
X211068750Y-104775000D03*
D18*
X203268750Y-104775000D03*
D16*
X200831250Y-47625000D03*
X203981250Y-47625000D03*
D17*
X206306250Y-47625000D03*
D18*
X198506250Y-47625000D03*
D16*
X210356250Y-66675000D03*
X213506250Y-66675000D03*
D17*
X215831250Y-66675000D03*
D18*
X208031250Y-66675000D03*
D16*
X215118750Y-85725000D03*
X218268750Y-85725000D03*
D17*
X220593750Y-85725000D03*
D18*
X212793750Y-85725000D03*
D16*
X224643750Y-104775000D03*
X227793750Y-104775000D03*
D17*
X230118750Y-104775000D03*
D18*
X222318750Y-104775000D03*
D16*
X207975000Y-123825000D03*
X211125000Y-123825000D03*
D17*
X213450000Y-123825000D03*
D18*
X205650000Y-123825000D03*
D16*
X219881250Y-47625000D03*
X223031250Y-47625000D03*
D17*
X225356250Y-47625000D03*
D18*
X217556250Y-47625000D03*
D16*
X229406250Y-66675000D03*
X232556250Y-66675000D03*
D17*
X234881250Y-66675000D03*
D18*
X227081250Y-66675000D03*
D16*
X234168750Y-85725000D03*
X237318750Y-85725000D03*
D17*
X239643750Y-85725000D03*
D18*
X231843750Y-85725000D03*
D16*
X243693750Y-104775000D03*
X246843750Y-104775000D03*
D17*
X249168750Y-104775000D03*
D18*
X241368750Y-104775000D03*
D16*
X238931250Y-47625000D03*
X242081250Y-47625000D03*
D17*
X244406250Y-47625000D03*
D18*
X236606250Y-47625000D03*
D16*
X248456250Y-66675000D03*
X251606250Y-66675000D03*
D17*
X253931250Y-66675000D03*
D18*
X246131250Y-66675000D03*
D16*
X253218750Y-85725000D03*
X256368750Y-85725000D03*
D17*
X258693750Y-85725000D03*
D18*
X250893750Y-85725000D03*
D16*
X262743750Y-104775000D03*
X265893750Y-104775000D03*
D17*
X268218750Y-104775000D03*
D18*
X260418750Y-104775000D03*
D16*
X257981250Y-47625000D03*
X261131250Y-47625000D03*
D17*
X263456250Y-47625000D03*
D18*
X255656250Y-47625000D03*
D16*
X267506250Y-66675000D03*
X270656250Y-66675000D03*
D17*
X272981250Y-66675000D03*
D18*
X265181250Y-66675000D03*
D16*
X272268750Y-85725000D03*
X275418750Y-85725000D03*
D17*
X277743750Y-85725000D03*
D18*
X269943750Y-85725000D03*
D16*
X281793750Y-104775000D03*
X284943750Y-104775000D03*
D17*
X287268750Y-104775000D03*
D18*
X279468750Y-104775000D03*
D16*
X277031250Y-47625000D03*
X280181250Y-47625000D03*
D17*
X282506250Y-47625000D03*
D18*
X274706250Y-47625000D03*
D16*
X286556250Y-66675000D03*
X289706250Y-66675000D03*
D17*
X292031250Y-66675000D03*
D18*
X284231250Y-66675000D03*
D16*
X291318750Y-85725000D03*
X294468750Y-85725000D03*
D17*
X296793750Y-85725000D03*
D18*
X288993750Y-85725000D03*
D16*
X300843750Y-104775000D03*
X303993750Y-104775000D03*
D17*
X306318750Y-104775000D03*
D18*
X298518750Y-104775000D03*
D16*
X277031250Y-123825000D03*
X280181250Y-123825000D03*
D17*
X282506250Y-123825000D03*
D18*
X274706250Y-123825000D03*
D16*
X296081250Y-47625000D03*
X299231250Y-47625000D03*
D17*
X301556250Y-47625000D03*
D18*
X293756250Y-47625000D03*
D16*
X305606250Y-66675000D03*
X308756250Y-66675000D03*
D17*
X311081250Y-66675000D03*
D18*
X303281250Y-66675000D03*
D16*
X310368750Y-85725000D03*
X313518750Y-85725000D03*
D17*
X315843750Y-85725000D03*
D18*
X308043750Y-85725000D03*
D16*
X296081250Y-123825000D03*
X299231250Y-123825000D03*
D17*
X301556250Y-123825000D03*
D18*
X293756250Y-123825000D03*
D16*
X315131250Y-47625000D03*
X318281250Y-47625000D03*
D17*
X320606250Y-47625000D03*
D18*
X312806250Y-47625000D03*
D16*
X324656250Y-66675000D03*
X327806250Y-66675000D03*
D17*
X330131250Y-66675000D03*
D18*
X322331250Y-66675000D03*
D16*
X341325000Y-85725000D03*
X344475000Y-85725000D03*
D17*
X346800000Y-85725000D03*
D18*
X339000000Y-85725000D03*
D16*
X353231250Y-104775000D03*
X356381250Y-104775000D03*
D17*
X358706250Y-104775000D03*
D18*
X350906250Y-104775000D03*
D16*
X315131250Y-123825000D03*
X318281250Y-123825000D03*
D17*
X320606250Y-123825000D03*
D18*
X312806250Y-123825000D03*
D16*
X343706250Y-47625000D03*
X346856250Y-47625000D03*
D17*
X349181250Y-47625000D03*
D18*
X341381250Y-47625000D03*
D16*
X348468750Y-66675000D03*
X351618750Y-66675000D03*
D17*
X353943750Y-66675000D03*
D18*
X346143750Y-66675000D03*
D16*
X372281250Y-85725000D03*
X375431250Y-85725000D03*
D17*
X377756250Y-85725000D03*
D18*
X369956250Y-85725000D03*
D16*
X372281250Y-104775000D03*
X375431250Y-104775000D03*
D17*
X377756250Y-104775000D03*
D18*
X369956250Y-104775000D03*
D16*
X353231250Y-123825000D03*
X356381250Y-123825000D03*
D17*
X358706250Y-123825000D03*
D18*
X350906250Y-123825000D03*
D16*
X372281250Y-47625000D03*
X375431250Y-47625000D03*
D17*
X377756250Y-47625000D03*
D18*
X369956250Y-47625000D03*
D16*
X372281250Y-66675000D03*
X375431250Y-66675000D03*
D17*
X377756250Y-66675000D03*
D18*
X369956250Y-66675000D03*
D16*
X372281250Y-123825000D03*
X375431250Y-123825000D03*
D17*
X377756250Y-123825000D03*
D18*
X369956250Y-123825000D03*
D19*
X100465000Y-32900000D03*
X95115000Y-32900000D03*
D20*
X96190000Y-38100000D03*
X96990000Y-38100000D03*
X97790000Y-38100000D03*
X98590000Y-38100000D03*
X99390000Y-38100000D03*
D21*
X94140000Y-35700000D03*
X101440000Y-35700000D03*
D13*
X85106703Y-38862546D02*
X84295797Y-40322454D01*
X90645974Y-37783172D02*
X90606526Y-38361828D01*
X89869203Y-57912546D02*
X89058297Y-59372454D01*
X95408474Y-56833172D02*
X95369026Y-57411828D01*
X92250453Y-76962546D02*
X91439547Y-78422454D01*
X97789724Y-75883172D02*
X97750276Y-76461828D01*
X97012953Y-96012546D02*
X96202047Y-97472454D01*
X102552224Y-94933172D02*
X102512776Y-95511828D01*
X87487953Y-115062546D02*
X86677047Y-116522454D01*
X93027224Y-113983172D02*
X92987776Y-114561828D01*
X113681703Y-57912546D02*
X112870797Y-59372454D01*
X119220974Y-56833172D02*
X119181526Y-57411828D01*
X118444203Y-76962546D02*
X117633297Y-78422454D01*
X123983474Y-75883172D02*
X123944026Y-76461828D01*
X127969203Y-96012546D02*
X127158297Y-97472454D01*
X133508474Y-94933172D02*
X133469026Y-95511828D01*
X111300453Y-115062546D02*
X110489547Y-116522454D01*
X116839724Y-113983172D02*
X116800276Y-114561828D01*
X135112953Y-115062546D02*
X134302047Y-116522454D01*
X140652224Y-113983172D02*
X140612776Y-114561828D01*
X123206703Y-38862546D02*
X122395797Y-40322454D01*
X128745974Y-37783172D02*
X128706526Y-38361828D01*
X132731703Y-57912546D02*
X131920797Y-59372454D01*
X138270974Y-56833172D02*
X138231526Y-57411828D01*
X137494203Y-76962546D02*
X136683297Y-78422454D01*
X143033474Y-75883172D02*
X142994026Y-76461828D01*
X147019203Y-96012546D02*
X146208297Y-97472454D01*
X152558474Y-94933172D02*
X152519026Y-95511828D01*
X142256703Y-38862546D02*
X141445797Y-40322454D01*
X147795974Y-37783172D02*
X147756526Y-38361828D01*
X151781703Y-57912546D02*
X150970797Y-59372454D01*
X157320974Y-56833172D02*
X157281526Y-57411828D01*
X156544203Y-76962546D02*
X155733297Y-78422454D01*
X162083474Y-75883172D02*
X162044026Y-76461828D01*
X166069203Y-96012546D02*
X165258297Y-97472454D01*
X171608474Y-94933172D02*
X171569026Y-95511828D01*
X161306703Y-38862546D02*
X160495797Y-40322454D01*
X166845974Y-37783172D02*
X166806526Y-38361828D01*
X170831703Y-57912546D02*
X170020797Y-59372454D01*
X176370974Y-56833172D02*
X176331526Y-57411828D01*
X175594203Y-76962546D02*
X174783297Y-78422454D01*
X181133474Y-75883172D02*
X181094026Y-76461828D01*
X185119203Y-96012546D02*
X184308297Y-97472454D01*
X190658474Y-94933172D02*
X190619026Y-95511828D01*
X180356703Y-38862546D02*
X179545797Y-40322454D01*
X185895974Y-37783172D02*
X185856526Y-38361828D01*
X189881703Y-57912546D02*
X189070797Y-59372454D01*
X195420974Y-56833172D02*
X195381526Y-57411828D01*
X194644203Y-76962546D02*
X193833297Y-78422454D01*
X200183474Y-75883172D02*
X200144026Y-76461828D01*
X204169203Y-96012546D02*
X203358297Y-97472454D01*
X209708474Y-94933172D02*
X209669026Y-95511828D01*
X199406703Y-38862546D02*
X198595797Y-40322454D01*
X204945974Y-37783172D02*
X204906526Y-38361828D01*
X208931703Y-57912546D02*
X208120797Y-59372454D01*
X214470974Y-56833172D02*
X214431526Y-57411828D01*
X213694203Y-76962546D02*
X212883297Y-78422454D01*
X219233474Y-75883172D02*
X219194026Y-76461828D01*
X223219203Y-96012546D02*
X222408297Y-97472454D01*
X228758474Y-94933172D02*
X228719026Y-95511828D01*
X206550453Y-115062546D02*
X205739547Y-116522454D01*
X212089724Y-113983172D02*
X212050276Y-114561828D01*
X218456703Y-38862546D02*
X217645797Y-40322454D01*
X223995974Y-37783172D02*
X223956526Y-38361828D01*
X227981703Y-57912546D02*
X227170797Y-59372454D01*
X233520974Y-56833172D02*
X233481526Y-57411828D01*
X232744203Y-76962546D02*
X231933297Y-78422454D01*
X238283474Y-75883172D02*
X238244026Y-76461828D01*
X242269203Y-96012546D02*
X241458297Y-97472454D01*
X247808474Y-94933172D02*
X247769026Y-95511828D01*
X237506703Y-38862546D02*
X236695797Y-40322454D01*
X243045974Y-37783172D02*
X243006526Y-38361828D01*
X247031703Y-57912546D02*
X246220797Y-59372454D01*
X252570974Y-56833172D02*
X252531526Y-57411828D01*
X251794203Y-76962546D02*
X250983297Y-78422454D01*
X257333474Y-75883172D02*
X257294026Y-76461828D01*
X261319203Y-96012546D02*
X260508297Y-97472454D01*
X266858474Y-94933172D02*
X266819026Y-95511828D01*
X256556703Y-38862546D02*
X255745797Y-40322454D01*
X262095974Y-37783172D02*
X262056526Y-38361828D01*
X266081703Y-57912546D02*
X265270797Y-59372454D01*
X271620974Y-56833172D02*
X271581526Y-57411828D01*
X270844203Y-76962546D02*
X270033297Y-78422454D01*
X276383474Y-75883172D02*
X276344026Y-76461828D01*
X280369203Y-96012546D02*
X279558297Y-97472454D01*
X285908474Y-94933172D02*
X285869026Y-95511828D01*
X275606703Y-38862546D02*
X274795797Y-40322454D01*
X281145974Y-37783172D02*
X281106526Y-38361828D01*
X285131703Y-57912546D02*
X284320797Y-59372454D01*
X290670974Y-56833172D02*
X290631526Y-57411828D01*
X289894203Y-76962546D02*
X289083297Y-78422454D01*
X295433474Y-75883172D02*
X295394026Y-76461828D01*
X299419203Y-96012546D02*
X298608297Y-97472454D01*
X304958474Y-94933172D02*
X304919026Y-95511828D01*
X275606703Y-115062546D02*
X274795797Y-116522454D01*
X281145974Y-113983172D02*
X281106526Y-114561828D01*
X294656703Y-38862546D02*
X293845797Y-40322454D01*
X300195974Y-37783172D02*
X300156526Y-38361828D01*
X304181703Y-57912546D02*
X303370797Y-59372454D01*
X309720974Y-56833172D02*
X309681526Y-57411828D01*
X308944203Y-76962546D02*
X308133297Y-78422454D01*
X314483474Y-75883172D02*
X314444026Y-76461828D01*
X294656703Y-115062546D02*
X293845797Y-116522454D01*
X300195974Y-113983172D02*
X300156526Y-114561828D01*
X313706703Y-38862546D02*
X312895797Y-40322454D01*
X319245974Y-37783172D02*
X319206526Y-38361828D01*
X323231703Y-57912546D02*
X322420797Y-59372454D01*
X328770974Y-56833172D02*
X328731526Y-57411828D01*
X339900453Y-76962546D02*
X339089547Y-78422454D01*
X345439724Y-75883172D02*
X345400276Y-76461828D01*
X351806703Y-96012546D02*
X350995797Y-97472454D01*
X357345974Y-94933172D02*
X357306526Y-95511828D01*
X313706703Y-115062546D02*
X312895797Y-116522454D01*
X319245974Y-113983172D02*
X319206526Y-114561828D01*
X342281703Y-38862546D02*
X341470797Y-40322454D01*
X347820974Y-37783172D02*
X347781526Y-38361828D01*
X347044203Y-57912546D02*
X346233297Y-59372454D01*
X352583474Y-56833172D02*
X352544026Y-57411828D01*
X370856703Y-76962546D02*
X370045797Y-78422454D01*
X376395974Y-75883172D02*
X376356526Y-76461828D01*
X370856703Y-96012546D02*
X370045797Y-97472454D01*
X376395974Y-94933172D02*
X376356526Y-95511828D01*
X351806703Y-115062546D02*
X350995797Y-116522454D01*
X357345974Y-113983172D02*
X357306526Y-114561828D01*
X370856703Y-38862546D02*
X370045797Y-40322454D01*
X376395974Y-37783172D02*
X376356526Y-38361828D01*
X370856703Y-57912546D02*
X370045797Y-59372454D01*
X376395974Y-56833172D02*
X376356526Y-57411828D01*
X370856703Y-115062546D02*
X370045797Y-116522454D01*
X376395974Y-113983172D02*
X376356526Y-114561828D01*
D22*
X233600000Y-121500000D03*
X230900000Y-121500000D03*
D23*
X96750000Y-47350000D03*
X96750000Y-44650000D03*
X98750000Y-47350000D03*
X98750000Y-44650000D03*
D22*
X169650000Y-126750000D03*
X172350000Y-126750000D03*
D24*
X242150000Y-121400000D03*
X242150000Y-115100000D03*
X238350000Y-121400000D03*
X238350000Y-115100000D03*
D10*
G36*
X187238490Y-116228134D02*
X188741091Y-114725533D01*
X190508858Y-116493300D01*
X189006257Y-117995901D01*
X187238490Y-116228134D01*
X187238490Y-116228134D01*
G37*
G36*
X189289099Y-118278743D02*
X190791700Y-116776142D01*
X192559467Y-118543909D01*
X191056866Y-120046510D01*
X189289099Y-118278743D01*
X189289099Y-118278743D01*
G37*
G36*
X187751142Y-119816700D02*
X189253743Y-118314099D01*
X191021510Y-120081866D01*
X189518909Y-121584467D01*
X187751142Y-119816700D01*
X187751142Y-119816700D01*
G37*
G36*
X185700533Y-117766091D02*
X187203134Y-116263490D01*
X188970901Y-118031257D01*
X187468300Y-119533858D01*
X185700533Y-117766091D01*
X185700533Y-117766091D01*
G37*
D16*
X334181250Y-123825000D03*
X337331250Y-123825000D03*
D17*
X339656250Y-123825000D03*
D18*
X331856250Y-123825000D03*
D13*
X332756703Y-115062546D02*
X331945797Y-116522454D01*
X338295974Y-113983172D02*
X338256526Y-114561828D01*
D16*
X327037500Y-104775000D03*
X330187500Y-104775000D03*
D17*
X332512500Y-104775000D03*
D18*
X324712500Y-104775000D03*
D13*
X325612953Y-96012546D02*
X324802047Y-97472454D01*
X331152224Y-94933172D02*
X331112776Y-95511828D01*
M02*
