G04 #@! TF.FileFunction,Legend,Top*
%FSLAX46Y46*%
G04 Gerber Fmt 4.6, Leading zero omitted, Abs format (unit mm)*
G04 Created by KiCad (PCBNEW 4.0.7) date 02/17/18 00:52:53*
%MOMM*%
%LPD*%
G01*
G04 APERTURE LIST*
%ADD10C,0.100000*%
%ADD11C,0.381000*%
%ADD12C,0.150000*%
G04 APERTURE END LIST*
D10*
D11*
X100806250Y-36512500D02*
X102584250Y-36512500D01*
X111728250Y-36512500D02*
X113506250Y-36512500D01*
X113506250Y-36512500D02*
X113506250Y-38290500D01*
X113506250Y-47434500D02*
X113506250Y-49212500D01*
X113506250Y-49212500D02*
X111728250Y-49212500D01*
X102584250Y-49212500D02*
X100806250Y-49212500D01*
X100806250Y-49212500D02*
X100806250Y-47434500D01*
X100806250Y-38290500D02*
X100806250Y-36512500D01*
X81756250Y-36512500D02*
X83534250Y-36512500D01*
X92678250Y-36512500D02*
X94456250Y-36512500D01*
X94456250Y-36512500D02*
X94456250Y-38290500D01*
X94456250Y-47434500D02*
X94456250Y-49212500D01*
X94456250Y-49212500D02*
X92678250Y-49212500D01*
X83534250Y-49212500D02*
X81756250Y-49212500D01*
X81756250Y-49212500D02*
X81756250Y-47434500D01*
X81756250Y-38290500D02*
X81756250Y-36512500D01*
X86518750Y-55562500D02*
X88296750Y-55562500D01*
X97440750Y-55562500D02*
X99218750Y-55562500D01*
X99218750Y-55562500D02*
X99218750Y-57340500D01*
X99218750Y-66484500D02*
X99218750Y-68262500D01*
X99218750Y-68262500D02*
X97440750Y-68262500D01*
X88296750Y-68262500D02*
X86518750Y-68262500D01*
X86518750Y-68262500D02*
X86518750Y-66484500D01*
X86518750Y-57340500D02*
X86518750Y-55562500D01*
X88900000Y-74612500D02*
X90678000Y-74612500D01*
X99822000Y-74612500D02*
X101600000Y-74612500D01*
X101600000Y-74612500D02*
X101600000Y-76390500D01*
X101600000Y-85534500D02*
X101600000Y-87312500D01*
X101600000Y-87312500D02*
X99822000Y-87312500D01*
X90678000Y-87312500D02*
X88900000Y-87312500D01*
X88900000Y-87312500D02*
X88900000Y-85534500D01*
X88900000Y-76390500D02*
X88900000Y-74612500D01*
X93662500Y-93662500D02*
X95440500Y-93662500D01*
X104584500Y-93662500D02*
X106362500Y-93662500D01*
X106362500Y-93662500D02*
X106362500Y-95440500D01*
X106362500Y-104584500D02*
X106362500Y-106362500D01*
X106362500Y-106362500D02*
X104584500Y-106362500D01*
X95440500Y-106362500D02*
X93662500Y-106362500D01*
X93662500Y-106362500D02*
X93662500Y-104584500D01*
X93662500Y-95440500D02*
X93662500Y-93662500D01*
X84137500Y-112712500D02*
X85915500Y-112712500D01*
X95059500Y-112712500D02*
X96837500Y-112712500D01*
X96837500Y-112712500D02*
X96837500Y-114490500D01*
X96837500Y-123634500D02*
X96837500Y-125412500D01*
X96837500Y-125412500D02*
X95059500Y-125412500D01*
X85915500Y-125412500D02*
X84137500Y-125412500D01*
X84137500Y-125412500D02*
X84137500Y-123634500D01*
X84137500Y-114490500D02*
X84137500Y-112712500D01*
X110331250Y-55562500D02*
X112109250Y-55562500D01*
X121253250Y-55562500D02*
X123031250Y-55562500D01*
X123031250Y-55562500D02*
X123031250Y-57340500D01*
X123031250Y-66484500D02*
X123031250Y-68262500D01*
X123031250Y-68262500D02*
X121253250Y-68262500D01*
X112109250Y-68262500D02*
X110331250Y-68262500D01*
X110331250Y-68262500D02*
X110331250Y-66484500D01*
X110331250Y-57340500D02*
X110331250Y-55562500D01*
X115093750Y-74612500D02*
X116871750Y-74612500D01*
X126015750Y-74612500D02*
X127793750Y-74612500D01*
X127793750Y-74612500D02*
X127793750Y-76390500D01*
X127793750Y-85534500D02*
X127793750Y-87312500D01*
X127793750Y-87312500D02*
X126015750Y-87312500D01*
X116871750Y-87312500D02*
X115093750Y-87312500D01*
X115093750Y-87312500D02*
X115093750Y-85534500D01*
X115093750Y-76390500D02*
X115093750Y-74612500D01*
X124618750Y-93662500D02*
X126396750Y-93662500D01*
X135540750Y-93662500D02*
X137318750Y-93662500D01*
X137318750Y-93662500D02*
X137318750Y-95440500D01*
X137318750Y-104584500D02*
X137318750Y-106362500D01*
X137318750Y-106362500D02*
X135540750Y-106362500D01*
X126396750Y-106362500D02*
X124618750Y-106362500D01*
X124618750Y-106362500D02*
X124618750Y-104584500D01*
X124618750Y-95440500D02*
X124618750Y-93662500D01*
X107950000Y-112712500D02*
X109728000Y-112712500D01*
X118872000Y-112712500D02*
X120650000Y-112712500D01*
X120650000Y-112712500D02*
X120650000Y-114490500D01*
X120650000Y-123634500D02*
X120650000Y-125412500D01*
X120650000Y-125412500D02*
X118872000Y-125412500D01*
X109728000Y-125412500D02*
X107950000Y-125412500D01*
X107950000Y-125412500D02*
X107950000Y-123634500D01*
X107950000Y-114490500D02*
X107950000Y-112712500D01*
X131762500Y-112712500D02*
X133540500Y-112712500D01*
X142684500Y-112712500D02*
X144462500Y-112712500D01*
X144462500Y-112712500D02*
X144462500Y-114490500D01*
X144462500Y-123634500D02*
X144462500Y-125412500D01*
X144462500Y-125412500D02*
X142684500Y-125412500D01*
X133540500Y-125412500D02*
X131762500Y-125412500D01*
X131762500Y-125412500D02*
X131762500Y-123634500D01*
X131762500Y-114490500D02*
X131762500Y-112712500D01*
X119856250Y-36512500D02*
X121634250Y-36512500D01*
X130778250Y-36512500D02*
X132556250Y-36512500D01*
X132556250Y-36512500D02*
X132556250Y-38290500D01*
X132556250Y-47434500D02*
X132556250Y-49212500D01*
X132556250Y-49212500D02*
X130778250Y-49212500D01*
X121634250Y-49212500D02*
X119856250Y-49212500D01*
X119856250Y-49212500D02*
X119856250Y-47434500D01*
X119856250Y-38290500D02*
X119856250Y-36512500D01*
X129381250Y-55562500D02*
X131159250Y-55562500D01*
X140303250Y-55562500D02*
X142081250Y-55562500D01*
X142081250Y-55562500D02*
X142081250Y-57340500D01*
X142081250Y-66484500D02*
X142081250Y-68262500D01*
X142081250Y-68262500D02*
X140303250Y-68262500D01*
X131159250Y-68262500D02*
X129381250Y-68262500D01*
X129381250Y-68262500D02*
X129381250Y-66484500D01*
X129381250Y-57340500D02*
X129381250Y-55562500D01*
X134143750Y-74612500D02*
X135921750Y-74612500D01*
X145065750Y-74612500D02*
X146843750Y-74612500D01*
X146843750Y-74612500D02*
X146843750Y-76390500D01*
X146843750Y-85534500D02*
X146843750Y-87312500D01*
X146843750Y-87312500D02*
X145065750Y-87312500D01*
X135921750Y-87312500D02*
X134143750Y-87312500D01*
X134143750Y-87312500D02*
X134143750Y-85534500D01*
X134143750Y-76390500D02*
X134143750Y-74612500D01*
X143668750Y-93662500D02*
X145446750Y-93662500D01*
X154590750Y-93662500D02*
X156368750Y-93662500D01*
X156368750Y-93662500D02*
X156368750Y-95440500D01*
X156368750Y-104584500D02*
X156368750Y-106362500D01*
X156368750Y-106362500D02*
X154590750Y-106362500D01*
X145446750Y-106362500D02*
X143668750Y-106362500D01*
X143668750Y-106362500D02*
X143668750Y-104584500D01*
X143668750Y-95440500D02*
X143668750Y-93662500D01*
X138906250Y-36512500D02*
X140684250Y-36512500D01*
X149828250Y-36512500D02*
X151606250Y-36512500D01*
X151606250Y-36512500D02*
X151606250Y-38290500D01*
X151606250Y-47434500D02*
X151606250Y-49212500D01*
X151606250Y-49212500D02*
X149828250Y-49212500D01*
X140684250Y-49212500D02*
X138906250Y-49212500D01*
X138906250Y-49212500D02*
X138906250Y-47434500D01*
X138906250Y-38290500D02*
X138906250Y-36512500D01*
X148431250Y-55562500D02*
X150209250Y-55562500D01*
X159353250Y-55562500D02*
X161131250Y-55562500D01*
X161131250Y-55562500D02*
X161131250Y-57340500D01*
X161131250Y-66484500D02*
X161131250Y-68262500D01*
X161131250Y-68262500D02*
X159353250Y-68262500D01*
X150209250Y-68262500D02*
X148431250Y-68262500D01*
X148431250Y-68262500D02*
X148431250Y-66484500D01*
X148431250Y-57340500D02*
X148431250Y-55562500D01*
X153193750Y-74612500D02*
X154971750Y-74612500D01*
X164115750Y-74612500D02*
X165893750Y-74612500D01*
X165893750Y-74612500D02*
X165893750Y-76390500D01*
X165893750Y-85534500D02*
X165893750Y-87312500D01*
X165893750Y-87312500D02*
X164115750Y-87312500D01*
X154971750Y-87312500D02*
X153193750Y-87312500D01*
X153193750Y-87312500D02*
X153193750Y-85534500D01*
X153193750Y-76390500D02*
X153193750Y-74612500D01*
X162718750Y-93662500D02*
X164496750Y-93662500D01*
X173640750Y-93662500D02*
X175418750Y-93662500D01*
X175418750Y-93662500D02*
X175418750Y-95440500D01*
X175418750Y-104584500D02*
X175418750Y-106362500D01*
X175418750Y-106362500D02*
X173640750Y-106362500D01*
X164496750Y-106362500D02*
X162718750Y-106362500D01*
X162718750Y-106362500D02*
X162718750Y-104584500D01*
X162718750Y-95440500D02*
X162718750Y-93662500D01*
X157956250Y-36512500D02*
X159734250Y-36512500D01*
X168878250Y-36512500D02*
X170656250Y-36512500D01*
X170656250Y-36512500D02*
X170656250Y-38290500D01*
X170656250Y-47434500D02*
X170656250Y-49212500D01*
X170656250Y-49212500D02*
X168878250Y-49212500D01*
X159734250Y-49212500D02*
X157956250Y-49212500D01*
X157956250Y-49212500D02*
X157956250Y-47434500D01*
X157956250Y-38290500D02*
X157956250Y-36512500D01*
X167481250Y-55562500D02*
X169259250Y-55562500D01*
X178403250Y-55562500D02*
X180181250Y-55562500D01*
X180181250Y-55562500D02*
X180181250Y-57340500D01*
X180181250Y-66484500D02*
X180181250Y-68262500D01*
X180181250Y-68262500D02*
X178403250Y-68262500D01*
X169259250Y-68262500D02*
X167481250Y-68262500D01*
X167481250Y-68262500D02*
X167481250Y-66484500D01*
X167481250Y-57340500D02*
X167481250Y-55562500D01*
X172243750Y-74612500D02*
X174021750Y-74612500D01*
X183165750Y-74612500D02*
X184943750Y-74612500D01*
X184943750Y-74612500D02*
X184943750Y-76390500D01*
X184943750Y-85534500D02*
X184943750Y-87312500D01*
X184943750Y-87312500D02*
X183165750Y-87312500D01*
X174021750Y-87312500D02*
X172243750Y-87312500D01*
X172243750Y-87312500D02*
X172243750Y-85534500D01*
X172243750Y-76390500D02*
X172243750Y-74612500D01*
X181768750Y-93662500D02*
X183546750Y-93662500D01*
X192690750Y-93662500D02*
X194468750Y-93662500D01*
X194468750Y-93662500D02*
X194468750Y-95440500D01*
X194468750Y-104584500D02*
X194468750Y-106362500D01*
X194468750Y-106362500D02*
X192690750Y-106362500D01*
X183546750Y-106362500D02*
X181768750Y-106362500D01*
X181768750Y-106362500D02*
X181768750Y-104584500D01*
X181768750Y-95440500D02*
X181768750Y-93662500D01*
X177006250Y-36512500D02*
X178784250Y-36512500D01*
X187928250Y-36512500D02*
X189706250Y-36512500D01*
X189706250Y-36512500D02*
X189706250Y-38290500D01*
X189706250Y-47434500D02*
X189706250Y-49212500D01*
X189706250Y-49212500D02*
X187928250Y-49212500D01*
X178784250Y-49212500D02*
X177006250Y-49212500D01*
X177006250Y-49212500D02*
X177006250Y-47434500D01*
X177006250Y-38290500D02*
X177006250Y-36512500D01*
X186531250Y-55562500D02*
X188309250Y-55562500D01*
X197453250Y-55562500D02*
X199231250Y-55562500D01*
X199231250Y-55562500D02*
X199231250Y-57340500D01*
X199231250Y-66484500D02*
X199231250Y-68262500D01*
X199231250Y-68262500D02*
X197453250Y-68262500D01*
X188309250Y-68262500D02*
X186531250Y-68262500D01*
X186531250Y-68262500D02*
X186531250Y-66484500D01*
X186531250Y-57340500D02*
X186531250Y-55562500D01*
X191293750Y-74612500D02*
X193071750Y-74612500D01*
X202215750Y-74612500D02*
X203993750Y-74612500D01*
X203993750Y-74612500D02*
X203993750Y-76390500D01*
X203993750Y-85534500D02*
X203993750Y-87312500D01*
X203993750Y-87312500D02*
X202215750Y-87312500D01*
X193071750Y-87312500D02*
X191293750Y-87312500D01*
X191293750Y-87312500D02*
X191293750Y-85534500D01*
X191293750Y-76390500D02*
X191293750Y-74612500D01*
X200818750Y-93662500D02*
X202596750Y-93662500D01*
X211740750Y-93662500D02*
X213518750Y-93662500D01*
X213518750Y-93662500D02*
X213518750Y-95440500D01*
X213518750Y-104584500D02*
X213518750Y-106362500D01*
X213518750Y-106362500D02*
X211740750Y-106362500D01*
X202596750Y-106362500D02*
X200818750Y-106362500D01*
X200818750Y-106362500D02*
X200818750Y-104584500D01*
X200818750Y-95440500D02*
X200818750Y-93662500D01*
X196056250Y-36512500D02*
X197834250Y-36512500D01*
X206978250Y-36512500D02*
X208756250Y-36512500D01*
X208756250Y-36512500D02*
X208756250Y-38290500D01*
X208756250Y-47434500D02*
X208756250Y-49212500D01*
X208756250Y-49212500D02*
X206978250Y-49212500D01*
X197834250Y-49212500D02*
X196056250Y-49212500D01*
X196056250Y-49212500D02*
X196056250Y-47434500D01*
X196056250Y-38290500D02*
X196056250Y-36512500D01*
X205581250Y-55562500D02*
X207359250Y-55562500D01*
X216503250Y-55562500D02*
X218281250Y-55562500D01*
X218281250Y-55562500D02*
X218281250Y-57340500D01*
X218281250Y-66484500D02*
X218281250Y-68262500D01*
X218281250Y-68262500D02*
X216503250Y-68262500D01*
X207359250Y-68262500D02*
X205581250Y-68262500D01*
X205581250Y-68262500D02*
X205581250Y-66484500D01*
X205581250Y-57340500D02*
X205581250Y-55562500D01*
X210343750Y-74612500D02*
X212121750Y-74612500D01*
X221265750Y-74612500D02*
X223043750Y-74612500D01*
X223043750Y-74612500D02*
X223043750Y-76390500D01*
X223043750Y-85534500D02*
X223043750Y-87312500D01*
X223043750Y-87312500D02*
X221265750Y-87312500D01*
X212121750Y-87312500D02*
X210343750Y-87312500D01*
X210343750Y-87312500D02*
X210343750Y-85534500D01*
X210343750Y-76390500D02*
X210343750Y-74612500D01*
X219868750Y-93662500D02*
X221646750Y-93662500D01*
X230790750Y-93662500D02*
X232568750Y-93662500D01*
X232568750Y-93662500D02*
X232568750Y-95440500D01*
X232568750Y-104584500D02*
X232568750Y-106362500D01*
X232568750Y-106362500D02*
X230790750Y-106362500D01*
X221646750Y-106362500D02*
X219868750Y-106362500D01*
X219868750Y-106362500D02*
X219868750Y-104584500D01*
X219868750Y-95440500D02*
X219868750Y-93662500D01*
X203200000Y-112712500D02*
X204978000Y-112712500D01*
X214122000Y-112712500D02*
X215900000Y-112712500D01*
X215900000Y-112712500D02*
X215900000Y-114490500D01*
X215900000Y-123634500D02*
X215900000Y-125412500D01*
X215900000Y-125412500D02*
X214122000Y-125412500D01*
X204978000Y-125412500D02*
X203200000Y-125412500D01*
X203200000Y-125412500D02*
X203200000Y-123634500D01*
X203200000Y-114490500D02*
X203200000Y-112712500D01*
X215106250Y-36512500D02*
X216884250Y-36512500D01*
X226028250Y-36512500D02*
X227806250Y-36512500D01*
X227806250Y-36512500D02*
X227806250Y-38290500D01*
X227806250Y-47434500D02*
X227806250Y-49212500D01*
X227806250Y-49212500D02*
X226028250Y-49212500D01*
X216884250Y-49212500D02*
X215106250Y-49212500D01*
X215106250Y-49212500D02*
X215106250Y-47434500D01*
X215106250Y-38290500D02*
X215106250Y-36512500D01*
X224631250Y-55562500D02*
X226409250Y-55562500D01*
X235553250Y-55562500D02*
X237331250Y-55562500D01*
X237331250Y-55562500D02*
X237331250Y-57340500D01*
X237331250Y-66484500D02*
X237331250Y-68262500D01*
X237331250Y-68262500D02*
X235553250Y-68262500D01*
X226409250Y-68262500D02*
X224631250Y-68262500D01*
X224631250Y-68262500D02*
X224631250Y-66484500D01*
X224631250Y-57340500D02*
X224631250Y-55562500D01*
X229393750Y-74612500D02*
X231171750Y-74612500D01*
X240315750Y-74612500D02*
X242093750Y-74612500D01*
X242093750Y-74612500D02*
X242093750Y-76390500D01*
X242093750Y-85534500D02*
X242093750Y-87312500D01*
X242093750Y-87312500D02*
X240315750Y-87312500D01*
X231171750Y-87312500D02*
X229393750Y-87312500D01*
X229393750Y-87312500D02*
X229393750Y-85534500D01*
X229393750Y-76390500D02*
X229393750Y-74612500D01*
X238918750Y-93662500D02*
X240696750Y-93662500D01*
X249840750Y-93662500D02*
X251618750Y-93662500D01*
X251618750Y-93662500D02*
X251618750Y-95440500D01*
X251618750Y-104584500D02*
X251618750Y-106362500D01*
X251618750Y-106362500D02*
X249840750Y-106362500D01*
X240696750Y-106362500D02*
X238918750Y-106362500D01*
X238918750Y-106362500D02*
X238918750Y-104584500D01*
X238918750Y-95440500D02*
X238918750Y-93662500D01*
X234156250Y-36512500D02*
X235934250Y-36512500D01*
X245078250Y-36512500D02*
X246856250Y-36512500D01*
X246856250Y-36512500D02*
X246856250Y-38290500D01*
X246856250Y-47434500D02*
X246856250Y-49212500D01*
X246856250Y-49212500D02*
X245078250Y-49212500D01*
X235934250Y-49212500D02*
X234156250Y-49212500D01*
X234156250Y-49212500D02*
X234156250Y-47434500D01*
X234156250Y-38290500D02*
X234156250Y-36512500D01*
X243681250Y-55562500D02*
X245459250Y-55562500D01*
X254603250Y-55562500D02*
X256381250Y-55562500D01*
X256381250Y-55562500D02*
X256381250Y-57340500D01*
X256381250Y-66484500D02*
X256381250Y-68262500D01*
X256381250Y-68262500D02*
X254603250Y-68262500D01*
X245459250Y-68262500D02*
X243681250Y-68262500D01*
X243681250Y-68262500D02*
X243681250Y-66484500D01*
X243681250Y-57340500D02*
X243681250Y-55562500D01*
X248443750Y-74612500D02*
X250221750Y-74612500D01*
X259365750Y-74612500D02*
X261143750Y-74612500D01*
X261143750Y-74612500D02*
X261143750Y-76390500D01*
X261143750Y-85534500D02*
X261143750Y-87312500D01*
X261143750Y-87312500D02*
X259365750Y-87312500D01*
X250221750Y-87312500D02*
X248443750Y-87312500D01*
X248443750Y-87312500D02*
X248443750Y-85534500D01*
X248443750Y-76390500D02*
X248443750Y-74612500D01*
X257968750Y-93662500D02*
X259746750Y-93662500D01*
X268890750Y-93662500D02*
X270668750Y-93662500D01*
X270668750Y-93662500D02*
X270668750Y-95440500D01*
X270668750Y-104584500D02*
X270668750Y-106362500D01*
X270668750Y-106362500D02*
X268890750Y-106362500D01*
X259746750Y-106362500D02*
X257968750Y-106362500D01*
X257968750Y-106362500D02*
X257968750Y-104584500D01*
X257968750Y-95440500D02*
X257968750Y-93662500D01*
X253206250Y-36512500D02*
X254984250Y-36512500D01*
X264128250Y-36512500D02*
X265906250Y-36512500D01*
X265906250Y-36512500D02*
X265906250Y-38290500D01*
X265906250Y-47434500D02*
X265906250Y-49212500D01*
X265906250Y-49212500D02*
X264128250Y-49212500D01*
X254984250Y-49212500D02*
X253206250Y-49212500D01*
X253206250Y-49212500D02*
X253206250Y-47434500D01*
X253206250Y-38290500D02*
X253206250Y-36512500D01*
X262731250Y-55562500D02*
X264509250Y-55562500D01*
X273653250Y-55562500D02*
X275431250Y-55562500D01*
X275431250Y-55562500D02*
X275431250Y-57340500D01*
X275431250Y-66484500D02*
X275431250Y-68262500D01*
X275431250Y-68262500D02*
X273653250Y-68262500D01*
X264509250Y-68262500D02*
X262731250Y-68262500D01*
X262731250Y-68262500D02*
X262731250Y-66484500D01*
X262731250Y-57340500D02*
X262731250Y-55562500D01*
X267493750Y-74612500D02*
X269271750Y-74612500D01*
X278415750Y-74612500D02*
X280193750Y-74612500D01*
X280193750Y-74612500D02*
X280193750Y-76390500D01*
X280193750Y-85534500D02*
X280193750Y-87312500D01*
X280193750Y-87312500D02*
X278415750Y-87312500D01*
X269271750Y-87312500D02*
X267493750Y-87312500D01*
X267493750Y-87312500D02*
X267493750Y-85534500D01*
X267493750Y-76390500D02*
X267493750Y-74612500D01*
X277018750Y-93662500D02*
X278796750Y-93662500D01*
X287940750Y-93662500D02*
X289718750Y-93662500D01*
X289718750Y-93662500D02*
X289718750Y-95440500D01*
X289718750Y-104584500D02*
X289718750Y-106362500D01*
X289718750Y-106362500D02*
X287940750Y-106362500D01*
X278796750Y-106362500D02*
X277018750Y-106362500D01*
X277018750Y-106362500D02*
X277018750Y-104584500D01*
X277018750Y-95440500D02*
X277018750Y-93662500D01*
X272256250Y-36512500D02*
X274034250Y-36512500D01*
X283178250Y-36512500D02*
X284956250Y-36512500D01*
X284956250Y-36512500D02*
X284956250Y-38290500D01*
X284956250Y-47434500D02*
X284956250Y-49212500D01*
X284956250Y-49212500D02*
X283178250Y-49212500D01*
X274034250Y-49212500D02*
X272256250Y-49212500D01*
X272256250Y-49212500D02*
X272256250Y-47434500D01*
X272256250Y-38290500D02*
X272256250Y-36512500D01*
X281781250Y-55562500D02*
X283559250Y-55562500D01*
X292703250Y-55562500D02*
X294481250Y-55562500D01*
X294481250Y-55562500D02*
X294481250Y-57340500D01*
X294481250Y-66484500D02*
X294481250Y-68262500D01*
X294481250Y-68262500D02*
X292703250Y-68262500D01*
X283559250Y-68262500D02*
X281781250Y-68262500D01*
X281781250Y-68262500D02*
X281781250Y-66484500D01*
X281781250Y-57340500D02*
X281781250Y-55562500D01*
X286543750Y-74612500D02*
X288321750Y-74612500D01*
X297465750Y-74612500D02*
X299243750Y-74612500D01*
X299243750Y-74612500D02*
X299243750Y-76390500D01*
X299243750Y-85534500D02*
X299243750Y-87312500D01*
X299243750Y-87312500D02*
X297465750Y-87312500D01*
X288321750Y-87312500D02*
X286543750Y-87312500D01*
X286543750Y-87312500D02*
X286543750Y-85534500D01*
X286543750Y-76390500D02*
X286543750Y-74612500D01*
X296068750Y-93662500D02*
X297846750Y-93662500D01*
X306990750Y-93662500D02*
X308768750Y-93662500D01*
X308768750Y-93662500D02*
X308768750Y-95440500D01*
X308768750Y-104584500D02*
X308768750Y-106362500D01*
X308768750Y-106362500D02*
X306990750Y-106362500D01*
X297846750Y-106362500D02*
X296068750Y-106362500D01*
X296068750Y-106362500D02*
X296068750Y-104584500D01*
X296068750Y-95440500D02*
X296068750Y-93662500D01*
X272256250Y-112712500D02*
X274034250Y-112712500D01*
X283178250Y-112712500D02*
X284956250Y-112712500D01*
X284956250Y-112712500D02*
X284956250Y-114490500D01*
X284956250Y-123634500D02*
X284956250Y-125412500D01*
X284956250Y-125412500D02*
X283178250Y-125412500D01*
X274034250Y-125412500D02*
X272256250Y-125412500D01*
X272256250Y-125412500D02*
X272256250Y-123634500D01*
X272256250Y-114490500D02*
X272256250Y-112712500D01*
X291306250Y-36512500D02*
X293084250Y-36512500D01*
X302228250Y-36512500D02*
X304006250Y-36512500D01*
X304006250Y-36512500D02*
X304006250Y-38290500D01*
X304006250Y-47434500D02*
X304006250Y-49212500D01*
X304006250Y-49212500D02*
X302228250Y-49212500D01*
X293084250Y-49212500D02*
X291306250Y-49212500D01*
X291306250Y-49212500D02*
X291306250Y-47434500D01*
X291306250Y-38290500D02*
X291306250Y-36512500D01*
X300831250Y-55562500D02*
X302609250Y-55562500D01*
X311753250Y-55562500D02*
X313531250Y-55562500D01*
X313531250Y-55562500D02*
X313531250Y-57340500D01*
X313531250Y-66484500D02*
X313531250Y-68262500D01*
X313531250Y-68262500D02*
X311753250Y-68262500D01*
X302609250Y-68262500D02*
X300831250Y-68262500D01*
X300831250Y-68262500D02*
X300831250Y-66484500D01*
X300831250Y-57340500D02*
X300831250Y-55562500D01*
X305593750Y-74612500D02*
X307371750Y-74612500D01*
X316515750Y-74612500D02*
X318293750Y-74612500D01*
X318293750Y-74612500D02*
X318293750Y-76390500D01*
X318293750Y-85534500D02*
X318293750Y-87312500D01*
X318293750Y-87312500D02*
X316515750Y-87312500D01*
X307371750Y-87312500D02*
X305593750Y-87312500D01*
X305593750Y-87312500D02*
X305593750Y-85534500D01*
X305593750Y-76390500D02*
X305593750Y-74612500D01*
X291306250Y-112712500D02*
X293084250Y-112712500D01*
X302228250Y-112712500D02*
X304006250Y-112712500D01*
X304006250Y-112712500D02*
X304006250Y-114490500D01*
X304006250Y-123634500D02*
X304006250Y-125412500D01*
X304006250Y-125412500D02*
X302228250Y-125412500D01*
X293084250Y-125412500D02*
X291306250Y-125412500D01*
X291306250Y-125412500D02*
X291306250Y-123634500D01*
X291306250Y-114490500D02*
X291306250Y-112712500D01*
X310356250Y-36512500D02*
X312134250Y-36512500D01*
X321278250Y-36512500D02*
X323056250Y-36512500D01*
X323056250Y-36512500D02*
X323056250Y-38290500D01*
X323056250Y-47434500D02*
X323056250Y-49212500D01*
X323056250Y-49212500D02*
X321278250Y-49212500D01*
X312134250Y-49212500D02*
X310356250Y-49212500D01*
X310356250Y-49212500D02*
X310356250Y-47434500D01*
X310356250Y-38290500D02*
X310356250Y-36512500D01*
X319881250Y-55562500D02*
X321659250Y-55562500D01*
X330803250Y-55562500D02*
X332581250Y-55562500D01*
X332581250Y-55562500D02*
X332581250Y-57340500D01*
X332581250Y-66484500D02*
X332581250Y-68262500D01*
X332581250Y-68262500D02*
X330803250Y-68262500D01*
X321659250Y-68262500D02*
X319881250Y-68262500D01*
X319881250Y-68262500D02*
X319881250Y-66484500D01*
X319881250Y-57340500D02*
X319881250Y-55562500D01*
X336550000Y-74612500D02*
X338328000Y-74612500D01*
X347472000Y-74612500D02*
X349250000Y-74612500D01*
X349250000Y-74612500D02*
X349250000Y-76390500D01*
X349250000Y-85534500D02*
X349250000Y-87312500D01*
X349250000Y-87312500D02*
X347472000Y-87312500D01*
X338328000Y-87312500D02*
X336550000Y-87312500D01*
X336550000Y-87312500D02*
X336550000Y-85534500D01*
X336550000Y-76390500D02*
X336550000Y-74612500D01*
X348456250Y-93662500D02*
X350234250Y-93662500D01*
X359378250Y-93662500D02*
X361156250Y-93662500D01*
X361156250Y-93662500D02*
X361156250Y-95440500D01*
X361156250Y-104584500D02*
X361156250Y-106362500D01*
X361156250Y-106362500D02*
X359378250Y-106362500D01*
X350234250Y-106362500D02*
X348456250Y-106362500D01*
X348456250Y-106362500D02*
X348456250Y-104584500D01*
X348456250Y-95440500D02*
X348456250Y-93662500D01*
X310356250Y-112712500D02*
X312134250Y-112712500D01*
X321278250Y-112712500D02*
X323056250Y-112712500D01*
X323056250Y-112712500D02*
X323056250Y-114490500D01*
X323056250Y-123634500D02*
X323056250Y-125412500D01*
X323056250Y-125412500D02*
X321278250Y-125412500D01*
X312134250Y-125412500D02*
X310356250Y-125412500D01*
X310356250Y-125412500D02*
X310356250Y-123634500D01*
X310356250Y-114490500D02*
X310356250Y-112712500D01*
X338931250Y-36512500D02*
X340709250Y-36512500D01*
X349853250Y-36512500D02*
X351631250Y-36512500D01*
X351631250Y-36512500D02*
X351631250Y-38290500D01*
X351631250Y-47434500D02*
X351631250Y-49212500D01*
X351631250Y-49212500D02*
X349853250Y-49212500D01*
X340709250Y-49212500D02*
X338931250Y-49212500D01*
X338931250Y-49212500D02*
X338931250Y-47434500D01*
X338931250Y-38290500D02*
X338931250Y-36512500D01*
X343693750Y-55562500D02*
X345471750Y-55562500D01*
X354615750Y-55562500D02*
X356393750Y-55562500D01*
X356393750Y-55562500D02*
X356393750Y-57340500D01*
X356393750Y-66484500D02*
X356393750Y-68262500D01*
X356393750Y-68262500D02*
X354615750Y-68262500D01*
X345471750Y-68262500D02*
X343693750Y-68262500D01*
X343693750Y-68262500D02*
X343693750Y-66484500D01*
X343693750Y-57340500D02*
X343693750Y-55562500D01*
X367506250Y-74612500D02*
X369284250Y-74612500D01*
X378428250Y-74612500D02*
X380206250Y-74612500D01*
X380206250Y-74612500D02*
X380206250Y-76390500D01*
X380206250Y-85534500D02*
X380206250Y-87312500D01*
X380206250Y-87312500D02*
X378428250Y-87312500D01*
X369284250Y-87312500D02*
X367506250Y-87312500D01*
X367506250Y-87312500D02*
X367506250Y-85534500D01*
X367506250Y-76390500D02*
X367506250Y-74612500D01*
X367506250Y-93662500D02*
X369284250Y-93662500D01*
X378428250Y-93662500D02*
X380206250Y-93662500D01*
X380206250Y-93662500D02*
X380206250Y-95440500D01*
X380206250Y-104584500D02*
X380206250Y-106362500D01*
X380206250Y-106362500D02*
X378428250Y-106362500D01*
X369284250Y-106362500D02*
X367506250Y-106362500D01*
X367506250Y-106362500D02*
X367506250Y-104584500D01*
X367506250Y-95440500D02*
X367506250Y-93662500D01*
X348456250Y-112712500D02*
X350234250Y-112712500D01*
X359378250Y-112712500D02*
X361156250Y-112712500D01*
X361156250Y-112712500D02*
X361156250Y-114490500D01*
X361156250Y-123634500D02*
X361156250Y-125412500D01*
X361156250Y-125412500D02*
X359378250Y-125412500D01*
X350234250Y-125412500D02*
X348456250Y-125412500D01*
X348456250Y-125412500D02*
X348456250Y-123634500D01*
X348456250Y-114490500D02*
X348456250Y-112712500D01*
X367506250Y-36512500D02*
X369284250Y-36512500D01*
X378428250Y-36512500D02*
X380206250Y-36512500D01*
X380206250Y-36512500D02*
X380206250Y-38290500D01*
X380206250Y-47434500D02*
X380206250Y-49212500D01*
X380206250Y-49212500D02*
X378428250Y-49212500D01*
X369284250Y-49212500D02*
X367506250Y-49212500D01*
X367506250Y-49212500D02*
X367506250Y-47434500D01*
X367506250Y-38290500D02*
X367506250Y-36512500D01*
X367506250Y-55562500D02*
X369284250Y-55562500D01*
X378428250Y-55562500D02*
X380206250Y-55562500D01*
X380206250Y-55562500D02*
X380206250Y-57340500D01*
X380206250Y-66484500D02*
X380206250Y-68262500D01*
X380206250Y-68262500D02*
X378428250Y-68262500D01*
X369284250Y-68262500D02*
X367506250Y-68262500D01*
X367506250Y-68262500D02*
X367506250Y-66484500D01*
X367506250Y-57340500D02*
X367506250Y-55562500D01*
X367506250Y-112712500D02*
X369284250Y-112712500D01*
X378428250Y-112712500D02*
X380206250Y-112712500D01*
X380206250Y-112712500D02*
X380206250Y-114490500D01*
X380206250Y-123634500D02*
X380206250Y-125412500D01*
X380206250Y-125412500D02*
X378428250Y-125412500D01*
X369284250Y-125412500D02*
X367506250Y-125412500D01*
X367506250Y-125412500D02*
X367506250Y-123634500D01*
X367506250Y-114490500D02*
X367506250Y-112712500D01*
X329406250Y-112712500D02*
X331184250Y-112712500D01*
X340328250Y-112712500D02*
X342106250Y-112712500D01*
X342106250Y-112712500D02*
X342106250Y-114490500D01*
X342106250Y-123634500D02*
X342106250Y-125412500D01*
X342106250Y-125412500D02*
X340328250Y-125412500D01*
X331184250Y-125412500D02*
X329406250Y-125412500D01*
X329406250Y-125412500D02*
X329406250Y-123634500D01*
X329406250Y-114490500D02*
X329406250Y-112712500D01*
X322262500Y-93662500D02*
X324040500Y-93662500D01*
X333184500Y-93662500D02*
X334962500Y-93662500D01*
X334962500Y-93662500D02*
X334962500Y-95440500D01*
X334962500Y-104584500D02*
X334962500Y-106362500D01*
X334962500Y-106362500D02*
X333184500Y-106362500D01*
X324040500Y-106362500D02*
X322262500Y-106362500D01*
X322262500Y-106362500D02*
X322262500Y-104584500D01*
X322262500Y-95440500D02*
X322262500Y-93662500D01*
D12*
X81416667Y-50702381D02*
X81083333Y-50226190D01*
X80845238Y-50702381D02*
X80845238Y-49702381D01*
X81226191Y-49702381D01*
X81321429Y-49750000D01*
X81369048Y-49797619D01*
X81416667Y-49892857D01*
X81416667Y-50035714D01*
X81369048Y-50130952D01*
X81321429Y-50178571D01*
X81226191Y-50226190D01*
X80845238Y-50226190D01*
X81845238Y-50178571D02*
X82178572Y-50178571D01*
X82321429Y-50702381D02*
X81845238Y-50702381D01*
X81845238Y-49702381D01*
X82321429Y-49702381D01*
X83083334Y-50178571D02*
X82750000Y-50178571D01*
X82750000Y-50702381D02*
X82750000Y-49702381D01*
X83226191Y-49702381D01*
X83750000Y-49702381D02*
X83750000Y-49940476D01*
X83511905Y-49845238D02*
X83750000Y-49940476D01*
X83988096Y-49845238D01*
X83607143Y-50130952D02*
X83750000Y-49940476D01*
X83892858Y-50130952D01*
X84511905Y-49702381D02*
X84511905Y-49940476D01*
X84273810Y-49845238D02*
X84511905Y-49940476D01*
X84750001Y-49845238D01*
X84369048Y-50130952D02*
X84511905Y-49940476D01*
X84654763Y-50130952D01*
X124916667Y-107702381D02*
X124583333Y-107226190D01*
X124345238Y-107702381D02*
X124345238Y-106702381D01*
X124726191Y-106702381D01*
X124821429Y-106750000D01*
X124869048Y-106797619D01*
X124916667Y-106892857D01*
X124916667Y-107035714D01*
X124869048Y-107130952D01*
X124821429Y-107178571D01*
X124726191Y-107226190D01*
X124345238Y-107226190D01*
X125345238Y-107178571D02*
X125678572Y-107178571D01*
X125821429Y-107702381D02*
X125345238Y-107702381D01*
X125345238Y-106702381D01*
X125821429Y-106702381D01*
X126583334Y-107178571D02*
X126250000Y-107178571D01*
X126250000Y-107702381D02*
X126250000Y-106702381D01*
X126726191Y-106702381D01*
X127250000Y-106702381D02*
X127250000Y-106940476D01*
X127011905Y-106845238D02*
X127250000Y-106940476D01*
X127488096Y-106845238D01*
X127107143Y-107130952D02*
X127250000Y-106940476D01*
X127392858Y-107130952D01*
X128011905Y-106702381D02*
X128011905Y-106940476D01*
X127773810Y-106845238D02*
X128011905Y-106940476D01*
X128250001Y-106845238D01*
X127869048Y-107130952D02*
X128011905Y-106940476D01*
X128154763Y-107130952D01*
X362916667Y-50202381D02*
X362583333Y-49726190D01*
X362345238Y-50202381D02*
X362345238Y-49202381D01*
X362726191Y-49202381D01*
X362821429Y-49250000D01*
X362869048Y-49297619D01*
X362916667Y-49392857D01*
X362916667Y-49535714D01*
X362869048Y-49630952D01*
X362821429Y-49678571D01*
X362726191Y-49726190D01*
X362345238Y-49726190D01*
X363345238Y-49678571D02*
X363678572Y-49678571D01*
X363821429Y-50202381D02*
X363345238Y-50202381D01*
X363345238Y-49202381D01*
X363821429Y-49202381D01*
X364583334Y-49678571D02*
X364250000Y-49678571D01*
X364250000Y-50202381D02*
X364250000Y-49202381D01*
X364726191Y-49202381D01*
X365250000Y-49202381D02*
X365250000Y-49440476D01*
X365011905Y-49345238D02*
X365250000Y-49440476D01*
X365488096Y-49345238D01*
X365107143Y-49630952D02*
X365250000Y-49440476D01*
X365392858Y-49630952D01*
X366011905Y-49202381D02*
X366011905Y-49440476D01*
X365773810Y-49345238D02*
X366011905Y-49440476D01*
X366250001Y-49345238D01*
X365869048Y-49630952D02*
X366011905Y-49440476D01*
X366154763Y-49630952D01*
X343916667Y-107702381D02*
X343583333Y-107226190D01*
X343345238Y-107702381D02*
X343345238Y-106702381D01*
X343726191Y-106702381D01*
X343821429Y-106750000D01*
X343869048Y-106797619D01*
X343916667Y-106892857D01*
X343916667Y-107035714D01*
X343869048Y-107130952D01*
X343821429Y-107178571D01*
X343726191Y-107226190D01*
X343345238Y-107226190D01*
X344345238Y-107178571D02*
X344678572Y-107178571D01*
X344821429Y-107702381D02*
X344345238Y-107702381D01*
X344345238Y-106702381D01*
X344821429Y-106702381D01*
X345583334Y-107178571D02*
X345250000Y-107178571D01*
X345250000Y-107702381D02*
X345250000Y-106702381D01*
X345726191Y-106702381D01*
X346250000Y-106702381D02*
X346250000Y-106940476D01*
X346011905Y-106845238D02*
X346250000Y-106940476D01*
X346488096Y-106845238D01*
X346107143Y-107130952D02*
X346250000Y-106940476D01*
X346392858Y-107130952D01*
X347011905Y-106702381D02*
X347011905Y-106940476D01*
X346773810Y-106845238D02*
X347011905Y-106940476D01*
X347250001Y-106845238D01*
X346869048Y-107130952D02*
X347011905Y-106940476D01*
X347154763Y-107130952D01*
X224916667Y-69702381D02*
X224583333Y-69226190D01*
X224345238Y-69702381D02*
X224345238Y-68702381D01*
X224726191Y-68702381D01*
X224821429Y-68750000D01*
X224869048Y-68797619D01*
X224916667Y-68892857D01*
X224916667Y-69035714D01*
X224869048Y-69130952D01*
X224821429Y-69178571D01*
X224726191Y-69226190D01*
X224345238Y-69226190D01*
X225345238Y-69178571D02*
X225678572Y-69178571D01*
X225821429Y-69702381D02*
X225345238Y-69702381D01*
X225345238Y-68702381D01*
X225821429Y-68702381D01*
X226583334Y-69178571D02*
X226250000Y-69178571D01*
X226250000Y-69702381D02*
X226250000Y-68702381D01*
X226726191Y-68702381D01*
X227250000Y-68702381D02*
X227250000Y-68940476D01*
X227011905Y-68845238D02*
X227250000Y-68940476D01*
X227488096Y-68845238D01*
X227107143Y-69130952D02*
X227250000Y-68940476D01*
X227392858Y-69130952D01*
X228011905Y-68702381D02*
X228011905Y-68940476D01*
X227773810Y-68845238D02*
X228011905Y-68940476D01*
X228250001Y-68845238D01*
X227869048Y-69130952D02*
X228011905Y-68940476D01*
X228154763Y-69130952D01*
M02*
