M48
INCH,TZ
T1C0.067
T2C0.120
T3C0.157
%
G90
G05
T1
X3.2687Y-1.6875
X3.3625Y-4.6875
X3.4562Y-2.4375
X3.55Y-3.1875
X3.6687Y-1.6875
X3.7375Y-3.9375
X3.7625Y-4.6875
X3.8562Y-2.4375
X3.95Y-3.1875
X4.0187Y-1.6875
X4.1375Y-3.9375
X4.3Y-4.6875
X4.3937Y-2.4375
X4.4188Y-1.6875
X4.5812Y-3.1875
X4.7Y-4.6875
X4.7687Y-1.6875
X4.7938Y-2.4375
X4.9562Y-3.9375
X4.9813Y-3.1875
X5.1437Y-2.4375
X5.1688Y-1.6875
X5.2375Y-4.6875
X5.3312Y-3.1875
X5.3563Y-3.9375
X5.5187Y-1.6875
X5.5438Y-2.4375
X5.6375Y-4.6875
X5.7062Y-3.9375
X5.7313Y-3.1875
X5.8937Y-2.4375
X5.9188Y-1.6875
X6.0812Y-3.1875
X6.1063Y-3.9375
X6.2687Y-1.6875
X6.2938Y-2.4375
X6.4562Y-3.9375
X6.4813Y-3.1875
X6.6437Y-2.4375
X6.6688Y-1.6875
X6.8312Y-3.1875
X6.8563Y-3.9375
X7.0187Y-1.6875
X7.0438Y-2.4375
X7.2062Y-3.9375
X7.2313Y-3.1875
X7.3937Y-2.4375
X7.4188Y-1.6875
X7.5812Y-3.1875
X7.6063Y-3.9375
X7.7687Y-1.6875
X7.7938Y-2.4375
X7.9562Y-3.9375
X7.9813Y-3.1875
X8.05Y-4.6875
X8.1437Y-2.4375
X8.1687Y-1.6875
X8.3312Y-3.1875
X8.3562Y-3.9375
X8.45Y-4.6875
X8.5187Y-1.6875
X8.5437Y-2.4375
X8.7062Y-3.9375
X8.7312Y-3.1875
X8.8937Y-2.4375
X8.9187Y-1.6875
X9.0812Y-3.1875
X9.1062Y-3.9375
X9.2687Y-1.6875
X9.2937Y-2.4375
X9.4562Y-3.9375
X9.4812Y-3.1875
X9.6437Y-2.4375
X9.6687Y-1.6875
X9.8312Y-3.1875
X9.8562Y-3.9375
X10.0187Y-1.6875
X10.0437Y-2.4375
X10.2062Y-3.9375
X10.2312Y-3.1875
X10.3937Y-2.4375
X10.4187Y-1.6875
X10.5812Y-3.1875
X10.6062Y-3.9375
X10.7687Y-1.6875
X10.7687Y-4.6875
X10.7937Y-2.4375
X10.9562Y-3.9375
X10.9812Y-3.1875
X11.1437Y-2.4375
X11.1687Y-1.6875
X11.1687Y-4.6875
X11.3312Y-3.1875
X11.3562Y-3.9375
X11.5187Y-1.6875
X11.5187Y-4.6875
X11.5437Y-2.4375
X11.7062Y-3.9375
X11.7312Y-3.1875
X11.8937Y-2.4375
X11.9187Y-1.6875
X11.9187Y-4.6875
X12.0812Y-3.1875
X12.1062Y-3.9375
X12.2687Y-1.6875
X12.2687Y-4.6875
X12.2937Y-2.4375
X12.4812Y-3.1875
X12.6437Y-2.4375
X12.6687Y-1.6875
X12.6687Y-4.6875
X12.7375Y-3.9375
X13.0187Y-4.6875
X13.0437Y-2.4375
X13.1375Y-3.9375
X13.3Y-3.1875
X13.3937Y-1.6875
X13.4187Y-4.6875
X13.5812Y-2.4375
X13.7Y-3.1875
X13.7687Y-3.9375
X13.7687Y-4.6875
X13.7937Y-1.6875
X13.9812Y-2.4375
X14.1687Y-3.9375
X14.1687Y-4.6875
X14.5187Y-1.6875
X14.5187Y-2.4375
X14.5187Y-3.1875
X14.5187Y-3.9375
X14.5187Y-4.6875
X14.9187Y-1.6875
X14.9187Y-2.4375
X14.9187Y-3.1875
X14.9187Y-3.9375
X14.9187Y-4.6875
T2
X3.4675Y-3.6625
X4.4075Y-3.6625
X6.28Y-4.4125
X10.22Y-4.4125
X13.03Y-2.9125
X13.1237Y-1.4125
X13.97Y-2.9125
X14.0637Y-1.4125
T3
X3.4675Y-4.2625
X3.4688Y-1.6875
X3.5625Y-4.6875
X3.6562Y-2.4375
X3.75Y-3.1875
X3.9375Y-3.9375
X4.2188Y-1.6875
X4.4075Y-4.2625
X4.5Y-4.6875
X4.5938Y-2.4375
X4.7812Y-3.1875
X4.9688Y-1.6875
X5.1562Y-3.9375
X5.3438Y-2.4375
X5.4375Y-4.6875
X5.5312Y-3.1875
X5.7188Y-1.6875
X5.9062Y-3.9375
X6.0938Y-2.4375
X6.28Y-5.0125
X6.2812Y-3.1875
X6.4688Y-1.6875
X6.6562Y-3.9375
X6.8438Y-2.4375
X7.0312Y-3.1875
X7.2188Y-1.6875
X7.4062Y-3.9375
X7.5938Y-2.4375
X7.7812Y-3.1875
X7.9688Y-1.6875
X8.1562Y-3.9375
X8.25Y-4.6875
X8.3438Y-2.4375
X8.5312Y-3.1875
X8.7188Y-1.6875
X8.9062Y-3.9375
X9.0938Y-2.4375
X9.2812Y-3.1875
X9.4688Y-1.6875
X9.6562Y-3.9375
X9.8438Y-2.4375
X10.0312Y-3.1875
X10.2188Y-1.6875
X10.22Y-5.0125
X10.4062Y-3.9375
X10.5938Y-2.4375
X10.7812Y-3.1875
X10.9688Y-1.6875
X10.9688Y-4.6875
X11.1562Y-3.9375
X11.3438Y-2.4375
X11.5312Y-3.1875
X11.7188Y-1.6875
X11.7188Y-4.6875
X11.9062Y-3.9375
X12.0938Y-2.4375
X12.2812Y-3.1875
X12.4688Y-1.6875
X12.4688Y-4.6875
X12.8438Y-2.4375
X12.9375Y-3.9375
X13.03Y-3.5125
X13.1237Y-2.0125
X13.2188Y-4.6875
X13.5Y-3.1875
X13.5938Y-1.6875
X13.7812Y-2.4375
X13.9688Y-3.9375
X13.9688Y-4.6875
X13.97Y-3.5125
X14.0637Y-2.0125
X14.7188Y-1.6875
X14.7188Y-2.4375
X14.7188Y-3.1875
X14.7188Y-3.9375
X14.7188Y-4.6875
T0
M30
